<?xml version="1.0" encoding="UTF-8"?>
<svg width="13px" height="17px" viewBox="0 0 13 17" version="1.1" xmlns="http://www.w3.org/2000/svg" xmlns:xlink="http://www.w3.org/1999/xlink">
    <!-- Generator: Sketch 64 (93537) - https://sketch.com -->
    <title>Icons/Bonus information1</title>
    <desc>Created with Sketch.</desc>
    <defs>
        <polygon id="path-1" points="3.21716138e-08 0 12.9802828 0 12.9802828 17 3.21716138e-08 17"></polygon>
    </defs>
    <g id="Symbols" stroke="none" stroke-width="1" fill="none" fill-rule="evenodd">
        <g id="-Welcome-bonus-box---Expand" transform="translate(-20.000000, -230.000000)">
            <g id="Group" transform="translate(0.000000, 208.000000)">
                <g id="quick-facts---expand" transform="translate(0.000000, 4.000000)">
                    <g id="Quick-facts" transform="translate(20.000000, 18.000000)">
                        <g id="Icon-/-quick-facts">
                            <path d="M6.49034862,13.015625 C6.2139733,13.015625 5.98906327,12.792168 5.98906327,12.5175781 L4.98649258,12.5175781 C4.98649258,13.1668652 5.40566738,13.7204277 5.98906327,13.9261211 L5.98906327,15.0078125 L6.99163397,15.0078125 L6.99163397,13.9261211 C7.57516353,13.7204277 7.99420466,13.1668652 7.99420466,12.5175781 C7.99420466,11.693709 7.31954142,11.0234375 6.49034862,11.0234375 C6.2139733,11.0234375 5.98906327,10.7999805 5.98906327,10.5253906 C5.98906327,10.2508008 6.2139733,10.0273438 6.49034862,10.0273438 C6.76672394,10.0273438 6.99163397,10.2508008 6.99163397,10.5253906 L7.99420466,10.5253906 C7.99420466,9.87610352 7.57516353,9.32254102 6.99163397,9.11684766 L6.99163397,8.03515625 L5.98906327,8.03515625 L5.98906327,9.11684766 C5.40566738,9.32254102 4.98649258,9.87610352 4.98649258,10.5253906 C4.98649258,11.3492266 5.66115582,12.0195312 6.49034862,12.0195312 C6.76672394,12.0195312 6.99163397,12.2429883 6.99163397,12.5175781 C6.99163397,12.792168 6.76672394,13.015625 6.49034862,13.015625" id="Fill-1" fill="#003760" fill-rule="evenodd"></path>
                            <mask id="mask-2" fill="white">
                                <use xlink:href="#path-1"></use>
                            </mask>
                            <g id="Clip-4"></g>
                            <path d="M4.79002548,5.9765625 L8.19001006,5.9765625 C8.40292265,6.38071094 8.86844965,7.1432207 9.9175062,8.00338086 C11.6372826,9.41348437 12.3666193,11.6064512 11.775771,13.5900723 C11.3836322,14.9062441 10.6242517,15.6810723 10.2923005,16.0039062 L2.6882697,16.0039062 C2.35578384,15.6804414 1.59667073,14.9052148 1.20493294,13.5899395 C0.614084608,11.6063184 1.34355505,9.41348437 3.06319772,8.00338086 C4.09460903,7.15773047 4.57684553,6.37553125 4.79002548,5.9765625 L4.79002548,5.9765625 Z M4.98649592,4.98046875 L7.994208,4.98046875 L7.994208,3.984375 L4.98649592,3.984375 L4.98649592,4.98046875 Z M3.93002034,1.25730273 C4.11800235,1.07704297 4.240717,0.99609375 4.48521057,0.99609375 C4.76706661,0.99609375 4.88754219,1.10400391 5.13333911,1.34821289 C5.40684039,1.61994727 5.78150106,1.9921875 6.49035196,1.9921875 C7.19933654,1.9921875 7.57386353,1.61994727 7.84733139,1.34821289 C8.09316173,1.10400391 8.21377098,0.99609375 8.49549335,0.99609375 C8.73998692,0.99609375 8.86270157,1.07704297 9.05068358,1.25730273 C8.4998044,1.81086523 8.12958846,2.15650977 8.02331597,2.98828125 L4.95738795,2.98828125 C4.85165016,2.15936523 4.47959618,1.80890625 3.93002034,1.25730273 L3.93002034,1.25730273 Z M2.42509489,7.23502734 C1.45530826,8.03024219 0.732621883,9.06239453 0.335102603,10.2198223 C-0.0781904563,11.4230371 -0.109771433,12.6860508 0.243601318,13.8725645 C0.727508773,15.4971602 1.70895864,16.4468359 2.03151906,16.7588789 C2.14627998,16.8699102 2.08124656,16.812834 2.23881726,17 L10.7418867,17 C10.9048044,16.806625 10.8289432,16.8752227 10.9499535,16.758248 C11.27228,16.4463047 12.2531617,15.497293 12.7371026,13.8726641 C13.4565139,11.4579336 12.5359201,8.85889258 10.5557093,7.23502734 C9.89752163,6.69547656 9.50915916,6.20832031 9.27719772,5.85191797 C10.2775293,5.52483398 11.0019201,4.58824023 11.0019201,3.48632812 L9.99934939,3.48632812 C9.99934939,4.13561523 9.58030826,4.68917773 8.9967787,4.89487109 L8.9967787,3.48632812 C8.9967787,2.72448242 9.16948821,2.55182617 9.68200235,2.03940234 C10.1428173,1.57870898 10.1494676,1.54925781 10.4960563,1.17897656 L10.0723031,0.847443359 C9.7507787,0.595830078 9.39700492,0 8.49549335,0 C7.78664245,0 7.41198178,0.372240234 7.13848049,0.643974609 C6.89268358,0.888183594 6.772208,0.99609375 6.49035196,0.99609375 C6.2086296,0.99609375 6.08802034,0.888183594 5.84219001,0.643974609 C5.56872214,0.372240234 5.19419515,0 4.48521057,0 C3.58366558,0 3.22975813,0.595962891 2.90836738,0.847443359 L2.48464759,1.17897656 C2.83187124,1.54978906 2.83842137,1.57924023 3.29870157,2.03940234 C3.81121571,2.55182617 3.98392522,2.72448242 3.98392522,3.48632812 L3.98392522,4.89487109 C3.40052934,4.68917773 2.98135453,4.13561523 2.98135453,3.48632812 L1.97878384,3.48632812 C1.97878384,4.587875 2.70263988,5.52403711 3.70247021,5.85151953 C3.46800235,6.21081055 3.07860389,6.69926172 2.42509489,7.23502734 L2.42509489,7.23502734 Z" id="Fill-3" fill="#003760" fill-rule="evenodd" mask="url(#mask-2)"></path>
                        </g>
                    </g>
                </g>
            </g>
        </g>
    </g>
</svg>