<?xml version="1.0" encoding="UTF-8"?>
<svg width="18px" height="17px" viewBox="0 0 18 17" version="1.1" xmlns="http://www.w3.org/2000/svg" xmlns:xlink="http://www.w3.org/1999/xlink">
    <!-- Generator: Sketch 64 (93537) - https://sketch.com -->
    <title>Icon / Bonus information</title>
    <desc>Created with Sketch.</desc>
    <g id="Symbols" stroke="none" stroke-width="1" fill="none" fill-rule="evenodd">
        <g id="-Welcome-bonus-box---Expand" transform="translate(-1140.000000, -230.000000)" fill="#003760">
            <g id="Group" transform="translate(0.000000, 208.000000)">
                <g id="quick-facts---expand" transform="translate(0.000000, 4.000000)">
                    <g id="Bonus-information" transform="translate(1140.000000, 18.000000)">
                        <g id="Group-5">
                            <g id="Icon-/-Bonus-information">
                                <g id="Group-5">
                                    <path d="M7,4.50006512 C7,6.98129261 9.01867818,9 11.5,9 C13.9813218,9 16,6.98129261 16,4.50006512 C16,2.01870742 13.9813218,0 11.5,0 C9.01867818,0 7,2.01870742 7,4.50006512 Z M15,4.5 C15,5.0297213 14.9212408,5.535836 14.7784825,6 L14,5.41389332 C14.0738007,5.12640335 14.1143911,4.81936648 14.1143911,4.5 C14.1143911,4.18063352 14.0738007,3.87344626 14,3.58595629 L14.7784825,3 C14.9212408,3.46401361 15,3.97012831 15,4.5 L15,4.5 Z M13,4.5000651 C13,5.32718433 12.3270833,6 11.5,6 C10.6729167,6 10,5.32718433 10,4.5000651 C10,3.67294587 10.6729167,3 11.5,3 C12.3270833,3 13,3.67294587 13,4.5000651 Z M8,4.5 C8,3.97027866 8.0787592,3.46401361 8.22140221,3 L8.99988466,3.58595629 C8.92608393,3.87344626 8.88560886,4.18063352 8.88560886,4.5 C8.88560886,4.81936648 8.92619926,5.12640335 9,5.41389332 L8.22151752,6 C8.0787592,5.535836 8,5.0297213 8,4.5 Z M11,1 L11,2.12270335 C10.5196016,2.24447008 10.0953732,2.55991067 9.78163182,3 L9,2.43843217 C9.4835254,1.67598532 10.1921941,1.14439079 11,1 Z M9,6.56156783 L9.78163182,6 C10.0953732,6.44008933 10.5196016,6.75552996 11,6.87744074 L11,8 C10.1921941,7.85560921 9.4835254,7.32401472 9,6.56156783 Z M12,8 L12,6.87729665 C12.4803984,6.75552996 12.9046268,6.44008933 13.2183682,6 L14,6.56156783 C13.5164746,7.32401472 12.8078059,7.85560921 12,8 Z M14,2.43843217 L13.2183682,3 C12.9046268,2.55991067 12.4803984,2.24447008 12,2.12270335 L12,1 C12.8078059,1.14439079 13.5164746,1.67598532 14,2.43843217 Z" id="Shape"></path>
                                    <path d="M12.7522431,13.0000651 L12.6909943,13.0000651 L12.6909943,10.9999674 L9.15930176,10.9999674 L5.99537658,9 C5.3276825,9 0.643112191,9 0,9 L0,15.0000325 L3.19908143,15.0000325 L3.19908143,14.5 L6.71456911,17 L12.3986206,17 L18,13.0340511 L16.1021118,10.6347152 L12.7522431,13.0000651 Z M2.14439393,13.9999837 L1.0546875,13.9999837 L1.0546875,9.99991859 L2.14439393,9.99991859 L2.14439393,13.9999837 Z M12.0482941,16.0000814 L7.06613161,16.0000814 L3.19908143,13.2500773 L3.19908143,9.99991859 L5.67608643,9.99991859 L8.84001161,12.0000163 L11.6363068,12.0000163 L11.6363068,13.0000651 L6.89035036,13.0000651 L6.89035036,13.9999837 L13.1017456,13.9999837 L15.8891144,12.0319188 L16.5222015,12.8323486 L12.0482941,16.0000814 Z" id="Shape"></path>
                                </g>
                            </g>
                        </g>
                    </g>
                </g>
            </g>
        </g>
    </g>
</svg>