<?xml version="1.0" encoding="UTF-8"?>
<svg width="36px" height="36px" viewBox="0 0 36 36" version="1.1" xmlns="http://www.w3.org/2000/svg" xmlns:xlink="http://www.w3.org/1999/xlink">
    <!-- Generator: Sketch 64 (93537) - https://sketch.com -->
    <title>Group</title>
    <desc>Created with Sketch.</desc>
    <g id="Symbols" stroke="none" stroke-width="1" fill="none" fill-rule="evenodd">
        <g id="Casino-of-the-Month" transform="translate(16.000000, -8.000000)">
            <g id="Group-3" transform="translate(-16.000000, 8.000000)">
                <g id="Group">
                    <circle id="Oval" fill="#003760" cx="18" cy="18" r="18"></circle>
                    <g id="award-(1)" transform="translate(7.000000, 8.000000)" fill="#FFFFFF">
                        <path d="M19.4029362,12.2966355 C20.8349456,12.2966355 22,11.1394462 22,9.71710412 L22,8.48501651 L20.3541001,8.48501651 C19.8485916,8.48501651 19.3597113,8.63169767 18.9408674,8.9028679 C18.8941192,8.64697607 18.835512,8.39415698 18.7644013,8.14547757 L19.2609298,7.86167492 C19.8616965,7.51718544 20.2914111,6.96093224 20.4709708,6.29534034 C20.6505305,5.62979111 20.558366,4.93462397 20.2115351,4.33791289 L19.5913042,3.27090027 L18.1659548,4.08829459 C17.7281195,4.33936391 17.3787535,4.7091609 17.1529611,5.1519784 C16.9740029,4.94311671 16.7833147,4.74279045 16.5817987,4.55146905 L16.8210828,4.13984851 C17.1679137,3.54313743 17.2600782,2.8479703 17.0805185,2.18242107 C16.9009588,1.51687184 16.4712442,0.960618636 15.8704775,0.616086482 L14.7962126,-8.12048841e-14 L13.9732627,1.41576981 C13.6264318,2.01248089 13.5342673,2.70764802 13.713827,3.37319725 C13.8933868,4.03874648 14.3231013,4.59499969 14.9238681,4.93953184 L15.3882571,5.20583689 C16.9104545,6.48755795 17.7827307,8.35638776 17.7827307,10.3422808 C17.7827307,14.0569375 14.7400975,17.0790303 11.0001504,17.0790303 C7.2602462,17.0790303 4.21761302,14.0569375 4.21761302,10.3422808 C4.21761302,8.35643043 5.08993221,6.48755795 6.61208666,5.20583689 L7.07647568,4.93953184 C7.67724245,4.59504236 8.10695697,4.03874648 8.28651671,3.37319725 C8.46603349,2.70764802 8.37386894,2.01248089 8.02703806,1.41576981 L7.2041311,-8.12048841e-14 L6.12986627,0.616086482 C5.52909951,0.960575959 5.09938498,1.51682916 4.91982524,2.18242107 C4.7402655,2.8479703 4.83243005,3.54313743 5.17926093,4.13984851 L5.41854501,4.55146905 C5.21694312,4.74283313 5.02621192,4.94324475 4.84721075,5.15219178 C4.62141835,4.70924626 4.2720524,4.33936391 3.83413116,4.08829459 L2.40873874,3.27090027 L1.78846488,4.33791289 C1.441634,4.93462397 1.34946945,5.62979111 1.5290292,6.29534034 C1.70858894,6.96088957 2.13830346,7.51714277 2.73984364,7.86210169 L3.23585648,8.14560561 C3.16474584,8.39432769 3.10613864,8.64714678 3.05939037,8.90303861 C2.64050358,8.63174035 2.15149438,8.48501651 1.64589986,8.48501651 L0,8.48501651 L0,9.71710412 C0,11.1394889 1.16505442,12.2966355 2.59796609,12.2966355 L3.17136278,12.2958247 C3.23542681,12.5490705 3.31173648,12.7975365 3.39947541,13.0406679 C2.89955256,13.0130132 2.40194993,13.1283693 1.96415758,13.379396 L0.538722196,14.1967903 L1.15903902,15.2638029 C1.5058699,15.860514 2.0659038,16.2873276 2.73601956,16.4656752 C2.95970657,16.5252097 3.18661612,16.5546569 3.41219369,16.5546569 C3.86231761,16.5546569 4.30676987,16.4372949 4.70748156,16.2075214 L5.20783408,15.9196218 C5.38979999,16.1060353 5.58078899,16.2836574 5.78007066,16.4518905 C5.33273961,16.6760732 4.95918316,17.0237208 4.7057199,17.45971 L3.88281294,18.8754798 L4.95707776,19.4915236 C5.35727385,19.7209983 5.8013394,19.8382749 6.25137739,19.8382749 C6.47695496,19.8382749 6.70407934,19.8087851 6.92780932,19.7492078 C7.59788211,19.5708603 8.15791601,19.1440467 8.50521953,18.5465674 L8.79060738,18.0540738 C9.49307741,18.2529064 10.2343038,18.3594284 11.0001074,18.3594284 C11.7658681,18.3594284 12.5070085,18.252949 13.2093926,18.0541592 L13.4951672,18.5473783 C13.8419981,19.1440894 14.402032,19.570903 15.0721047,19.7492505 C15.2958777,19.8088277 15.5229161,19.8382749 15.7485367,19.8382749 C16.1985317,19.8382749 16.6426832,19.721041 17.0428363,19.4915662 L18.1171011,18.8755224 L17.2941942,17.4597526 C17.0407739,17.0238488 16.6673034,16.6762439 16.2200153,16.4520185 C16.4193399,16.2837854 16.6103289,16.1061633 16.7923378,15.9197498 L17.2932489,16.2080336 C17.693445,16.4375083 18.1375105,16.5547422 18.5875915,16.5547422 C18.8131261,16.5547422 19.0402505,16.5252951 19.2639804,16.4657605 C19.9340532,16.2874129 20.4940871,15.8605994 20.840918,15.2638883 L21.4612348,14.1968757 L20.0357995,13.3794813 C19.5980501,13.1284547 19.1006193,13.0131412 18.6007824,13.0407106 C18.6885213,12.7976219 18.764788,12.5491559 18.828895,12.29591 L19.4029362,12.2966355 Z" id="Path"></path>
                        <polygon id="Path" points="8.29761565 11.4408598 7.71398412 14.8787062 10.792474 13.259395 13.8709639 14.8787062 13.28729 11.4408598 15.7735849 9.00381172 12.3343686 8.49839369 10.792474 5.37286613 9.25057948 8.49835116 5.81132075 9.00376919"></polygon>
                    </g>
                </g>
            </g>
        </g>
    </g>
</svg>