<?xml version="1.0" encoding="UTF-8"?>
<svg width="14px" height="14px" viewBox="0 0 14 14" version="1.1" xmlns="http://www.w3.org/2000/svg" xmlns:xlink="http://www.w3.org/1999/xlink">
    <!-- Generator: Sketch 64 (93537) - https://sketch.com -->
    <title>check_circle_outline-black-18dp (2)</title>
    <desc>Created with Sketch.</desc>
    <g id="Symbols" stroke="none" stroke-width="1" fill="none" fill-rule="evenodd">
        <g id="Icon-/-Check-circle-outline" transform="translate(-2.000000, -2.000000)">
            <g id="check_circle_outline-black-18dp-(2)">
                <polygon id="Path" points="0 0 18 0 18 18 0 18"></polygon>
                <path d="M9,2 C5.136,2 2,5.136 2,9 C2,12.864 5.136,16 9,16 C12.864,16 16,12.864 16,9 C16,5.136 12.864,2 9,2 Z M9,15 C5.6925,15 3,12.3075 3,9 C3,5.6925 5.6925,3 9,3 C12.3075,3 15,5.6925 15,9 C15,12.3075 12.3075,15 9,15 Z M12.06,6 L7.66666667,9.8970276 L5.94,7.97983015 L5,9.02760085 L7.66666667,12 L13,7.0552017 L12.06,6 Z" id="Shape" fill="#D0D0D0"></path>
            </g>
        </g>
    </g>
</svg>