<?xml version="1.0" encoding="UTF-8"?>
<svg width="17px" height="17px" viewBox="0 0 17 17" version="1.1" xmlns="http://www.w3.org/2000/svg" xmlns:xlink="http://www.w3.org/1999/xlink">
    <!-- Generator: Sketch 64 (93537) - https://sketch.com -->
    <title>Icon / Introduction</title>
    <desc>Created with Sketch.</desc>
    <defs>
        <polygon id="path-1" points="0 1.328125e-05 16.9999834 1.328125e-05 16.9999834 17 0 17"></polygon>
    </defs>
    <g id="Symbols" stroke="none" stroke-width="1" fill="none" fill-rule="evenodd">
        <g id="-Welcome-bonus-box---Expand" transform="translate(-285.000000, -230.000000)">
            <g id="Group" transform="translate(0.000000, 208.000000)">
                <g id="quick-facts---expand" transform="translate(0.000000, 4.000000)">
                    <g id="Group-3" transform="translate(285.000000, 18.000000)">
                        <g id="Icon-/-Introduction">
                            <g id="Group-3" stroke-width="1">
                                <mask id="mask-2" fill="white">
                                    <use xlink:href="#path-1"></use>
                                </mask>
                                <g id="Clip-2"></g>
                                <path d="M2.85611621,3.56051719 L4.29188574,4.99615391 C3.59903613,5.82676328 3.14730762,6.86475937 3.04431152,8.00196641 L1.01307715,8.00196641 C1.12463965,6.30704648 1.80125293,4.76426328 2.85611621,3.56051719 L2.85611621,3.56051719 Z M15.9869229,8.00196641 L13.9556885,8.00196641 C13.8526924,6.86475937 13.4009639,5.82676328 12.7081143,4.99615391 L14.1438838,3.56051719 C15.1987139,4.76426328 15.8753604,6.30704648 15.9869229,8.00196641 L15.9869229,8.00196641 Z M14.1438838,13.4394762 L12.7081143,12.0038395 C13.4009639,11.1732301 13.8526924,10.1348687 13.9556885,8.99766172 L15.9869229,8.99766172 C15.8753604,10.6925816 15.1987139,12.2357301 14.1438838,13.4394762 L14.1438838,13.4394762 Z M8.99803027,13.9556852 C10.1352373,13.8527223 11.1732334,13.4009605 12.0038428,12.7081109 L13.4394795,14.1438805 C12.2357334,15.1987438 10.6929502,15.8753902 8.99803027,15.9869195 L8.99803027,13.9556852 Z M4.99615723,12.7081109 C5.8267666,13.4008277 6.86472949,13.8527223 8.00193652,13.9556852 L8.00193652,15.9869195 C6.3070498,15.8753902 4.7642666,15.1987438 3.56052051,14.1438805 L4.99615723,12.7081109 Z M8.4999834,4.01759141 C10.9715576,4.01759141 12.9824053,6.02843906 12.9824053,8.50001328 C12.9824053,10.9715543 10.9715576,12.9824352 8.4999834,12.9824352 C6.02844238,12.9824352 4.01756152,10.9715543 4.01756152,8.50001328 C4.01756152,6.02843906 6.02844238,4.01759141 8.4999834,4.01759141 L8.4999834,4.01759141 Z M8.00193652,3.0443082 C6.86472949,3.1473043 5.8267666,3.59903281 4.99615723,4.29188242 L3.56052051,2.85611289 C4.7642666,1.80128281 6.3070498,1.12463633 8.00193652,1.01307383 L8.00193652,3.0443082 Z M12.0038428,4.29188242 C11.1732334,3.59903281 10.1352373,3.1473043 8.99803027,3.0443082 L8.99803027,1.01307383 C10.6929502,1.12463633 12.2357334,1.80128281 13.4394795,2.85611289 L12.0038428,4.29188242 Z M3.04431152,8.99766172 C3.14730762,10.1348687 3.59903613,11.1732301 4.29188574,12.0038395 L2.85611621,13.4394762 C1.80125293,12.2357301 1.12463965,10.6925816 1.01307715,8.99766172 L3.04431152,8.99766172 Z M8.4999834,17.0000133 C13.1803291,17.0000133 16.9999834,13.1799605 16.9999834,8.50001328 C16.9999834,3.81966758 13.1799639,1.328125e-05 8.4999834,1.328125e-05 C3.8196709,1.328125e-05 -1.66015625e-05,3.82003281 -1.66015625e-05,8.50001328 C-1.66015625e-05,13.180359 3.82003613,17.0000133 8.4999834,17.0000133 L8.4999834,17.0000133 Z" id="Fill-1" fill="#003760" mask="url(#mask-2)"></path>
                            </g>
                            <path d="M8.5,10 C8.22433333,10 8,9.77566667 8,9.5 L7,9.5 C7,10.1518333 7.41796667,10.7075667 8,10.9140667 L8,12 L9,12 L9,10.9140667 C9.58203333,10.7075667 10,10.1518333 10,9.5 C10,8.6729 9.32706667,8 8.5,8 C8.22433333,8 8,7.77566667 8,7.5 C8,7.22433333 8.22433333,7 8.5,7 C8.77566667,7 9,7.22433333 9,7.5 L10,7.5 C10,6.84816667 9.58203333,6.29243333 9,6.08593333 L9,5 L8,5 L8,6.08593333 C7.41796667,6.29243333 7,6.84816667 7,7.5 C7,8.32706667 7.67293333,9 8.5,9 C8.77566667,9 9,9.22433333 9,9.5 C9,9.77566667 8.77566667,10 8.5,10" id="Fill-4" fill="#003760"></path>
                        </g>
                    </g>
                </g>
            </g>
        </g>
    </g>
</svg>