<?xml version="1.0" encoding="UTF-8"?> <svg xmlns="http://www.w3.org/2000/svg" xmlns:xlink="http://www.w3.org/1999/xlink" width="203px" height="34px" viewBox="0 0 203 34" version="1.1"><!-- Generator: Sketch 64 (93537) - https://sketch.com --><title>Logo</title><desc>Created with Sketch.</desc><g id="Symbols" stroke="none" stroke-width="1" fill="none" fill-rule="evenodd"><g id="Footer-v-2" transform="translate(-39.000000, -30.000000)" fill="#FFFFFF"><g id="Footer"><g id="Logo-/-White" transform="translate(39.000000, 30.000000)"><g id="Crpyto-Casino-Final"><path d="M41.2402878,25.2431655 C42.5366906,25.2676259 43.8330935,25.0230216 45.0561151,24.5338129 C46.1323741,24.0935252 47.0374101,23.3597122 47.6733813,22.381295 C48.3093525,21.4273381 48.6273381,20.2532374 48.6273381,18.8345324 L45.1539568,18.8345324 C45.1539568,19.9107914 44.8115108,20.742446 44.1021583,21.3539568 C43.3928058,21.9654676 42.4633094,22.2589928 41.2892086,22.2589928 C38.305036,22.2589928 36.8129496,20.5223022 36.8129496,17.0489209 L36.8129496,16.3395683 C36.8129496,14.6517986 37.1798561,13.3553957 37.9136691,12.4748201 C38.647482,11.5697842 39.7726619,11.1294964 41.2892086,11.1294964 C42.3899281,11.1294964 43.294964,11.447482 43.9798561,12.0589928 C44.6647482,12.6705036 45.0071942,13.5266187 45.0071942,14.6028777 L48.6028777,14.6028777 C48.6517986,13.3553957 48.3093525,12.1079137 47.6244604,11.0561151 C46.9640288,10.0776978 46.0589928,9.34388489 44.9827338,8.87913669 C43.7841727,8.38992806 42.5122302,8.14532374 41.2158273,8.16978417 C38.6719424,8.16978417 36.7151079,8.87913669 35.3208633,10.2978417 C33.9266187,11.7165468 33.2172662,13.8446043 33.2172662,16.7064748 C33.2417266,22.4057554 35.9079137,25.2431655 41.2402878,25.2431655 L41.2402878,25.2431655 L41.2402878,25.2431655 Z M50.828777,24.9741007 L54.1309353,24.9741007 L54.1309353,18.8589928 C54.1309353,17.6848921 54.3755396,16.7798561 54.8647482,16.1928058 C55.3539568,15.6057554 56.1366906,15.3122302 57.2129496,15.3122302 L58.1179856,15.3122302 L58.1179856,12.2546763 C57.7266187,12.1079137 57.2863309,12.0345324 56.8705036,12.0345324 C56.2345324,12.0100719 55.6230216,12.2302158 55.1582734,12.6705036 C54.6935252,13.1597122 54.3266187,13.7467626 54.1064748,14.3827338 L53.9352518,14.3827338 L53.6661871,12.3280576 L50.8532374,12.3280576 L50.828777,24.9741007 L50.828777,24.9741007 Z M62.3985612,29.3280576 C63.2546763,29.352518 64.1107914,29.1323741 64.8446043,28.6920863 C65.505036,28.2517986 66.0676259,27.6647482 66.4589928,26.9798561 C66.9482014,26.123741 67.3395683,25.2431655 67.657554,24.3136691 L71.9136691,12.3035971 L68.5625899,12.3035971 L66.6791367,18.2719424 C66.4589928,18.981295 66.1654676,20.057554 65.7985612,21.5496403 L65.676259,21.5496403 C65.4561151,20.4244604 65.1625899,19.323741 64.7956835,18.247482 L62.3985612,12.3035971 L58.9496403,12.3035971 L63.9151079,24.9496403 C63.7683453,25.4633094 63.4503597,25.9280576 63.0589928,26.294964 C62.6676259,26.5884892 62.1784173,26.7352518 61.6892086,26.7107914 L60.123741,26.7107914 L60.123741,29.0100719 C60.857554,29.2546763 61.6402878,29.352518 62.3985612,29.3280576 L62.3985612,29.3280576 L62.3985612,29.3280576 Z M73.4057554,29.1323741 L76.7079137,29.1323741 L76.7079137,23.5064748 L76.8546763,23.5064748 C77.2215827,24.0690647 77.7597122,24.5338129 78.3956835,24.8028777 C79.105036,25.1208633 79.8633094,25.2676259 80.6460432,25.2676259 C82.0158273,25.3165468 83.3366906,24.705036 84.1928058,23.6043165 C85.0733813,22.5035971 85.5381295,20.8647482 85.5381295,18.6633094 C85.5381295,16.4374101 85.0978417,14.7741007 84.2172662,13.6733813 C83.3366906,12.5726619 82.0892086,12.0345324 80.4748201,12.0345324 C79.6920863,12.0345324 78.9338129,12.181295 78.2244604,12.523741 C77.5640288,12.8417266 77.0014388,13.3553957 76.6100719,13.9669065 L76.4388489,13.9669065 L76.218705,12.3035971 L73.4057554,12.3035971 L73.4057554,29.1323741 L73.4057554,29.1323741 Z M79.3985612,22.381295 C77.5884892,22.381295 76.7079137,21.1827338 76.7079137,18.8100719 L76.7079137,18.418705 C76.7079137,16.0705036 77.6129496,14.8964029 79.3985612,14.8964029 C80.3769784,14.8964029 81.0863309,15.1899281 81.5021583,15.7769784 C81.9179856,16.3640288 82.1381295,17.2446043 82.1381295,18.4431655 L82.1381295,18.8834532 C82.1381295,20.057554 81.9179856,20.9625899 81.5021583,21.5496403 C81.0863309,22.1122302 80.3769784,22.381295 79.3985612,22.381295 L79.3985612,22.381295 L79.3985612,22.381295 Z M91.2374101,25.2431655 C91.628777,25.2431655 91.9956835,25.1942446 92.3870504,25.1208633 C92.7294964,25.047482 93.0719424,24.9741007 93.4143885,24.8517986 L93.4143885,22.552518 L92.2647482,22.552518 C91.5798561,22.552518 91.2374101,22.2100719 91.2374101,21.5251799 L91.2374101,15.018705 L93.4388489,15.018705 L93.4388489,12.3280576 L91.2374101,12.3280576 L91.2374101,8.75683453 L88.5467626,8.75683453 L87.9841727,12.3280576 L86.3942446,12.3280576 L86.3942446,15.018705 L87.9107914,15.018705 L87.9107914,21.8676259 C87.8863309,22.7482014 88.1553957,23.6043165 88.6935252,24.2892086 C89.2071942,24.9251799 90.0633094,25.2431655 91.2374101,25.2431655 L91.2374101,25.2431655 L91.2374101,25.2431655 Z M100.923741,25.2431655 C103.100719,25.2431655 104.715108,24.705036 105.766906,23.628777 C106.818705,22.552518 107.356835,20.8892086 107.381295,18.6388489 C107.381295,16.3884892 106.843165,14.7007194 105.766906,13.6489209 C104.690647,12.5726619 103.076259,12.0345324 100.923741,12.0345324 C98.7467626,12.0345324 97.1323741,12.5726619 96.0805755,13.6489209 C95.028777,14.7251799 94.4906475,16.3884892 94.4906475,18.6388489 C94.4906475,20.8892086 95.028777,22.5769784 96.0805755,23.628777 C97.1323741,24.7294964 98.7467626,25.2431655 100.923741,25.2431655 L100.923741,25.2431655 Z M100.923741,22.552518 C99.847482,22.552518 99.0647482,22.2345324 98.6,21.6230216 C98.1352518,21.0115108 97.8906475,20.0820144 97.8906475,18.8100719 L97.8906475,18.418705 C97.8906475,17.171223 98.1352518,16.2417266 98.6,15.6302158 C99.0647482,15.018705 99.847482,14.7007194 100.923741,14.7007194 C102,14.7007194 102.782734,15.018705 103.271942,15.6302158 C103.761151,16.2417266 104.005755,17.171223 104.005755,18.418705 L104.005755,18.8345324 C104.005755,20.0820144 103.761151,21.0115108 103.271942,21.647482 C102.758273,22.2589928 102,22.552518 100.923741,22.552518 L100.923741,22.552518 Z" id="Crypto_Casinos"></path><path d="M120.614388,25.2431655 C121.910791,25.2676259 123.207194,25.0230216 124.430216,24.5338129 C125.506475,24.0935252 126.411511,23.3597122 127.047482,22.381295 C127.683453,21.4273381 128.001439,20.2532374 128.001439,18.8345324 L124.528058,18.8345324 C124.528058,19.9107914 124.185612,20.742446 123.476259,21.3539568 C122.766906,21.9654676 121.83741,22.2589928 120.663309,22.2589928 C117.679137,22.2589928 116.18705,20.5223022 116.18705,17.0489209 L116.18705,16.3395683 C116.18705,14.6517986 116.553957,13.3553957 117.28777,12.4748201 C118.021583,11.5697842 119.146763,11.1294964 120.663309,11.1294964 C121.764029,11.1294964 122.669065,11.447482 123.353957,12.0589928 C124.038849,12.6705036 124.381295,13.5266187 124.381295,14.6028777 L127.976978,14.6028777 C128.025899,13.3553957 127.683453,12.1079137 126.998561,11.0561151 C126.338129,10.0776978 125.433094,9.34388489 124.356835,8.87913669 C123.158273,8.38992806 121.886331,8.14532374 120.589928,8.16978417 C118.046043,8.16978417 116.089209,8.87913669 114.694964,10.2978417 C113.300719,11.7165468 112.591367,13.8446043 112.591367,16.7064748 C112.615827,22.4057554 115.282014,25.2431655 120.614388,25.2431655 L120.614388,25.2431655 L120.614388,25.2431655 Z M133.284892,25.2676259 C134.092086,25.2920863 134.899281,25.1453237 135.657554,24.8517986 C136.269065,24.5582734 136.831655,24.142446 137.271942,23.6043165 L137.418705,23.6043165 C137.565468,24.1179856 137.883453,24.5582734 138.323741,24.8517986 C138.81295,25.1453237 139.4,25.3165468 139.98705,25.2920863 C140.647482,25.3165468 141.307914,25.1697842 141.894964,24.9007194 L141.894964,22.5769784 L141.210072,22.5769784 C140.989928,22.5769784 140.769784,22.5035971 140.598561,22.381295 C140.427338,22.2100719 140.329496,21.9899281 140.353957,21.7453237 L140.353957,16.1194245 C140.353957,14.7741007 139.913669,13.7467626 139.057554,13.0374101 C138.201439,12.3280576 136.880576,11.9611511 135.143885,11.9611511 C133.578417,11.9611511 132.306475,12.2791367 131.376978,12.9395683 C130.423022,13.5755396 129.958273,14.4316547 129.958273,15.5079137 C129.958273,15.6791367 129.958273,15.8748201 129.982734,16.0460432 L133.18705,16.0460432 L133.18705,15.6791367 C133.211511,15.3611511 133.382734,15.0431655 133.651799,14.8719424 C133.969784,14.6517986 134.507914,14.5294964 135.241727,14.5294964 C135.926619,14.5294964 136.415827,14.676259 136.660432,14.9942446 C136.929496,15.3856115 137.076259,15.8258993 137.027338,16.3151079 L137.027338,17.2201439 C134.556835,17.2201439 132.673381,17.5625899 131.328058,18.247482 C129.982734,18.9323741 129.322302,20.0820144 129.322302,21.7208633 C129.322302,23.0906475 129.738129,24.0201439 130.569784,24.5338129 C131.376978,24.9985612 132.330935,25.2676259 133.284892,25.2676259 L133.284892,25.2676259 L133.284892,25.2676259 Z M134.336691,22.6503597 C133.896403,22.6748201 133.456115,22.552518 133.113669,22.2834532 C132.844604,22.0388489 132.697842,21.6719424 132.722302,21.305036 C132.722302,20.0086331 134.165468,19.3726619 137.076259,19.3726619 L137.076259,19.7640288 C137.12518,20.5223022 136.880576,21.2561151 136.415827,21.8676259 C135.951079,22.381295 135.266187,22.6503597 134.336691,22.6503597 L134.336691,22.6503597 L134.336691,22.6503597 Z M148.768345,25.2676259 C152.657554,25.2676259 154.614388,23.8978417 154.614388,21.1582734 C154.614388,20.228777 154.369784,19.4705036 153.856115,18.9323741 C153.366906,18.3942446 152.755396,17.9784173 152.094964,17.7338129 C151.238849,17.4402878 150.333813,17.1956835 149.453237,17 C148.719424,16.8776978 148.010072,16.6820144 147.300719,16.4129496 C146.860432,16.2172662 146.640288,15.923741 146.640288,15.5079137 C146.640288,15.1899281 146.835971,14.9453237 147.227338,14.7496403 C147.741007,14.5539568 148.254676,14.4561151 148.817266,14.4805755 C149.355396,14.4561151 149.917986,14.5784173 150.407194,14.8230216 C150.774101,14.9942446 151.018705,15.3856115 150.994245,15.8014388 L150.994245,15.9482014 L154.223022,15.9482014 L154.247482,15.3856115 C154.247482,14.3093525 153.733813,13.4776978 152.730935,12.8417266 C151.728058,12.2302158 150.456115,11.9122302 148.915108,11.9122302 C147.276259,11.9122302 145.906475,12.2546763 144.879137,12.9151079 C143.876259,13.5266187 143.264748,14.6028777 143.313669,15.7769784 C143.264748,16.5597122 143.533813,17.3179856 144.047482,17.905036 C144.51223,18.418705 145.099281,18.8345324 145.759712,19.0791367 C146.591367,19.3726619 147.471942,19.6172662 148.328058,19.8129496 C149.086331,19.9597122 149.844604,20.1798561 150.578417,20.4978417 C151.018705,20.6446043 151.28777,21.0604317 151.28777,21.5251799 C151.28777,21.9410072 151.043165,22.2100719 150.578417,22.4057554 C150.040288,22.6014388 149.453237,22.6748201 148.890647,22.6748201 C148.254676,22.6992806 147.643165,22.5769784 147.080576,22.3079137 C146.615827,22.0877698 146.297842,21.5985612 146.322302,21.0848921 L146.322302,20.9136691 L143.093525,20.9136691 L143.069065,21.2071942 C143.044604,22.381295 143.607194,23.4820144 144.585612,24.142446 C145.588489,24.876259 146.982734,25.2676259 148.768345,25.2676259 L148.768345,25.2676259 L148.768345,25.2676259 Z M156.620144,10.5913669 L159.946763,10.5913669 L159.946763,7.46043165 L156.620144,7.46043165 L156.620144,10.5913669 Z M156.620144,24.9741007 L159.946763,24.9741007 L159.946763,12.2302158 L156.620144,12.2302158 L156.620144,24.9741007 Z M162.61295,24.9741007 L165.939568,24.9741007 L165.939568,17.5870504 C165.915108,16.8532374 166.184173,16.1683453 166.673381,15.6302158 C167.138129,15.1165468 167.823022,14.8230216 168.532374,14.847482 C169.266187,14.847482 169.804317,15.018705 170.171223,15.3856115 C170.538129,15.7280576 170.733813,16.3151079 170.733813,17.0978417 L170.733813,24.9496403 L174.060432,24.9496403 L174.060432,16.3884892 C174.060432,14.8230216 173.693525,13.6733813 172.935252,12.9640288 C172.176978,12.2546763 171.14964,11.8877698 169.828777,11.8877698 C168.263309,11.8633094 166.771223,12.5971223 165.841727,13.8446043 L165.670504,13.8446043 L165.425899,12.181295 L162.588489,12.181295 L162.61295,24.9741007 L162.61295,24.9741007 Z M182.548201,25.2676259 C184.72518,25.2676259 186.364029,24.7294964 187.440288,23.6532374 C188.516547,22.5769784 189.054676,20.8892086 189.054676,18.6143885 C189.054676,16.3395683 188.516547,14.6517986 187.440288,13.5755396 C186.364029,12.4992806 184.72518,11.9611511 182.548201,11.9611511 C180.371223,11.9611511 178.732374,12.4992806 177.680576,13.5755396 C176.604317,14.6517986 176.066187,16.3395683 176.066187,18.6143885 C176.066187,20.8892086 176.604317,22.5769784 177.680576,23.6532374 C178.756835,24.705036 180.371223,25.2676259 182.548201,25.2676259 L182.548201,25.2676259 Z M182.548201,22.552518 C181.471942,22.552518 180.689209,22.2345324 180.2,21.6230216 C179.710791,21.0115108 179.490647,20.057554 179.490647,18.8100719 L179.490647,18.418705 C179.490647,17.1467626 179.735252,16.2172662 180.2,15.6057554 C180.664748,14.9942446 181.447482,14.676259 182.548201,14.676259 C183.62446,14.676259 184.407194,14.9942446 184.896403,15.6057554 C185.385612,16.2172662 185.630216,17.171223 185.630216,18.418705 L185.630216,18.8100719 C185.630216,20.0820144 185.385612,21.0115108 184.896403,21.6230216 C184.431655,22.2345324 183.648921,22.552518 182.548201,22.552518 L182.548201,22.552518 Z M196.197122,25.2676259 C200.110791,25.2676259 202.043165,23.8978417 202.043165,21.1582734 C202.043165,20.228777 201.798561,19.4705036 201.284892,18.9323741 C200.795683,18.3942446 200.184173,17.9784173 199.523741,17.7338129 C198.667626,17.4402878 197.76259,17.1956835 196.882014,17 C196.148201,16.8776978 195.438849,16.6820144 194.729496,16.4129496 C194.289209,16.2172662 194.069065,15.923741 194.069065,15.5079137 C194.069065,15.1899281 194.264748,14.9453237 194.656115,14.7496403 C195.169784,14.5539568 195.683453,14.4561151 196.221583,14.4805755 C196.759712,14.4561151 197.322302,14.5784173 197.811511,14.8230216 C198.178417,14.9942446 198.423022,15.3856115 198.398561,15.8014388 L198.398561,15.9482014 L201.627338,15.9482014 L201.651799,15.3856115 C201.651799,14.3093525 201.138129,13.4776978 200.135252,12.8417266 C199.132374,12.2057554 197.860432,11.9122302 196.319424,11.9122302 C194.656115,11.9122302 193.310791,12.2546763 192.283453,12.9151079 C191.280576,13.5266187 190.669065,14.6028777 190.717986,15.7769784 C190.669065,16.5597122 190.938129,17.3179856 191.451799,17.905036 C191.916547,18.418705 192.503597,18.8345324 193.188489,19.0791367 C194.020144,19.3726619 194.900719,19.6172662 195.756835,19.8129496 C196.515108,19.9597122 197.273381,20.1798561 198.007194,20.4978417 C198.447482,20.6446043 198.716547,21.0604317 198.716547,21.5251799 C198.716547,21.9165468 198.496403,22.2100719 198.007194,22.4057554 C197.469065,22.6014388 196.882014,22.6748201 196.319424,22.6748201 C195.707914,22.6992806 195.071942,22.5769784 194.509353,22.3079137 C194.044604,22.0877698 193.726619,21.5985612 193.751079,21.0848921 L193.751079,20.9136691 L190.522302,20.9136691 L190.497842,21.2071942 C190.473381,22.381295 191.035971,23.4820144 192.014388,24.142446 C193.017266,24.876259 194.411511,25.2676259 196.197122,25.2676259 L196.197122,25.2676259 L196.197122,25.2676259 Z" id="Crypto_Casinos_copy"></path><g id="Group"><path d="M14.7007194,33.8776978 L0,25.4143885 L0,8.46330935 L14.7007194,0 L29.4014388,8.46330935 L29.4014388,25.4143885 L14.7007194,33.8776978 Z M11.3251799,12.3280576 C12.1323741,11.3741007 13.4043165,10.8848921 15.0920863,10.8848921 C16.3640288,10.8848921 17.3669065,11.2273381 18.1251799,11.8877698 C18.8834532,12.5726619 19.2748201,13.5021583 19.2748201,14.7496403 L22.4791367,14.7496403 C22.4791367,13.3309353 22.1611511,12.1323741 21.5007194,11.1539568 C20.8647482,10.2 19.9597122,9.44172662 18.8834532,8.97697842 L18.8834532,5.69928058 L15.6791367,5.69928058 L15.6791367,8.24316547 C15.4589928,8.21870504 15.2633094,8.21870504 15.0431655,8.21870504 C14.6273381,8.21870504 14.1870504,8.24316547 13.771223,8.29208633 L13.771223,5.69928058 L10.542446,5.69928058 L10.542446,9.22158273 C9.97985612,9.53956835 9.44172662,9.93093525 9.00143885,10.3956835 C7.58273381,11.8388489 6.89784173,14.0402878 6.89784173,16.9510791 C6.89784173,19.9107914 7.58273381,22.1122302 8.97697842,23.5309353 C9.44172662,23.9956835 9.97985612,24.3870504 10.5669065,24.705036 L10.5669065,28.1539568 L13.7956835,28.1539568 L13.7956835,25.6100719 C14.2115108,25.6589928 14.6273381,25.6834532 15.0676259,25.6834532 C15.2877698,25.6834532 15.5079137,25.6834532 15.7035971,25.6589928 L15.7035971,28.1539568 L18.9323741,28.1539568 L18.9323741,24.9496403 C19.4705036,24.705036 20.0086331,24.4115108 20.4733813,24.0201439 C21.8431655,22.9194245 22.5280576,21.3294964 22.5280576,19.2014388 L19.3971223,19.2014388 C19.3971223,20.4244604 19.0057554,21.3539568 18.247482,22.0143885 C17.4892086,22.6748201 16.4374101,23.0172662 15.1165468,23.0172662 C13.4043165,23.0172662 12.1568345,22.5280576 11.3496403,21.5741007 C10.542446,20.6201439 10.1266187,19.152518 10.1266187,17.1956835 L10.1266187,16.7064748 C10.1021583,14.7496403 10.5179856,13.3064748 11.3251799,12.3280576 L11.3251799,12.3280576 Z" id="Rectangle_568_copy_15"></path></g></g></g></g></g></g></svg> 