<?xml version="1.0" encoding="UTF-8"?>
<svg width="20px" height="20px" viewBox="0 0 121 139" version="1.1" xmlns="http://www.w3.org/2000/svg" xmlns:xlink="http://www.w3.org/1999/xlink">
    <title>Group</title>
    <g id="----------" stroke="none" stroke-width="1" fill="none" fill-rule="evenodd">
        <g id="Logo-2" fill-rule="nonzero">
            <g id="Crpyto-Casino-Final">
                <g id="Group">
                    <path d="M60.1,138.5 L0,103.9 L0,34.6 L60.1,0 L120.2,34.6 L120.2,103.9 L60.1,138.5 Z M46.3,50.4 C49.6,46.5 54.8,44.5 61.7,44.5 C66.9,44.5 71,45.9 74.1,48.6 C77.2,51.4 78.8,55.2 78.8,60.3 L91.9,60.3 C91.9,54.5 90.6,49.6 87.9,45.6 C85.3,41.7 81.6,38.6 77.2,36.7 L77.2,23.3 L64.1,23.3 L64.1,33.7 C63.2,33.6 62.4,33.6 61.5,33.6 C59.8,33.6 58,33.7 56.3,33.9 L56.3,23.3 L43.1,23.3 L43.1,37.7 C40.8,39 38.6,40.6 36.8,42.5 C31,48.4 28.2,57.4 28.2,69.3 C28.2,81.4 31,90.4 36.7,96.2 C38.6,98.1 40.8,99.7 43.2,101 L43.2,115.1 L56.4,115.1 L56.4,104.7 C58.1,104.9 59.8,105 61.6,105 C62.5,105 63.4,105 64.2,104.9 L64.2,115.1 L77.4,115.1 L77.4,102 C79.6,101 81.8,99.8 83.7,98.2 C89.3,93.7 92.1,87.2 92.1,78.5 L79.3,78.5 C79.3,83.5 77.7,87.3 74.6,90 C71.5,92.7 67.2,94.1 61.8,94.1 C54.8,94.1 49.7,92.1 46.4,88.2 C43.1,84.3 41.4,78.3 41.4,70.3 L41.4,68.3 C41.3,60.3 43,54.4 46.3,50.4 L46.3,50.4 Z" id="Rectangle_568_copy_15" fill="#003760"></path>
                    <path d="M61.7,94.1 C54.7,94.1 49.6,92.1 46.3,88.2 C44.3,85.7 42.9,82.7 42.3,79.6 L60.1,69.2 L79.2,80.3 C79,84 77.4,87.6 74.6,90.1 C71.4,92.8 67.1,94.1 61.7,94.1 Z M36.7,96.3 C38.6,98.2 40.8,99.8 43.2,101.1 L43.2,115.2 L56.4,115.2 L56.4,104.8 C58.1,105 59.8,105.1 61.6,105.1 C62.5,105.1 63.4,105.1 64.2,105 L64.2,115.2 L77.4,115.2 L77.4,102 C79.6,101 81.8,99.8 83.7,98.2 C87.3,95.3 89.8,91.4 91,87 L120.4,104.1 L60.1,139 L-1.42108547e-14,104.1 L30.7,86.3 C32,90 34,93.4 36.7,96.3 L36.7,96.3 Z" id="Rectangle_568_copy_16" fill="#000000" opacity="0.2"></path>
                    <path d="M90.8,51.9 C90.2,49.6 89.2,47.5 87.9,45.5 C85.3,41.6 81.6,38.5 77.2,36.6 L77.2,23.3 L64.1,23.3 L64.1,33.7 C63.2,33.6 62.4,33.6 61.5,33.6 C59.8,33.6 58,33.7 56.3,33.9 L56.3,23.3 L43.1,23.3 L43.1,37.7 C40.8,39 38.6,40.6 36.8,42.5 C34.1,45.4 32,48.9 30.7,52.6 L0,34.9 L60.1,0 L120.2,34.9 L90.8,51.9 Z M61.7,44.5 C66.9,44.5 71,45.9 74.1,48.6 C76.9,51.1 78.5,54.6 78.7,59 L60.1,69.7 L42.2,59.4 C42.8,56.1 44.2,53.1 46.3,50.5 C49.7,46.5 54.8,44.5 61.7,44.5 Z" id="Rectangle_568_copy_17" fill="#FFFFFF" opacity="0.1"></path>
                </g>
            </g>
        </g>
    </g>
</svg>