<?xml version="1.0" encoding="UTF-8"?> <svg xmlns="http://www.w3.org/2000/svg" xmlns:xlink="http://www.w3.org/1999/xlink" width="20px" height="20px" viewBox="0 0 20 20" version="1.1"><!-- Generator: Sketch 64 (93537) - https://sketch.com --><title>Icon</title><desc>Created with Sketch.</desc><g id="Symbols" stroke="none" stroke-width="1" fill="none" fill-rule="evenodd" opacity="0.600000024"><g id="Casino-List-" transform="translate(-144.000000, -115.000000)" fill="#003760"><g id="Casino-List-Expanded-Copy"><g id="left-part" transform="translate(30.000000, 50.000000)"><g id="Group-13" transform="translate(112.000000, 42.000000)"><g id="bx-bxl-bitcoin" transform="translate(0.000000, 21.000000)"><g id="Icon" transform="translate(2.000000, 2.000000)"><path d="M9.953,6.819 L9.406,9.009 C10.025,9.163 11.935,9.793 12.244,8.553 C12.566,7.262 10.571,6.974 9.953,6.819 Z M9.131,10.115 L8.528,12.53 C9.271,12.715 11.565,13.451 11.904,12.089 C12.259,10.667 9.875,10.3 9.131,10.115 Z" id="Icon-Shape"></path><path d="M12.421,0.299 C7.064,-1.036 1.641,2.224 0.306,7.581 C-1.03,12.936 2.23,18.361 7.583,19.697 C12.94,21.032 18.366,17.773 19.7,12.416 C21.036,7.06 17.776,1.635 12.421,0.299 Z M14.412,8.574 C14.267,9.548 13.726,10.019 13.01,10.185 C13.995,10.697 14.495,11.483 14.019,12.846 C13.427,14.537 12.021,14.68 10.149,14.326 L9.695,16.146 L8.599,15.873 L9.046,14.079 C8.7535708,14.0059571 8.46188917,13.9299532 8.171,13.851 L7.722,15.655 L6.627,15.38 L7.081,13.557 C6.824,13.491 6.564,13.421 6.299,13.355 L4.87,13 L5.416,11.744 C5.416,11.744 6.224,11.959 6.213,11.943 C6.524,12.02 6.661,11.818 6.715,11.682 L7.434,8.807 L7.549,8.836 C7.51190228,8.82104268 7.47381066,8.80867961 7.435,8.799 L7.947,6.746 C7.96,6.512 7.881,6.218 7.436,6.107 C7.454,6.096 6.639,5.909 6.639,5.909 L6.93,4.737 L8.444,5.115 L8.443,5.12 C8.67,5.177 8.904,5.231 9.143,5.285 L9.592,3.483 L10.689,3.756 L10.249,5.522 C10.543,5.589 10.84,5.657 11.128,5.729 L11.566,3.974 L12.663,4.247 L12.214,6.049 C13.598,6.528 14.61,7.244 14.412,8.574 Z" id="Icon-Shape"></path></g></g></g></g></g></g></g></svg> 