<?xml version="1.0" encoding="UTF-8"?> <svg xmlns="http://www.w3.org/2000/svg" viewBox="0 0 1000 116.77"><defs><style>.cls-1{fill:#fff;}.cls-2{fill:#429846;}.cls-3{fill:#a4afc1;}.cls-4{fill:#f8f7f7;}.cls-5{fill:#e8e8e8;}.cls-6{fill:#ff405c;}.cls-7{fill:#e3a76f;}.cls-8{fill:#11d16e;}.cls-9{fill:#0ca680;}.cls-10{fill:#324b5f;}.cls-11{fill:#d6995c;}.cls-12{fill:#f4cc03;}.cls-13{fill:#273844;}.cls-14{fill:#4caf50;}.cls-15{fill:#fafafa;}.cls-16{fill:#dadada;}</style></defs><title>Bitcoin Casino Fact 2</title><g id="Layer_2" data-name="Layer 2"><path class="cls-1" d="M1000,20.47V95.94A20.06,20.06,0,0,1,979.94,116H20.06c-.41,0-.81,0-1.21,0l-.76-.07a19.56,19.56,0,0,1-7-2,17.67,17.67,0,0,1-2.27-1.32,20.09,20.09,0,0,1-5.3-5.26,15.65,15.65,0,0,1-.88-1.4A19.91,19.91,0,0,1,0,95.94V20.47A20.06,20.06,0,0,1,20.06.41H979.94A20.06,20.06,0,0,1,1000,20.47Z" transform="translate(0 -0.41)"></path><path class="cls-2" d="M60.5,111.47h-2a5.37,5.37,0,0,0,.72-.78l1.13-1.52Z" transform="translate(0 -0.41)"></path></g><g id="Layer_1" data-name="Layer 1"><path d="M251.51,48.14a11.11,11.11,0,0,0,2.07-.08,7.26,7.26,0,0,0,4-1.83,8.29,8.29,0,0,0,2.5-5H260a5.53,5.53,0,0,1-4.45,2,5.47,5.47,0,0,1-5.59-5.77,6.47,6.47,0,0,1,6.46-6.7c3.88,0,6.26,3.13,6.26,8,0,4.14-1.4,7.05-3.26,8.84a9.39,9.39,0,0,1-5.5,2.53,12.25,12.25,0,0,1-2.36.14Zm.93-10.84c0,2.35,1.43,4,3.64,4a4.24,4.24,0,0,0,3.73-2,1.77,1.77,0,0,0,.23-.93c0-3.22-1.19-5.69-3.87-5.69C254,32.71,252.44,34.63,252.44,37.3Z" transform="translate(0 -0.41)"></path><path d="M276.26,33.23H269l-.73,4.85a9.91,9.91,0,0,1,1.54-.12,8,8,0,0,1,4.08,1,5.35,5.35,0,0,1,2.71,4.84c0,3.69-2.94,6.44-7.05,6.44a9.28,9.28,0,0,1-4.71-1.16l.64-1.94a8.53,8.53,0,0,0,4,1c2.42,0,4.49-1.56,4.49-4.09s-1.66-4.17-5.45-4.17a19.33,19.33,0,0,0-2.62.2l1.23-9h9.05Z" transform="translate(0 -0.41)"></path><path d="M288.43,36.4c0,4-2.1,5.94-4.54,5.94s-4.4-1.88-4.43-5.68,2.07-5.89,4.57-5.89C286.68,30.77,288.43,32.8,288.43,36.4Zm-6.93.17c-.06,2.41.85,4.24,2.45,4.24s2.44-1.8,2.44-4.3c0-2.29-.67-4.2-2.44-4.2C282.35,32.31,281.5,34.19,281.5,36.57Zm2.21,13.69,11.13-19.49h1.63L285.34,50.26Zm17-6.06c0,4-2.1,5.95-4.52,5.95s-4.39-1.89-4.42-5.66,2.07-5.92,4.57-5.92S300.75,40.6,300.75,44.2Zm-6.93.17c0,2.41.9,4.24,2.47,4.24s2.45-1.8,2.45-4.3c0-2.29-.67-4.2-2.45-4.2C294.69,40.11,293.82,42,293.82,44.37Z" transform="translate(0 -0.41)"></path><path d="M322.7,42.81c0,5.19-3.61,7.45-7,7.45-3.82,0-6.76-2.78-6.76-7.22,0-4.7,3.09-7.46,7-7.46S322.7,38.51,322.7,42.81ZM311.52,43c0,3.08,1.78,5.4,4.28,5.4s4.28-2.29,4.28-5.46c0-2.37-1.19-5.39-4.22-5.39S311.52,40.28,311.52,43Z" transform="translate(0 -0.41)"></path><path d="M326.2,49.94V37.85h-2v-2h2v-.66a6.62,6.62,0,0,1,1.63-4.91,4.94,4.94,0,0,1,3.43-1.3,6.07,6.07,0,0,1,2.19.4l-.35,2a3.74,3.74,0,0,0-1.63-.32c-2.19,0-2.74,1.91-2.74,4.06v.75h3.41v2h-3.41V49.94Z" transform="translate(0 -0.41)"></path><path d="M348.41,49.94l-.2-1.77h-.09a5.23,5.23,0,0,1-4.31,2.09,4,4,0,0,1-4.3-4c0-3.39,3-5.25,8.47-5.22v-.29a2.9,2.9,0,0,0-3.21-3.25,7.08,7.08,0,0,0-3.66,1l-.59-1.68a8.84,8.84,0,0,1,4.63-1.25c4.31,0,5.36,2.93,5.36,5.75v5.25a20.08,20.08,0,0,0,.23,3.36ZM348,42.78c-2.8-.06-6,.43-6,3.16a2.26,2.26,0,0,0,2.41,2.44A3.51,3.51,0,0,0,347.89,46a2.58,2.58,0,0,0,.15-.82Z" transform="translate(0 -0.41)"></path><path d="M354.65,29.35h2.56V49.94h-2.56Z" transform="translate(0 -0.41)"></path><path d="M361.52,29.35h2.56V49.94h-2.56Z" transform="translate(0 -0.41)"></path><path d="M374.56,40.49c0-1.8-.06-3.25-.11-4.59h2.3l.11,2.41h.06a5.56,5.56,0,0,1,5-2.73c3.4,0,6,2.88,6,7.14,0,5.05-3.09,7.54-6.41,7.54a5,5,0,0,1-4.34-2.2h0v7.63h-2.54Zm2.54,3.74a5.62,5.62,0,0,0,.11,1,4,4,0,0,0,3.85,3c2.7,0,4.27-2.2,4.27-5.42,0-2.82-1.48-5.23-4.19-5.23a4.09,4.09,0,0,0-3.87,3.17,4,4,0,0,0-.17,1Z" transform="translate(0 -0.41)"></path><path d="M391.13,29.35h2.56V49.94h-2.56Z" transform="translate(0 -0.41)"></path><path d="M405.8,49.94l-.2-1.77h-.09a5.23,5.23,0,0,1-4.31,2.09,4,4,0,0,1-4.3-4c0-3.39,3-5.25,8.47-5.22v-.29a2.9,2.9,0,0,0-3.2-3.25,7.12,7.12,0,0,0-3.67,1l-.58-1.68a8.78,8.78,0,0,1,4.62-1.25c4.31,0,5.36,2.93,5.36,5.75v5.25a20.08,20.08,0,0,0,.23,3.36Zm-.37-7.16c-2.8-.06-6,.43-6,3.16a2.26,2.26,0,0,0,2.41,2.44A3.51,3.51,0,0,0,405.28,46a2.58,2.58,0,0,0,.15-.82Z" transform="translate(0 -0.41)"></path><path d="M412.74,35.9l3.08,8.3c.32.93.67,2,.9,2.87h.06c.26-.84.56-1.91.91-2.93l2.79-8.24h2.71l-3.85,10c-1.83,4.82-3.08,7.28-4.83,8.79a6.88,6.88,0,0,1-3.14,1.65l-.64-2.14A6.92,6.92,0,0,0,413,53a7.72,7.72,0,0,0,2.15-2.84,1.82,1.82,0,0,0,.21-.61,2.15,2.15,0,0,0-.18-.67L409.94,35.9Z" transform="translate(0 -0.41)"></path><path d="M426.65,43.39c.06,3.45,2.28,4.87,4.84,4.87a9.23,9.23,0,0,0,3.9-.73l.44,1.83a11.43,11.43,0,0,1-4.69.87c-4.34,0-6.93-2.84-6.93-7.08s2.5-7.57,6.61-7.57c4.6,0,5.82,4,5.82,6.62a9.35,9.35,0,0,1-.09,1.19Zm7.52-1.83c0-1.62-.67-4.15-3.56-4.15-2.59,0-3.72,2.38-3.93,4.15Z" transform="translate(0 -0.41)"></path><path d="M439.82,40.28c0-1.65,0-3.07-.12-4.38h2.24l.09,2.76h.12a4.22,4.22,0,0,1,3.9-3.08,2.63,2.63,0,0,1,.72.09v2.41a3.69,3.69,0,0,0-.87-.09,3.58,3.58,0,0,0-3.43,3.28,6.93,6.93,0,0,0-.12,1.19v7.48h-2.53Z" transform="translate(0 -0.41)"></path><path d="M449,47.33a6.76,6.76,0,0,0,3.38,1c1.86,0,2.73-.93,2.73-2.09s-.73-1.89-2.62-2.58c-2.53-.9-3.72-2.29-3.72-4,0-2.26,1.83-4.12,4.86-4.12a7.08,7.08,0,0,1,3.46.87l-.64,1.86a5.46,5.46,0,0,0-2.88-.81c-1.51,0-2.36.87-2.36,1.91s.85,1.69,2.68,2.38c2.45.93,3.7,2.15,3.7,4.24,0,2.46-1.92,4.2-5.27,4.2a8,8,0,0,1-4-.95Z" transform="translate(0 -0.41)"></path><path d="M479.21,29.35v17c0,1.24,0,2.67.12,3.62H477l-.12-2.43h-.06a5.21,5.21,0,0,1-4.8,2.75c-3.41,0-6-2.87-6-7.13,0-4.67,2.88-7.55,6.32-7.55a4.72,4.72,0,0,1,4.25,2.15h.06V29.35Zm-2.56,12.27a4.42,4.42,0,0,0-.12-1.08,3.76,3.76,0,0,0-3.7-2.95c-2.64,0-4.22,2.32-4.22,5.42,0,2.84,1.4,5.19,4.17,5.19a3.84,3.84,0,0,0,3.75-3,4.34,4.34,0,0,0,.12-1.11Z" transform="translate(0 -0.41)"></path><path d="M496.22,42.81c0,5.19-3.61,7.45-7,7.45-3.81,0-6.75-2.78-6.75-7.22,0-4.7,3.08-7.46,7-7.46S496.22,38.51,496.22,42.81ZM485,43c0,3.08,1.77,5.4,4.28,5.4s4.28-2.29,4.28-5.46c0-2.37-1.2-5.39-4.23-5.39S485,40.28,485,43Z" transform="translate(0 -0.41)"></path><path d="M499.45,39.7c0-1.45,0-2.64-.12-3.8h2.27l.15,2.32h.06a5.2,5.2,0,0,1,4.66-2.64c1.95,0,5,1.16,5,6v8.38h-2.57V41.85c0-2.26-.84-4.15-3.26-4.15a3.62,3.62,0,0,0-3.43,2.61A3.59,3.59,0,0,0,502,41.5v8.44h-2.56Z" transform="translate(0 -0.41)"></path><path d="M517.88,30.07A33.24,33.24,0,0,1,515.14,37l-1.63.2a40.93,40.93,0,0,0,1.72-6.82Z" transform="translate(0 -0.41)"></path><path d="M523.44,31.87v4h3.67v2h-3.67v7.57c0,1.74.5,2.72,1.93,2.72a5.58,5.58,0,0,0,1.48-.17l.12,1.91a6.15,6.15,0,0,1-2.27.35,3.54,3.54,0,0,1-2.77-1.07c-.73-.76-1-2-1-3.66V37.85h-2.18v-2h2.18V32.54Z" transform="translate(0 -0.41)"></path><path d="M538.7,42.34h.06c.35-.49.84-1.1,1.25-1.59l4.14-4.85h3.08l-5.44,5.78,6.2,8.26h-3.12L540,43.21l-1.31,1.45v5.28h-2.53V29.35h2.53Z" transform="translate(0 -0.41)"></path><path d="M550.32,39.7c0-1.45,0-2.64-.12-3.8h2.27l.15,2.32h.06a5.2,5.2,0,0,1,4.66-2.64c1.95,0,5,1.16,5,6v8.38h-2.56V41.85c0-2.26-.84-4.15-3.26-4.15a3.62,3.62,0,0,0-3.43,2.61,3.59,3.59,0,0,0-.18,1.19v8.44h-2.56Z" transform="translate(0 -0.41)"></path><path d="M579.23,42.81c0,5.19-3.61,7.45-7,7.45-3.81,0-6.75-2.78-6.75-7.22,0-4.7,3.09-7.46,7-7.46S579.23,38.51,579.23,42.81ZM568.05,43c0,3.08,1.78,5.4,4.28,5.4s4.28-2.29,4.28-5.46c0-2.37-1.19-5.39-4.22-5.39S568.05,40.28,568.05,43Z" transform="translate(0 -0.41)"></path><path d="M583.28,35.9,585.14,43c.41,1.56.79,3,1.05,4.47h.09c.32-1.43.79-2.93,1.25-4.44l2.3-7.17H592l2.18,7c.52,1.68.93,3.16,1.25,4.59h.09A40,40,0,0,1,596.59,43l2-7.05h2.54l-4.54,14h-2.33l-2.16-6.7c-.49-1.56-.9-3-1.25-4.61h-.06a40.71,40.71,0,0,1-1.28,4.64l-2.27,6.67h-2.33l-4.25-14Z" transform="translate(0 -0.41)"></path><path d="M612.72,32a1.59,1.59,0,0,1-3.17,0,1.56,1.56,0,0,1,1.6-1.6A1.52,1.52,0,0,1,612.72,32Zm-2.85,18v-14h2.56v14Z" transform="translate(0 -0.41)"></path><path d="M616.94,49.94V37.85h-2v-2h2v-.66a6.62,6.62,0,0,1,1.63-4.91A4.94,4.94,0,0,1,622,29a6,6,0,0,1,2.18.4l-.35,2a3.74,3.74,0,0,0-1.63-.32c-2.18,0-2.74,1.91-2.74,4.06v.75h3.41v2h-3.41V49.94Z" transform="translate(0 -0.41)"></path><path d="M634.44,31.87v4h3.67v2h-3.67v7.57c0,1.74.5,2.72,1.92,2.72a5.67,5.67,0,0,0,1.49-.17l.11,1.91a6.11,6.11,0,0,1-2.27.35,3.53,3.53,0,0,1-2.76-1.07c-.73-.76-1-2-1-3.66V37.85h-2.19v-2h2.19V32.54Z" transform="translate(0 -0.41)"></path><path d="M641,29.35h2.57v8.76h.05a4.69,4.69,0,0,1,1.84-1.8,5.25,5.25,0,0,1,2.62-.73c1.89,0,4.92,1.16,4.92,6v8.35h-2.56V41.88c0-2.26-.85-4.18-3.26-4.18a3.69,3.69,0,0,0-3.44,2.55,3,3,0,0,0-.17,1.22v8.47H641Z" transform="translate(0 -0.41)"></path><path d="M658.58,43.39c.06,3.45,2.27,4.87,4.83,4.87a9.19,9.19,0,0,0,3.9-.73l.44,1.83a11.36,11.36,0,0,1-4.69.87c-4.33,0-6.93-2.84-6.93-7.08s2.51-7.57,6.61-7.57c4.6,0,5.83,4,5.83,6.62a9.35,9.35,0,0,1-.09,1.19Zm7.51-1.83c0-1.62-.67-4.15-3.55-4.15-2.59,0-3.73,2.38-3.93,4.15Z" transform="translate(0 -0.41)"></path><path d="M677.57,47.33a6.72,6.72,0,0,0,3.37,1c1.87,0,2.74-.93,2.74-2.09s-.73-1.89-2.62-2.58c-2.53-.9-3.73-2.29-3.73-4,0-2.26,1.84-4.12,4.86-4.12a7.12,7.12,0,0,1,3.47.87L685,38.31a5.49,5.49,0,0,0-2.88-.81c-1.52,0-2.36.87-2.36,1.91s.84,1.69,2.68,2.38c2.44.93,3.69,2.15,3.69,4.24,0,2.46-1.92,4.2-5.27,4.2a8.07,8.07,0,0,1-4-.95Z" transform="translate(0 -0.41)"></path><path d="M692.3,32a1.59,1.59,0,0,1-3.17,0,1.56,1.56,0,0,1,1.6-1.6A1.52,1.52,0,0,1,692.3,32Zm-2.85,18v-14H692v14Z" transform="translate(0 -0.41)"></path><path d="M699.34,31.87v4H703v2h-3.67v7.57c0,1.74.5,2.72,1.93,2.72a5.58,5.58,0,0,0,1.48-.17l.12,1.91a6.15,6.15,0,0,1-2.27.35,3.54,3.54,0,0,1-2.77-1.07c-.73-.76-1-2-1-3.66V37.85h-2.18v-2h2.18V32.54Z" transform="translate(0 -0.41)"></path><path d="M707.15,43.39c.06,3.45,2.27,4.87,4.83,4.87a9.19,9.19,0,0,0,3.9-.73l.44,1.83a11.36,11.36,0,0,1-4.69.87c-4.34,0-6.93-2.84-6.93-7.08s2.51-7.57,6.61-7.57c4.6,0,5.83,4,5.83,6.62a9.35,9.35,0,0,1-.09,1.19Zm7.51-1.83c0-1.62-.67-4.15-3.55-4.15-2.59,0-3.73,2.38-3.93,4.15Z" transform="translate(0 -0.41)"></path><path d="M300.62,66.67v4h3.67v2h-3.67v7.57c0,1.74.49,2.72,1.92,2.72a5.58,5.58,0,0,0,1.48-.17l.12,1.91a6.11,6.11,0,0,1-2.27.35A3.57,3.57,0,0,1,299.1,84a5.22,5.22,0,0,1-1-3.66V72.65h-2.18v-2h2.18V67.34Z" transform="translate(0 -0.41)"></path><path d="M307.17,64.15h2.56v8.76h.06a4.73,4.73,0,0,1,1.83-1.8,5.26,5.26,0,0,1,2.63-.73c1.89,0,4.92,1.16,4.92,6v8.35H316.6V76.68c0-2.26-.84-4.18-3.26-4.18a3.67,3.67,0,0,0-3.43,2.55,3,3,0,0,0-.18,1.22v8.47h-2.56Z" transform="translate(0 -0.41)"></path><path d="M324.76,78.19c.06,3.45,2.27,4.87,4.83,4.87a9.23,9.23,0,0,0,3.9-.73l.44,1.83a11.4,11.4,0,0,1-4.69.87c-4.34,0-6.93-2.84-6.93-7.08s2.51-7.57,6.61-7.57c4.6,0,5.82,4,5.82,6.62,0,.52-.06.93-.08,1.19Zm7.51-1.83c0-1.63-.67-4.15-3.55-4.15-2.59,0-3.73,2.38-3.93,4.15Z" transform="translate(0 -0.41)"></path><path d="M338.85,70.7l3.09,8.3c.32.93.67,2,.9,2.87h.06c.26-.84.55-1.91.9-2.93l2.79-8.24h2.71l-3.84,10c-1.83,4.82-3.09,7.28-4.83,8.79a7,7,0,0,1-3.15,1.65L336.84,89a6.82,6.82,0,0,0,2.24-1.25,7.73,7.73,0,0,0,2.16-2.84,2,2,0,0,0,.2-.61,2.36,2.36,0,0,0-.17-.67L336.06,70.7Z" transform="translate(0 -0.41)"></path><path d="M355.74,64.87A33.24,33.24,0,0,1,353,71.75l-1.63.2a40.93,40.93,0,0,0,1.72-6.82Z" transform="translate(0 -0.41)"></path><path d="M357.4,75.08c0-1.65,0-3.07-.12-4.38h2.24l.09,2.76h.12a4.22,4.22,0,0,1,3.9-3.08,2.75,2.75,0,0,1,.73.09v2.41a3.84,3.84,0,0,0-.88-.09c-1.8,0-3.08,1.36-3.43,3.28a6.93,6.93,0,0,0-.12,1.19v7.48H357.4Z" transform="translate(0 -0.41)"></path><path d="M368.06,78.19c.05,3.45,2.27,4.87,4.83,4.87a9.23,9.23,0,0,0,3.9-.73l.44,1.83a11.43,11.43,0,0,1-4.69.87c-4.34,0-6.93-2.84-6.93-7.08s2.5-7.57,6.61-7.57c4.6,0,5.82,4,5.82,6.62a9.35,9.35,0,0,1-.09,1.19Zm7.51-1.83c0-1.63-.67-4.15-3.55-4.15-2.6,0-3.73,2.38-3.94,4.15Z" transform="translate(0 -0.41)"></path><path d="M387.39,75.29c0-1.8-.06-3.25-.12-4.59h2.3l.12,2.41h.06a5.56,5.56,0,0,1,5-2.73c3.4,0,6,2.88,6,7.14,0,5-3.08,7.54-6.4,7.54a5,5,0,0,1-4.34-2.2h-.06v7.63h-2.53ZM389.92,79a5.5,5.5,0,0,0,.12,1,4,4,0,0,0,3.84,3c2.71,0,4.28-2.2,4.28-5.42,0-2.82-1.48-5.23-4.19-5.23a4.08,4.08,0,0,0-3.87,3.17,4,4,0,0,0-.18,1Z" transform="translate(0 -0.41)"></path><path d="M404,64.15h2.56V84.74H404Z" transform="translate(0 -0.41)"></path><path d="M418.63,84.74l-.2-1.77h-.09A5.23,5.23,0,0,1,414,85.06a4,4,0,0,1-4.31-4c0-3.39,3-5.25,8.48-5.22v-.29A2.9,2.9,0,0,0,415,72.27a7.12,7.12,0,0,0-3.67,1l-.58-1.68a8.84,8.84,0,0,1,4.63-1.25c4.31,0,5.36,2.93,5.36,5.75v5.25a20.08,20.08,0,0,0,.23,3.36Zm-.38-7.16c-2.79-.06-6,.43-6,3.16a2.26,2.26,0,0,0,2.41,2.44,3.51,3.51,0,0,0,3.41-2.35,2.57,2.57,0,0,0,.14-.82Z" transform="translate(0 -0.41)"></path><path d="M425.56,70.7l3.09,8.3c.32.93.67,2,.9,2.87h.06c.26-.84.55-1.91.9-2.93l2.8-8.24H436l-3.85,10c-1.83,4.82-3.08,7.28-4.83,8.79a6.88,6.88,0,0,1-3.14,1.65L423.55,89a6.86,6.86,0,0,0,2.25-1.25A7.72,7.72,0,0,0,428,84.92a1.75,1.75,0,0,0,.2-.61,2.06,2.06,0,0,0-.17-.67L422.77,70.7Z" transform="translate(0 -0.41)"></path><path d="M441.2,66.76a1.59,1.59,0,0,1-3.17,0,1.56,1.56,0,0,1,1.6-1.6A1.52,1.52,0,0,1,441.2,66.76Zm-2.85,18v-14h2.56v14Z" transform="translate(0 -0.41)"></path><path d="M445.16,74.5c0-1.45,0-2.64-.12-3.8h2.27l.15,2.32h.06a5.2,5.2,0,0,1,4.66-2.64c1.95,0,5,1.16,5,6v8.38h-2.57V76.65c0-2.26-.84-4.15-3.26-4.15a3.62,3.62,0,0,0-3.43,2.61,3.59,3.59,0,0,0-.18,1.19v8.44h-2.56Z" transform="translate(0 -0.41)"></path><path d="M473.46,70.7c-.06,1-.12,2.15-.12,3.86v8.15c0,3.22-.64,5.19-2,6.41a7.48,7.48,0,0,1-5.13,1.68,9.08,9.08,0,0,1-4.69-1.16l.65-1.94a7.94,7.94,0,0,0,4.13,1.1c2.62,0,4.54-1.36,4.54-4.9V82.33h-.06a5,5,0,0,1-4.48,2.35c-3.49,0-6-3-6-6.84,0-4.76,3.12-7.46,6.35-7.46A4.69,4.69,0,0,1,471,72.82h.06l.12-2.12Zm-2.65,5.54a3.85,3.85,0,0,0-.14-1.16,3.7,3.7,0,0,0-3.59-2.7c-2.44,0-4.19,2.06-4.19,5.31,0,2.76,1.4,5,4.17,5a3.76,3.76,0,0,0,3.55-2.61,4.57,4.57,0,0,0,.2-1.36Z" transform="translate(0 -0.41)"></path><path d="M496.52,77.61c0,5.19-3.61,7.45-7,7.45-3.82,0-6.76-2.78-6.76-7.22,0-4.7,3.09-7.46,7-7.46S496.52,73.31,496.52,77.61Zm-11.18.14c0,3.08,1.78,5.4,4.28,5.4s4.28-2.29,4.28-5.46c0-2.38-1.19-5.39-4.22-5.39S485.34,75.08,485.34,77.75Z" transform="translate(0 -0.41)"></path><path d="M499.76,74.5c0-1.45,0-2.64-.12-3.8h2.27l.15,2.32h.06a5.17,5.17,0,0,1,4.65-2.64c2,0,5,1.16,5,6v8.38h-2.56V76.65c0-2.26-.84-4.15-3.26-4.15a3.65,3.65,0,0,0-3.44,2.61,3.88,3.88,0,0,0-.17,1.19v8.44h-2.56Z" transform="translate(0 -0.41)"></path><path d="M522.09,64.15h2.56v8.76h.06a4.73,4.73,0,0,1,1.83-1.8,5.26,5.26,0,0,1,2.63-.73c1.89,0,4.91,1.16,4.91,6v8.35h-2.56V76.68c0-2.26-.84-4.18-3.26-4.18a3.67,3.67,0,0,0-3.43,2.55,3,3,0,0,0-.18,1.22v8.47h-2.56Z" transform="translate(0 -0.41)"></path><path d="M546.05,84.74l-.2-1.77h-.09a5.23,5.23,0,0,1-4.31,2.09,4,4,0,0,1-4.31-4c0-3.39,3-5.25,8.48-5.22v-.29a2.9,2.9,0,0,0-3.21-3.25,7.08,7.08,0,0,0-3.66,1l-.59-1.68a8.84,8.84,0,0,1,4.63-1.25c4.31,0,5.36,2.93,5.36,5.75v5.25a20.08,20.08,0,0,0,.23,3.36Zm-.38-7.16c-2.79-.06-6,.43-6,3.16a2.26,2.26,0,0,0,2.41,2.44,3.51,3.51,0,0,0,3.41-2.35,2.57,2.57,0,0,0,.14-.82Z" transform="translate(0 -0.41)"></path><path d="M551.94,82.13a6.62,6.62,0,0,0,3.37,1c1.87,0,2.74-.93,2.74-2.09s-.73-1.89-2.62-2.58c-2.53-.9-3.73-2.29-3.73-4,0-2.26,1.84-4.12,4.87-4.12a7.11,7.11,0,0,1,3.46.87l-.64,1.86a5.46,5.46,0,0,0-2.88-.81c-1.52,0-2.36.87-2.36,1.91s.84,1.69,2.68,2.38c2.44.93,3.69,2.15,3.69,4.24,0,2.46-1.92,4.2-5.27,4.2a8,8,0,0,1-4-1Z" transform="translate(0 -0.41)"></path><path d="M577.79,84.74l-.2-1.77h-.09a5.24,5.24,0,0,1-4.31,2.09,4,4,0,0,1-4.31-4c0-3.39,3-5.25,8.48-5.22v-.29a2.9,2.9,0,0,0-3.21-3.25,7.12,7.12,0,0,0-3.67,1l-.58-1.68a8.84,8.84,0,0,1,4.63-1.25c4.31,0,5.36,2.93,5.36,5.75v5.25a20.08,20.08,0,0,0,.23,3.36Zm-.38-7.16c-2.79-.06-6,.43-6,3.16a2.26,2.26,0,0,0,2.41,2.44,3.51,3.51,0,0,0,3.41-2.35,2.57,2.57,0,0,0,.14-.82Z" transform="translate(0 -0.41)"></path><path d="M590.2,64.15h2.56V84.74H590.2Z" transform="translate(0 -0.41)"></path><path d="M599.92,66.76a1.59,1.59,0,0,1-3.17,0,1.56,1.56,0,0,1,1.6-1.6A1.52,1.52,0,0,1,599.92,66.76Zm-2.85,18v-14h2.56v14Z" transform="translate(0 -0.41)"></path><path d="M613.93,84.22a9.47,9.47,0,0,1-4,.81c-4.25,0-7-2.87-7-7.16a7.15,7.15,0,0,1,7.57-7.46,8.48,8.48,0,0,1,3.55.73l-.58,2a5.92,5.92,0,0,0-3-.67c-3.23,0-5,2.38-5,5.31,0,3.25,2.1,5.25,4.9,5.25a7.31,7.31,0,0,0,3.14-.69Z" transform="translate(0 -0.41)"></path><path d="M618.18,78.19c.06,3.45,2.27,4.87,4.83,4.87a9.19,9.19,0,0,0,3.9-.73l.44,1.83a11.4,11.4,0,0,1-4.69.87c-4.34,0-6.93-2.84-6.93-7.08s2.51-7.57,6.61-7.57c4.6,0,5.83,4,5.83,6.62a9.35,9.35,0,0,1-.09,1.19Zm7.51-1.83c0-1.63-.67-4.15-3.55-4.15-2.59,0-3.73,2.38-3.93,4.15Z" transform="translate(0 -0.41)"></path><path d="M631.34,74.5c0-1.45,0-2.64-.12-3.8h2.28l.14,2.32h.06a5.2,5.2,0,0,1,4.66-2.64c1.95,0,5,1.16,5,6v8.38h-2.57V76.65c0-2.26-.84-4.15-3.26-4.15a3.62,3.62,0,0,0-3.43,2.61,3.59,3.59,0,0,0-.18,1.19v8.44h-2.56Z" transform="translate(0 -0.41)"></path><path d="M647.15,82.13a6.69,6.69,0,0,0,3.38,1c1.86,0,2.74-.93,2.74-2.09s-.73-1.89-2.62-2.58c-2.54-.9-3.73-2.29-3.73-4,0-2.26,1.83-4.12,4.86-4.12a7.12,7.12,0,0,1,3.47.87l-.64,1.86a5.54,5.54,0,0,0-2.89-.81c-1.51,0-2.36.87-2.36,1.91s.85,1.69,2.68,2.38c2.45.93,3.7,2.15,3.7,4.24,0,2.46-1.92,4.2-5.27,4.2a8.07,8.07,0,0,1-4-1Z" transform="translate(0 -0.41)"></path><path d="M660.46,78.19c.06,3.45,2.27,4.87,4.83,4.87a9.19,9.19,0,0,0,3.9-.73l.44,1.83a11.4,11.4,0,0,1-4.69.87C660.6,85,658,82.19,658,78s2.51-7.57,6.61-7.57c4.6,0,5.83,4,5.83,6.62a9.35,9.35,0,0,1-.09,1.19ZM668,76.36c0-1.63-.67-4.15-3.55-4.15-2.59,0-3.73,2.38-3.93,4.15Z" transform="translate(0 -0.41)"></path><path class="cls-3" d="M34.76,21h8.92v4.46H34.76Z" transform="translate(0 -0.41)"></path><polygon class="cls-4" points="892.96 116.77 860.55 116.77 857.26 103.1 856.9 101.63 856.63 100.5 856.69 100.47 856.88 100.35 862.92 96.42 864.02 96.23 868.96 95.33 883.36 92.73 884.09 92.83 891.1 93.74 891.24 93.76 892.96 116.77"></polygon><path class="cls-5" d="M869,95.74c.06,1.07.12,2,.16,2.77a3,3,0,0,1-1.7,2.91l-.66.33-8.32,4.11-1.13-2.39-.83-3.45h0l.15-.08,6.29-3.11Z" transform="translate(0 -0.41)"></path><path class="cls-6" d="M883.87,92.11l-1.09-3.67h0l-.19-.63L878,79.16l-15.2-.07s.93,10.08,1.07,12.7a47.28,47.28,0,0,0,.13,4.78,5.44,5.44,0,0,0,1.71,3.38c.5.43.42,1.46,1,1.8a12.19,12.19,0,0,0,8.06,1.09c4.88-.82,7.28-3.21,8.46-5.3a7.13,7.13,0,0,0,.59-5.43Z" transform="translate(0 -0.41)"></path><path class="cls-7" d="M882.59,87.81a21.38,21.38,0,0,1-9.65,4.33,21,21,0,0,1-10.4-1c-.15-3-.44-9.39-.56-12l18-.07Z" transform="translate(0 -0.41)"></path><path class="cls-8" d="M858.44,105.86c1,3.33,2.35,7.29,3.8,11.32H842c-.34,0-.67,0-1,0l-.17-.92a10.79,10.79,0,0,1,4.55-10.67l7.3-6a2.14,2.14,0,0,1,3.26,1.17,3.68,3.68,0,0,0,1,1.34l.09.09a3.26,3.26,0,0,1,.64,1.12l.63,2Z" transform="translate(0 -0.41)"></path><path class="cls-9" d="M857.63,103.25l-.32.23,0,0-9.23,6.3a4.65,4.65,0,0,0-1.95,4.6l.46,2.77H842c-.34,0-.67,0-1,0s-.42,0-.63-.06l-.28-1.67a10.73,10.73,0,0,1,4.55-10.66l8.79-6a2.14,2.14,0,0,1,3.25,1.16h0c.07.25.16.52.24.81C857.1,101.5,857.35,102.34,857.63,103.25Z" transform="translate(0 -0.41)"></path><path class="cls-8" d="M914.09,117.18H891.46c.33-8.89-.09-18.3-.36-23v-.08A2.14,2.14,0,0,1,893.8,92L904,94.82a10.73,10.73,0,0,1,7.77,8.61Z" transform="translate(0 -0.41)"></path><path class="cls-6" d="M846.4,61.06c-5.34.89-7.48,2.42-6.7,6.1a9,9,0,0,0,10.5,7.22l38.63-6.46a9,9,0,0,0,7.58-10.24c-.45-3.74-3-4.48-8.32-3.59Z" transform="translate(0 -0.41)"></path><path class="cls-6" d="M882.59,87.81,880,79.16l-12,0h0l-6,0c0,.67.07,1.6.12,2.66.16,3.33.37,8,.48,10a48,48,0,0,0,.34,5,7.05,7.05,0,0,0,2.17,3.75,9.22,9.22,0,0,0,1.67,1.17l.66-.33a3,3,0,0,0,1.7-2.91c0-.76-.1-1.7-.16-2.77,0-.64-.07-1.32-.12-2a1.22,1.22,0,0,1,1.21-1.29,19.78,19.78,0,0,0,2.89-.27,21.38,21.38,0,0,0,9.65-4.33Z" transform="translate(0 -0.41)"></path><path class="cls-6" d="M887.63,54c3.68,22-6.36,32.09-15.44,33.61-8.85,1.48-21.63-4.81-25.31-26.8l-.1-2.59,3-18.3,34.52-5.77Z" transform="translate(0 -0.41)"></path><path class="cls-10" d="M851.55,33.28a.3.3,0,0,0,.3-.16c4.91-9,14.47-10.21,22.48-8.25,11.64,2.84,17.15,12.44,15.29,23.29a27.44,27.44,0,0,1-2,5.85c-.08-.26-1.34-8.09-6.53-8.08-11.23,0-20.86-1.22-24.24-3.4a1.72,1.72,0,0,0-2.62,1.08,12.3,12.3,0,0,1-3.91,7.25c-1.32,1.12-2.16,3.29-2.67,5.32a37.31,37.31,0,0,0-.83,4.3,19.3,19.3,0,0,1-6.94-11.38c-1.41-8.39,2.5-13.64,7.53-15.23a10.64,10.64,0,0,1,3.71-.63Z" transform="translate(0 -0.41)"></path><path class="cls-10" d="M844.08,48.38a18.93,18.93,0,0,0,3.58,7.8,31.09,31.09,0,0,0-.78,4.64c-3.4-2.64-6.6-7.38-7.32-11.69-1.74-10.42,5.22-16.27,11.6-15.88C846.49,35.14,842.75,40.44,844.08,48.38Z" transform="translate(0 -0.41)"></path><path class="cls-6" d="M970,40.39a5,5,0,0,1,5.84,4.06c1,6.09-4.34,9.65-8.15,10.29L930.09,61c-3.81.64-9.94-1-11-7.09a4.91,4.91,0,0,1,4.11-5.72Z" transform="translate(0 -0.41)"></path><path class="cls-6" d="M965.83,82.5a3.06,3.06,0,0,1-2.17-2.23l-1.37-5.64-2.95-8.13-17.86,3,1.33,14.93a3,3,0,0,1-1.32,2.83l-7.67,5.6,2.7,16.17,41.1-6.87-2.88-17.21Z" transform="translate(0 -0.41)"></path><path class="cls-7" d="M962.39,75.05a21.76,21.76,0,0,1-9.85,4.41,21.44,21.44,0,0,1-10.72-1l-.92-8.88,19.37-3.24Z" transform="translate(0 -0.41)"></path><path class="cls-6" d="M962.39,75.05l-2.12-8.7-13.33,2.23-6,1,.92,8.88h0l.55,5.34a3,3,0,0,1-1.32,2.84l-7.42,5,1.11,6.63,2.32-1.58,1.53-1,5.89-4a9.14,9.14,0,0,0,4-8.52l-.22-2.1a1.22,1.22,0,0,1,1.18-1.34,21.19,21.19,0,0,0,13-4.69Z" transform="translate(0 -0.41)"></path><path class="cls-6" d="M942.15,16.59c-10.5,1.51-19,12.57-16.88,23.67l1.24,7.41c3.66,21.88,16.37,28.14,25.17,26.67,9-1.51,19-11.57,15.37-33.45l-1.24-7.41A20.55,20.55,0,0,0,942.15,16.59Z" transform="translate(0 -0.41)"></path><path class="cls-11" d="M926.26,46.22l.06.29.25,1.5c0-.11,0-.23-.06-.34Z" transform="translate(0 -0.41)"></path><path class="cls-12" d="M990.21,117l-1.33.23H924l-1.71-9.71a10.89,10.89,0,0,1,5-10.65l6.38-5.13c.24.26.48.51.74.76a22.07,22.07,0,0,0,3.68,2.92l.55.33A25.77,25.77,0,0,0,974.71,85l0,0,8.08,2.22a10.69,10.69,0,0,1,7.86,8.59l2.79,16.65A4,4,0,0,1,990.21,117Z" transform="translate(0 -0.41)"></path><path class="cls-12" d="M938.59,95.7l-1.54,1-2.32,1.58-5,3.39a4.58,4.58,0,0,0-2,4.57l1.83,10.9h-6.2l-1.66-9.89a10.71,10.71,0,0,1,4.65-10.68l7.25-4.92c.24.26.48.51.74.76a22.07,22.07,0,0,0,3.68,2.92Z" transform="translate(0 -0.41)"></path><path class="cls-10" d="M81.83,81.18a3.34,3.34,0,0,1-2.26-.89L66.05,67.81H44A12.27,12.27,0,0,1,31.71,55.56V22.15A12.27,12.27,0,0,1,44,9.9H86.29A12.26,12.26,0,0,1,98.54,22.15V55.56A12.26,12.26,0,0,1,86.29,67.81H85.17v10a3.35,3.35,0,0,1-2,3.07A3.29,3.29,0,0,1,81.83,81.18Z" transform="translate(0 -0.41)"></path><path class="cls-13" d="M98.54,38.85H31.71V55.56A12.27,12.27,0,0,0,44,67.81H66.05L79.57,80.29a3.34,3.34,0,0,0,2.26.89,3.46,3.46,0,0,0,1.34-.28,3.35,3.35,0,0,0,2-3.07v-10h1.12A12.26,12.26,0,0,0,98.54,55.56Z" transform="translate(0 -0.41)"></path><path class="cls-6" d="M114.13,87.86a13.37,13.37,0,1,0-13.36-13.37A13.39,13.39,0,0,0,114.13,87.86Z" transform="translate(0 -0.41)"></path><path class="cls-6" d="M126.38,94.54h-24.5a12.26,12.26,0,0,0-12.25,12.25v6.68A3.35,3.35,0,0,0,93,116.82h42.32a3.34,3.34,0,0,0,3.34-3.35v-6.68A12.26,12.26,0,0,0,126.38,94.54Z" transform="translate(0 -0.41)"></path><path class="cls-14" d="M49.53,94.54a8.91,8.91,0,1,0-8.91-8.91A8.91,8.91,0,0,0,49.53,94.54Z" transform="translate(0 -0.41)"></path><path class="cls-14" d="M55.1,99H44a12.27,12.27,0,0,0-12.26,12.25v2.22a3.35,3.35,0,0,0,3.35,3.35H64a3.34,3.34,0,0,0,3.34-3.35v-2.22A12.26,12.26,0,0,0,55.1,99Z" transform="translate(0 -0.41)"></path><path class="cls-6" d="M114.13,61.13a13.37,13.37,0,0,0,0,26.73Z" transform="translate(0 -0.41)"></path><path class="cls-6" d="M114.13,94.54H101.88a12.26,12.26,0,0,0-12.25,12.25v6.68A3.35,3.35,0,0,0,93,116.82h21.16Z" transform="translate(0 -0.41)"></path><path class="cls-2" d="M49.53,76.72a8.91,8.91,0,0,0,0,17.82Z" transform="translate(0 -0.41)"></path><path class="cls-2" d="M49.53,99H44a12.27,12.27,0,0,0-12.26,12.25v2.22a3.35,3.35,0,0,0,3.35,3.35H49.53Z" transform="translate(0 -0.41)"></path><path class="cls-15" d="M65.13,48.88a3.34,3.34,0,0,1-3.34-3.34v-1a13.71,13.71,0,0,1,6-11,4.46,4.46,0,0,0-2.63-8,4.46,4.46,0,0,0-4.46,4.45,3.34,3.34,0,1,1-6.68,0,11.14,11.14,0,1,1,17.72,9c-1.22.89-3.24,2.8-3.24,5.58v1A3.35,3.35,0,0,1,65.13,48.88Z" transform="translate(0 -0.41)"></path><path class="cls-15" d="M68.47,55.56a3.34,3.34,0,1,1-3.34-3.34A3.35,3.35,0,0,1,68.47,55.56Z" transform="translate(0 -0.41)"></path><path class="cls-16" d="M65.13,36a13,13,0,0,0-3.34,8.56v1a3.34,3.34,0,0,0,3.34,3.34Zm0-17.14A11.14,11.14,0,0,0,54,29.94a3.34,3.34,0,1,0,6.68,0,4.46,4.46,0,0,1,4.46-4.45Z" transform="translate(0 -0.41)"></path><path class="cls-16" d="M65.13,52.22a3.34,3.34,0,1,0,0,6.68Z" transform="translate(0 -0.41)"></path></g></svg> 