<?xml version="1.0" encoding="UTF-8"?> <svg xmlns="http://www.w3.org/2000/svg" viewBox="0 0 1000 118.98"><defs><style>.cls-1{fill:#fff;}.cls-2{fill:#ff4a4a;}.cls-3{fill:#d0004f;}.cls-4{fill:#ffdd40;}.cls-5{fill:#e2bc1a;}.cls-6{fill:#3b647f;}.cls-7{fill:#324b5f;}.cls-8{fill:#4caf50;}.cls-9{fill:#429846;}.cls-10{fill:#ffcb00;}.cls-11{fill:#f4f1f1;}.cls-12{fill:#0ca680;}.cls-13{fill:#fcad6d;}.cls-14{fill:#fd995b;}.cls-15{fill:#f9ba8f;}.cls-16{fill:#142766;}.cls-17{fill:#ff4155;}.cls-18{fill:#c3785c;}.cls-19{fill:#a05838;}.cls-20{fill:#e80054;}.cls-21{fill:#cc0053;}.cls-22{fill:#823c26;}</style></defs><title>Bitcoin Casino Fact 3</title><g id="Layer_2" data-name="Layer 2"><path class="cls-1" d="M1000,20.47V95.94A20.06,20.06,0,0,1,979.94,116H20.06c-.41,0-.81,0-1.21,0l-.76-.07a19.56,19.56,0,0,1-7-2,17.67,17.67,0,0,1-2.27-1.32,20.09,20.09,0,0,1-5.3-5.26,15.65,15.65,0,0,1-.88-1.4A19.91,19.91,0,0,1,0,95.94V20.47A20.06,20.06,0,0,1,20.06.41H979.94A20,20,0,0,1,1000,20.47Z" transform="translate(0 0.15)"></path></g><g id="Layer_1" data-name="Layer 1"><path d="M353.81,43.34c-.15-2.82-.33-6.21-.3-8.73h-.09c-.69,2.37-1.53,4.89-2.55,7.68L347.3,52.1h-2l-3.27-9.63c-1-2.85-1.77-5.46-2.34-7.86h-.06c-.06,2.52-.21,5.91-.39,8.94l-.54,8.67h-2.49L337.64,32H341l3.45,9.78c.84,2.49,1.53,4.71,2,6.81h.09c.51-2,1.23-4.26,2.13-6.81l3.6-9.78h3.33l1.26,20.22h-2.55Z" transform="translate(0 0.15)"></path><path d="M374.12,44.84c0,5.37-3.72,7.71-7.23,7.71-3.93,0-7-2.88-7-7.47,0-4.86,3.18-7.71,7.2-7.71C371.3,37.37,374.12,40.4,374.12,44.84ZM362.6,45c0,3.18,1.83,5.58,4.41,5.58s4.41-2.37,4.41-5.64c0-2.46-1.23-5.58-4.35-5.58S362.6,42.23,362.6,45Z" transform="translate(0 0.15)"></path><path d="M377.09,49.52a6.92,6.92,0,0,0,3.48,1c1.92,0,2.82-1,2.82-2.16s-.75-1.95-2.7-2.67c-2.61-.93-3.84-2.37-3.84-4.11,0-2.34,1.89-4.26,5-4.26a7.25,7.25,0,0,1,3.57.9l-.66,1.92a5.65,5.65,0,0,0-3-.84c-1.56,0-2.43.9-2.43,2s.87,1.74,2.76,2.46c2.52,1,3.81,2.22,3.81,4.38,0,2.55-2,4.35-5.43,4.35a8.28,8.28,0,0,1-4.08-1Z" transform="translate(0 0.15)"></path><path d="M392.51,33.53V37.7h3.78v2h-3.78v7.83c0,1.8.51,2.82,2,2.82a5.87,5.87,0,0,0,1.53-.18l.12,2a6.46,6.46,0,0,1-2.34.36A3.66,3.66,0,0,1,391,51.41c-.75-.78-1-2.07-1-3.78V39.71h-2.25v-2h2.25V34.22Z" transform="translate(0 0.15)"></path><path d="M405.5,52.22c.06-1,.12-2.46.12-3.75V30.92h2.61V40h.06a5.41,5.41,0,0,1,4.95-2.67c3.6,0,6.15,3,6.12,7.41,0,5.19-3.27,7.77-6.51,7.77A5.17,5.17,0,0,1,408,49.82h-.09l-.12,2.4Zm2.73-5.82a4.94,4.94,0,0,0,.12,1,4.07,4.07,0,0,0,4,3.09c2.76,0,4.41-2.25,4.41-5.58,0-2.91-1.5-5.4-4.32-5.4a4.21,4.21,0,0,0-4,3.24,5.2,5.2,0,0,0-.15,1.08Z" transform="translate(0 0.15)"></path><path d="M425.63,33.62a1.64,1.64,0,0,1-3.27,0A1.61,1.61,0,0,1,424,32,1.57,1.57,0,0,1,425.63,33.62Zm-2.94,18.6V37.7h2.64V52.22Z" transform="translate(0 0.15)"></path><path d="M432.89,33.53V37.7h3.78v2h-3.78v7.83c0,1.8.51,2.82,2,2.82a5.87,5.87,0,0,0,1.53-.18l.12,2a6.46,6.46,0,0,1-2.34.36,3.66,3.66,0,0,1-2.85-1.11c-.75-.78-1-2.07-1-3.78V39.71h-2.25v-2h2.25V34.22Z" transform="translate(0 0.15)"></path><path d="M449.81,51.68a9.72,9.72,0,0,1-4.17.84c-4.38,0-7.23-3-7.23-7.41a7.38,7.38,0,0,1,7.8-7.71,8.82,8.82,0,0,1,3.66.75l-.6,2a6.12,6.12,0,0,0-3.06-.69c-3.33,0-5.13,2.46-5.13,5.49,0,3.36,2.16,5.43,5,5.43a7.5,7.5,0,0,0,3.24-.72Z" transform="translate(0 0.15)"></path><path d="M465.86,44.84c0,5.37-3.72,7.71-7.23,7.71-3.93,0-7-2.88-7-7.47,0-4.86,3.18-7.71,7.2-7.71C463,37.37,465.86,40.4,465.86,44.84ZM454.34,45c0,3.18,1.83,5.58,4.41,5.58s4.41-2.37,4.41-5.64c0-2.46-1.23-5.58-4.35-5.58S454.34,42.23,454.34,45Z" transform="translate(0 0.15)"></path><path d="M472.13,33.62a1.64,1.64,0,0,1-3.27,0A1.61,1.61,0,0,1,470.51,32,1.57,1.57,0,0,1,472.13,33.62Zm-2.94,18.6V37.7h2.64V52.22Z" transform="translate(0 0.15)"></path><path d="M476.21,41.63c0-1.5,0-2.73-.12-3.93h2.34l.15,2.4h.06a5.34,5.34,0,0,1,4.8-2.73c2,0,5.13,1.2,5.13,6.18v8.67h-2.64V43.85c0-2.34-.87-4.29-3.36-4.29a3.75,3.75,0,0,0-3.54,2.7,3.8,3.8,0,0,0-.18,1.23v8.73h-2.64Z" transform="translate(0 0.15)"></path><path d="M500.27,37.7l1.92,7.38c.42,1.62.81,3.12,1.08,4.62h.09c.33-1.47.81-3,1.29-4.59L507,37.7h2.22L511.49,45c.54,1.74,1,3.27,1.29,4.74h.09A43.66,43.66,0,0,1,514,45l2.07-7.29h2.61L514,52.22h-2.4l-2.22-6.93a48.39,48.39,0,0,1-1.29-4.77H508a43,43,0,0,1-1.32,4.8l-2.34,6.9H502L497.57,37.7Z" transform="translate(0 0.15)"></path><path d="M524.24,33.62a1.64,1.64,0,0,1-3.27,0A1.61,1.61,0,0,1,522.62,32,1.57,1.57,0,0,1,524.24,33.62Zm-2.94,18.6V37.7h2.64V52.22Z" transform="translate(0 0.15)"></path><path d="M531.5,33.53V37.7h3.78v2H531.5v7.83c0,1.8.51,2.82,2,2.82a5.87,5.87,0,0,0,1.53-.18l.12,2a6.46,6.46,0,0,1-2.34.36,3.66,3.66,0,0,1-2.85-1.11c-.75-.78-1-2.07-1-3.78V39.71h-2.25v-2h2.25V34.22Z" transform="translate(0 0.15)"></path><path d="M538.25,30.92h2.64V40H541a4.9,4.9,0,0,1,1.89-1.86,5.43,5.43,0,0,1,2.7-.75c2,0,5.07,1.2,5.07,6.21v8.64H548V43.88c0-2.34-.87-4.32-3.36-4.32a3.79,3.79,0,0,0-3.54,2.64,3.2,3.2,0,0,0-.18,1.26v8.76h-2.64Z" transform="translate(0 0.15)"></path><path d="M567.44,30.92V48.47c0,1.29,0,2.76.12,3.75h-2.37l-.12-2.52H565a5.37,5.37,0,0,1-5,2.85c-3.51,0-6.21-3-6.21-7.38,0-4.83,3-7.8,6.51-7.8a4.85,4.85,0,0,1,4.38,2.22h.06V30.92ZM564.8,43.61a4.66,4.66,0,0,0-.12-1.11,3.88,3.88,0,0,0-3.81-3.06c-2.73,0-4.35,2.4-4.35,5.61,0,2.94,1.44,5.37,4.29,5.37a4,4,0,0,0,3.87-3.15,4.59,4.59,0,0,0,.12-1.14Z" transform="translate(0 0.15)"></path><path d="M571.82,42.23c0-1.71,0-3.18-.12-4.53H574l.09,2.85h.12a4.36,4.36,0,0,1,4-3.18,2.86,2.86,0,0,1,.75.09V40a4,4,0,0,0-.9-.09c-1.86,0-3.18,1.41-3.54,3.39a7.43,7.43,0,0,0-.12,1.23v7.74h-2.61Z" transform="translate(0 0.15)"></path><path d="M589.52,52.22l-.21-1.83h-.09a5.41,5.41,0,0,1-4.44,2.16,4.14,4.14,0,0,1-4.44-4.17c0-3.51,3.12-5.43,8.73-5.4v-.3c0-1.2-.33-3.36-3.3-3.36A7.23,7.23,0,0,0,582,40.4l-.6-1.74a9,9,0,0,1,4.77-1.29c4.44,0,5.52,3,5.52,5.94v5.43a20.44,20.44,0,0,0,.24,3.48Zm-.39-7.41c-2.88-.06-6.15.45-6.15,3.27a2.34,2.34,0,0,0,2.49,2.52A3.61,3.61,0,0,0,589,48.17a2.76,2.76,0,0,0,.15-.84Z" transform="translate(0 0.15)"></path><path d="M596.75,37.7l1.92,7.38c.42,1.62.81,3.12,1.08,4.62h.09c.33-1.47.81-3,1.29-4.59l2.37-7.41h2.22L608,45c.54,1.74,1,3.27,1.29,4.74h.09A43.66,43.66,0,0,1,610.46,45l2.07-7.29h2.61l-4.68,14.52h-2.4l-2.22-6.93a48.39,48.39,0,0,1-1.29-4.77h-.06a43,43,0,0,1-1.32,4.8l-2.34,6.9h-2.4L594.05,37.7Z" transform="translate(0 0.15)"></path><path d="M625.7,52.22l-.21-1.83h-.09A5.41,5.41,0,0,1,621,52.55a4.14,4.14,0,0,1-4.44-4.17c0-3.51,3.12-5.43,8.73-5.4v-.3c0-1.2-.33-3.36-3.3-3.36a7.23,7.23,0,0,0-3.78,1.08l-.6-1.74a9,9,0,0,1,4.77-1.29c4.44,0,5.52,3,5.52,5.94v5.43a20.44,20.44,0,0,0,.24,3.48Zm-.39-7.41c-2.88-.06-6.15.45-6.15,3.27a2.34,2.34,0,0,0,2.49,2.52,3.61,3.61,0,0,0,3.51-2.43,2.76,2.76,0,0,0,.15-.84Z" transform="translate(0 0.15)"></path><path d="M632.12,30.92h2.64v21.3h-2.64Z" transform="translate(0 0.15)"></path><path d="M638.84,49.52a6.92,6.92,0,0,0,3.48,1c1.92,0,2.82-1,2.82-2.16s-.75-1.95-2.7-2.67c-2.61-.93-3.84-2.37-3.84-4.11,0-2.34,1.89-4.26,5-4.26a7.25,7.25,0,0,1,3.57.9l-.66,1.92a5.65,5.65,0,0,0-3-.84c-1.56,0-2.43.9-2.43,2s.87,1.74,2.76,2.46c2.52,1,3.81,2.22,3.81,4.38,0,2.55-2,4.35-5.43,4.35a8.28,8.28,0,0,1-4.08-1Z" transform="translate(0 0.15)"></path><path d="M362.9,88.22l-.21-1.83h-.09a5.41,5.41,0,0,1-4.44,2.16,4.14,4.14,0,0,1-4.44-4.17c0-3.51,3.12-5.43,8.73-5.4v-.3c0-1.2-.33-3.36-3.3-3.36a7.23,7.23,0,0,0-3.78,1.08l-.6-1.74a9,9,0,0,1,4.77-1.29c4.44,0,5.52,3,5.52,5.94v5.43a20.44,20.44,0,0,0,.24,3.48Zm-.39-7.41c-2.88-.06-6.15.45-6.15,3.27a2.34,2.34,0,0,0,2.49,2.52,3.61,3.61,0,0,0,3.51-2.43,2.76,2.76,0,0,0,.15-.84Z" transform="translate(0 0.15)"></path><path d="M369.32,78.23c0-1.71,0-3.18-.12-4.53h2.31l.09,2.85h.12a4.36,4.36,0,0,1,4-3.18,2.86,2.86,0,0,1,.75.09V76a4,4,0,0,0-.9-.09c-1.86,0-3.18,1.41-3.54,3.39a7.43,7.43,0,0,0-.12,1.23v7.74h-2.61Z" transform="translate(0 0.15)"></path><path d="M380.3,81.44c.06,3.57,2.34,5,5,5a9.55,9.55,0,0,0,4-.75l.45,1.89a11.76,11.76,0,0,1-4.83.9c-4.47,0-7.14-2.94-7.14-7.32s2.58-7.83,6.81-7.83c4.74,0,6,4.17,6,6.84a10,10,0,0,1-.09,1.23ZM388,79.55c0-1.68-.69-4.29-3.66-4.29-2.67,0-3.84,2.46-4.05,4.29Z" transform="translate(0 0.15)"></path><path d="M410.57,87.68a9.72,9.72,0,0,1-4.17.84c-4.38,0-7.23-3-7.23-7.41A7.38,7.38,0,0,1,407,73.4a8.82,8.82,0,0,1,3.66.75l-.6,2A6.12,6.12,0,0,0,407,75.5c-3.33,0-5.13,2.46-5.13,5.49,0,3.36,2.16,5.43,5,5.43a7.5,7.5,0,0,0,3.24-.72Z" transform="translate(0 0.15)"></path><path d="M426.62,80.84c0,5.37-3.72,7.71-7.23,7.71-3.93,0-7-2.88-7-7.47,0-4.86,3.18-7.71,7.2-7.71C423.8,73.37,426.62,76.4,426.62,80.84ZM415.1,81c0,3.18,1.83,5.58,4.41,5.58s4.41-2.37,4.41-5.64c0-2.46-1.23-5.58-4.35-5.58S415.1,78.23,415.1,81Z" transform="translate(0 0.15)"></path><path d="M430,77.63c0-1.5,0-2.73-.12-3.93h2.31l.12,2.34h.09a5,5,0,0,1,4.56-2.67A4.29,4.29,0,0,1,441,76.28h.06a6,6,0,0,1,1.62-1.89,5,5,0,0,1,3.21-1c1.92,0,4.77,1.26,4.77,6.3v8.55H448.1V80c0-2.79-1-4.47-3.15-4.47a3.42,3.42,0,0,0-3.12,2.4,4.35,4.35,0,0,0-.21,1.32v9H439v-8.7c0-2.31-1-4-3-4a3.93,3.93,0,0,0-3.48,3.93v8.76H430Z" transform="translate(0 0.15)"></path><path d="M455,78.44c0-1.86-.06-3.36-.12-4.74h2.37l.12,2.49h.06a5.71,5.71,0,0,1,5.16-2.82c3.51,0,6.15,3,6.15,7.38,0,5.22-3.18,7.8-6.6,7.8a5.09,5.09,0,0,1-4.47-2.28h-.06v7.89H455Zm2.61,3.87a5.94,5.94,0,0,0,.12,1.08,4.07,4.07,0,0,0,4,3.09c2.79,0,4.41-2.28,4.41-5.61,0-2.91-1.53-5.4-4.32-5.4a4.21,4.21,0,0,0-4,3.27,4.28,4.28,0,0,0-.18,1.08Z" transform="translate(0 0.15)"></path><path d="M472,66.92h2.64v21.3H472Z" transform="translate(0 0.15)"></path><path d="M480.59,81.44c.06,3.57,2.34,5,5,5a9.55,9.55,0,0,0,4-.75l.45,1.89a11.76,11.76,0,0,1-4.83.9c-4.47,0-7.14-2.94-7.14-7.32s2.58-7.83,6.81-7.83c4.74,0,6,4.17,6,6.84a10,10,0,0,1-.09,1.23Zm7.74-1.89c0-1.68-.69-4.29-3.66-4.29-2.67,0-3.84,2.46-4.05,4.29Z" transform="translate(0 0.15)"></path><path d="M497.33,69.53V73.7h3.78v2h-3.78v7.83c0,1.8.51,2.82,2,2.82a5.87,5.87,0,0,0,1.53-.18l.12,2a6.46,6.46,0,0,1-2.34.36,3.66,3.66,0,0,1-2.85-1.11c-.75-.78-1-2.07-1-3.78V75.71H492.5v-2h2.25V70.22Z" transform="translate(0 0.15)"></path><path d="M505.37,81.44c.06,3.57,2.34,5,5,5a9.55,9.55,0,0,0,4-.75l.45,1.89a11.76,11.76,0,0,1-4.83.9c-4.47,0-7.14-2.94-7.14-7.32s2.58-7.83,6.81-7.83c4.74,0,6,4.17,6,6.84a10,10,0,0,1-.09,1.23Zm7.74-1.89c0-1.68-.69-4.29-3.66-4.29-2.67,0-3.84,2.46-4.05,4.29Z" transform="translate(0 0.15)"></path><path d="M518.93,66.92h2.64v21.3h-2.64Z" transform="translate(0 0.15)"></path><path d="M527,73.7l3.18,8.58c.33,1,.69,2.1.93,3h.06c.27-.87.57-2,.93-3L535,73.7h2.79l-4,10.35c-1.89,5-3.18,7.53-5,9.09a7.15,7.15,0,0,1-3.24,1.71l-.66-2.22a7,7,0,0,0,2.31-1.29,8,8,0,0,0,2.22-2.94,1.9,1.9,0,0,0,.21-.63,2.3,2.3,0,0,0-.18-.69L524.09,73.7Z" transform="translate(0 0.15)"></path><path d="M549.44,69.62a1.64,1.64,0,0,1-3.27,0A1.61,1.61,0,0,1,547.82,68,1.57,1.57,0,0,1,549.44,69.62Zm-2.94,18.6V73.7h2.64V88.22Z" transform="translate(0 0.15)"></path><path d="M553.52,77.63c0-1.5,0-2.73-.12-3.93h2.34l.15,2.4H556a5.34,5.34,0,0,1,4.8-2.73c2,0,5.13,1.2,5.13,6.18v8.67h-2.64V79.85c0-2.34-.87-4.29-3.36-4.29a3.75,3.75,0,0,0-3.54,2.7,3.8,3.8,0,0,0-.18,1.23v8.73h-2.64Z" transform="translate(0 0.15)"></path><path d="M569.81,85.52a6.92,6.92,0,0,0,3.48,1c1.92,0,2.82-1,2.82-2.16s-.75-2-2.7-2.67c-2.61-.93-3.84-2.37-3.84-4.11,0-2.34,1.89-4.26,5-4.26a7.25,7.25,0,0,1,3.57.9l-.66,1.92a5.65,5.65,0,0,0-3-.84c-1.56,0-2.43.9-2.43,2s.87,1.74,2.76,2.46c2.52,1,3.81,2.22,3.81,4.38,0,2.55-2,4.35-5.43,4.35a8.28,8.28,0,0,1-4.08-1Z" transform="translate(0 0.15)"></path><path d="M585.23,69.53V73.7H589v2h-3.78v7.83c0,1.8.51,2.82,2,2.82a5.87,5.87,0,0,0,1.53-.18l.12,2a6.46,6.46,0,0,1-2.34.36,3.66,3.66,0,0,1-2.85-1.11c-.75-.78-1-2.07-1-3.78V75.71H580.4v-2h2.25V70.22Z" transform="translate(0 0.15)"></path><path d="M600,88.22l-.21-1.83h-.09a5.41,5.41,0,0,1-4.44,2.16,4.14,4.14,0,0,1-4.44-4.17c0-3.51,3.12-5.43,8.73-5.4v-.3c0-1.2-.33-3.36-3.3-3.36a7.23,7.23,0,0,0-3.78,1.08l-.6-1.74a9,9,0,0,1,4.77-1.29c4.44,0,5.52,3,5.52,5.94v5.43a20.44,20.44,0,0,0,.24,3.48Zm-.39-7.41c-2.88-.06-6.15.45-6.15,3.27A2.34,2.34,0,0,0,596,86.6a3.61,3.61,0,0,0,3.51-2.43,2.76,2.76,0,0,0,.15-.84Z" transform="translate(0 0.15)"></path><path d="M606.44,77.63c0-1.5,0-2.73-.12-3.93h2.34l.15,2.4h.06a5.34,5.34,0,0,1,4.8-2.73c2,0,5.13,1.2,5.13,6.18v8.67h-2.64V79.85c0-2.34-.87-4.29-3.36-4.29a3.75,3.75,0,0,0-3.54,2.7,3.8,3.8,0,0,0-.18,1.23v8.73h-2.64Z" transform="translate(0 0.15)"></path><path d="M626.15,69.53V73.7h3.78v2h-3.78v7.83c0,1.8.51,2.82,2,2.82a5.87,5.87,0,0,0,1.53-.18l.12,2a6.46,6.46,0,0,1-2.34.36,3.66,3.66,0,0,1-2.85-1.11c-.75-.78-1-2.07-1-3.78V75.71h-2.25v-2h2.25V70.22Z" transform="translate(0 0.15)"></path><path class="cls-2" d="M161.36,57.2c0,1.18,0,2.36-.09,3.53,0,.55-.06,1.11-.11,1.66s-.09,1.14-.15,1.7-.1.92-.15,1.37l-.12.91c-.05.37-.1.73-.16,1.1s-.13.87-.21,1.3h0c0,.25-.09.51-.14.76q-.57,3.1-1.43,6.12c-.14.5-.29,1-.44,1.49a64.79,64.79,0,0,1-2.3,6.3c-.14.35-.29.7-.45,1a67.42,67.42,0,0,1-6.3,11.19c-.36.52-.73,1-1.11,1.55s-.88,1.17-1.34,1.75-.91,1.14-1.39,1.7-.95,1.11-1.44,1.65-1,1.08-1.49,1.6-1,1-1.55,1.56-1.05,1-1.59,1.5-1.09,1-1.65,1.46-1.12.94-1.69,1.4a65.88,65.88,0,0,1-5.34,3.86l-1.81,1.15-.13.07c-.6.37-1.21.72-1.82,1.07h-66A67.44,67.44,0,0,1,57.59.41H130.3a67.54,67.54,0,0,1,28.47,38.23l0,.1c.15.55.3,1.09.44,1.65a2.81,2.81,0,0,1,.08.31c.05.19.1.38.14.57.19.77.37,1.55.53,2.34.12.6.24,1.2.34,1.8s.18,1,.25,1.56a1.86,1.86,0,0,1,0,.34c0,.15.05.3.07.45.07.46.13.92.18,1.39s.09.77.13,1.16.08.81.11,1.22.07.81.1,1.23c.05.82.08,1.64.11,2.47C161.35,55.88,161.36,56.54,161.36,57.2Z" transform="translate(0 0.15)"></path><path class="cls-3" d="M121.31,118.83c1.28-.57,2.55-1.18,3.79-1.83C123.86,117.66,122.6,118.27,121.31,118.83Z" transform="translate(0 0.15)"></path><path class="cls-3" d="M161.36,57.2c0,1.18,0,2.36-.09,3.53,0,.55-.06,1.11-.11,1.66s-.09,1.14-.15,1.7-.1.92-.15,1.37l-.12.91c-.05.37-.1.73-.16,1.1s-.13.87-.21,1.3h0c0,.25-.09.51-.14.76q-.57,3.1-1.43,6.12c-.14.5-.29,1-.44,1.49a64.79,64.79,0,0,1-2.3,6.3c-.14.35-.29.7-.45,1a67.42,67.42,0,0,1-6.3,11.19c-.36.52-.73,1-1.11,1.55s-.88,1.17-1.34,1.75-.91,1.14-1.39,1.7-.95,1.11-1.44,1.65-1,1.08-1.49,1.6-1,1-1.55,1.56-1.05,1-1.59,1.5-1.09,1-1.65,1.46-1.12.94-1.69,1.4a61.37,61.37,0,0,1-5.34,3.86l-1.81,1.15-.13.07c-.6.37-1.21.72-1.82,1.07H77.26L64.74,103.55l-.25-.24,1.7-31.4-4.5-4.53L49.82,55.43l0,0,11.9-4.66L78.88,44l1-.38,14.09-5.52,19.29-7.55L140.15,20s0,0,0,0l18.61,18.61,0,.1c.15.55.3,1.09.44,1.65a2.81,2.81,0,0,1,.08.31c.05.19.1.38.14.57.19.77.37,1.55.53,2.34.12.6.24,1.2.34,1.8s.18,1,.25,1.56a1.86,1.86,0,0,1,0,.34c0,.15.05.3.07.45.07.46.13.92.18,1.39s.09.77.13,1.16.08.81.11,1.22.07.81.1,1.23c.05.82.08,1.64.11,2.47C161.35,55.88,161.36,56.54,161.36,57.2Z" transform="translate(0 0.15)"></path><path class="cls-4" d="M132.63,57.19H55.26a9.34,9.34,0,0,1-9.32-9.31V25.48a9.34,9.34,0,0,1,9.32-9.31h77.37a9.34,9.34,0,0,1,9.31,9.31v22.4a9.34,9.34,0,0,1-9.31,9.31Z" transform="translate(0 0.15)"></path><path class="cls-5" d="M141.94,25.48V47.87a9.34,9.34,0,0,1-9.31,9.32H93.94v-41h38.69a9.34,9.34,0,0,1,9.31,9.31Z" transform="translate(0 0.15)"></path><path class="cls-6" d="M126.2,43.63l-32.26.71-32.25-.71V30.56H126.2Z" transform="translate(0 0.15)"></path><path class="cls-7" d="M126.19,30.56V43.63L93.94,45.05V30.56Z" transform="translate(0 0.15)"></path><path class="cls-8" d="M116.88,106H71a9.31,9.31,0,0,1-9.31-9.32v-53H126.2v53A9.32,9.32,0,0,1,116.88,106Z" transform="translate(0 0.15)"></path><path class="cls-9" d="M126.19,43.62v53a9.31,9.31,0,0,1-9.31,9.32H93.94V43.62Z" transform="translate(0 0.15)"></path><circle class="cls-10" cx="79.32" cy="83.33" r="7.03"></circle><path class="cls-11" d="M101.92,75.55h9.77V90.21h-9.77Z" transform="translate(0 0.15)"></path><path class="cls-11" d="M101.92,43.63h9.77V63.48h-9.77Z" transform="translate(0 0.15)"></path><path class="cls-4" d="M991.28,76.86a70.41,70.41,0,0,1-5.12,16.5h0l-.54,1.17c-.36.77-.74,1.54-1.14,2.3s-.79,1.5-1.21,2.24c-.31.55-.62,1.08-.94,1.61s-.68,1.12-1,1.66q-1.2,1.88-2.5,3.65c-.28.39-.57.77-.86,1.15a68.05,68.05,0,0,1-4.79,5.63q-.37.41-.75.78c-.47.48-.95,1-1.43,1.43l-1.08,1h-96c.39.38.78.73,1.18,1.09-.4-.35-.8-.72-1.2-1.09l-.61-.58c-.77-.73-1.51-1.48-2.24-2.24-.41-.42-.81-.85-1.2-1.28-.55-.6-1.09-1.22-1.62-1.84s-1.06-1.26-1.56-1.9-1-1.29-1.49-2q-1.57-2.13-3-4.37c-.34-.55-.68-1.1-1-1.66,0-.09-.11-.18-.16-.28-.39-.65-.76-1.31-1.12-2s-.77-1.44-1.13-2.18-.62-1.27-.92-1.92l-.21-.46c-.32-.69-.62-1.39-.91-2.09h0c-.05-.1-.09-.21-.13-.31-.14-.34-.27-.67-.4-1-.74-1.88-1.4-3.81-2-5.76-.09-.32-.19-.65-.27-1s-.16-.56-.23-.84-.2-.74-.29-1.11c-.36-1.47-.68-3-.94-4.45-.08-.41-.15-.83-.21-1.24s-.15-.93-.22-1.4c-.11-.79-.21-1.59-.29-2.39A70.52,70.52,0,0,1,886.25,3.51c1.91-1.12,3.88-2.16,5.9-3.1h57.42c.27-.2.55-.38.83-.56l1.23.56a67.43,67.43,0,0,1,6,3.16,70.73,70.73,0,0,1,30.89,37.76c0,.11.08.21.11.32q.51,1.5,1,3a70.29,70.29,0,0,1,1.67,32.18Z" transform="translate(0 0.15)"></path><path class="cls-7" d="M935.74,43.31a53,53,0,0,1-4.55,16.91c-4.83,10.28-13,15-21.77,16.63a43.38,43.38,0,0,1-8.86.72,58.81,58.81,0,0,1-9.16-.86l-.48-.08-.17,0,.68-3.8.29-1.58L892.85,65l1-5.37,1-5.47.39-2.2.4-2.2.63-3.5.17-.92.76-4.25,1.35-7.49L900,25.39l1.84-10.2L904.47.41h21.1l1.83.33A69.64,69.64,0,0,1,932.53,13a77.74,77.74,0,0,1,3.34,17c0,.17,0,.33,0,.49,0,.47.07.93.09,1.39A68.09,68.09,0,0,1,935.74,43.31Z" transform="translate(0 0.15)"></path><path class="cls-7" d="M905.14.41l-2.76,15.34-1.76,9.75-1.47,8.17-1.35,7.49L897,45.41l-.17.92-.63,3.5-.39,2.2-.4,2.19-1.09,6.08-.86,4.77-1.1,6.07-.31,1.77-.69,3.8h0l-.48-.09-.17,0a59.11,59.11,0,0,1-9-2.42,43.49,43.49,0,0,1-8-3.74c-7.63-4.58-13.67-11.85-14.61-23.18a53.87,53.87,0,0,1,2.06-19A76.3,76.3,0,0,1,876.13.41Z" transform="translate(0 0.15)"></path><path class="cls-12" d="M942.25,102.24,927.34,107l-19.41,6.16-4.65,1.47-4.41,1.4h-25c-.21-.18-.42-.38-.63-.58-.77-.73-1.51-1.48-2.24-2.24-.41-.42-.81-.85-1.2-1.28-.55-.6-1.09-1.22-1.62-1.84s-1.06-1.26-1.56-1.9-1-1.29-1.49-2q-1.57-2.13-3-4.37c-.34-.55-.68-1.1-1-1.66,0-.09-.11-.18-.16-.28-.39-.65-.76-1.31-1.12-2s-.77-1.44-1.13-2.18-.62-1.27-.92-1.92l-.21-.46c-.31-.69-.62-1.39-.9-2.09h0l7.62-7.33,1-1,2.58-2.48,37.17,6.69,18.56,3.35,15.88,2.86h.07A60.24,60.24,0,0,1,942.25,102.24Z" transform="translate(0 0.15)"></path><path class="cls-13" d="M856.69,91.27a72.85,72.85,0,0,0,29.24,12.58c24.38,4.39,45.35-5.7,53.66-10.53a6.55,6.55,0,0,0-.6-.89c-5.57-7.05-33.1-16.91-33.81-17.16l-26.84-4.83a215.63,215.63,0,0,0-26.6,1.34,70,70,0,0,0,5,19.49Z" transform="translate(0 0.15)"></path><path class="cls-14" d="M883.13,87.32s-2.45-3.89-6.12-4.55-16.23.53-16.23.53Z" transform="translate(0 0.15)"></path><path class="cls-7" d="M932.53,13a55.72,55.72,0,0,1-.91,9.32l-1.2,6.65-.34,1.87-5-.9-1.31-.23L900.62,25.5l-.65-.11L886.82,23l-2.42-.44-7.6-1.37L875.49,21l-5-.9.34-1.87.56-3.1.64-3.55A30.09,30.09,0,0,1,876.47.41h53.81A30.09,30.09,0,0,1,932.53,13Z" transform="translate(0 0.15)"></path><path class="cls-7" d="M887.65,4.53V4.6l-2.1,11.67-.67,3.7-.47,2.61-7.6-1.37L875.49,21l-5-.9.34-1.87.56-3.1.64-3.55A30.09,30.09,0,0,1,876.47.41h7.67a8.57,8.57,0,0,0,2.11,3.1A7.26,7.26,0,0,0,887.65,4.53Z" transform="translate(0 0.15)"></path><path class="cls-13" d="M910,48.69l-26.85-4.84-4.78,26.59s4.36,6.66,12.34,8.09,14.5-3.26,14.5-3.26Z" transform="translate(0 0.15)"></path><path class="cls-14" d="M883.12,43.85l-4.78,26.59c26.83,4.83,29.57-10.3,29.57-10.3L910,48.69l-26.85-4.84Z" transform="translate(0 0.15)"></path><path class="cls-13" d="M920.93,32.77s4.23-6.63,9.18-4S926.88,45.91,916.47,45Z" transform="translate(0 0.15)"></path><path class="cls-14" d="M878.41,25.11s-1.66-7.69-7.2-7-3,17.21,7.09,20Z" transform="translate(0 0.15)"></path><path class="cls-15" d="M886.15,4.67a9.08,9.08,0,0,0-6.95,5.44,56.26,56.26,0,0,0-3.69,10.74c-3.29,18.27,4,41.7,17.66,44.17s28.67-17,32-35.24c.09-.47.1-.59.17-1.06C902.24,24.57,897.11,3.09,886.15,4.67Z" transform="translate(0 0.15)"></path><path class="cls-13" d="M899.06,64.8C889,58,884,38.56,886.84,22.89A39.11,39.11,0,0,1,893.35,7c-2.28-1.72-4.57-2.67-7.2-2.29a9.08,9.08,0,0,0-6.95,5.44,56.26,56.26,0,0,0-3.69,10.74c-3.29,18.27,4,41.7,17.66,44.17A14.29,14.29,0,0,0,899.06,64.8Z" transform="translate(0 0.15)"></path><path class="cls-13" d="M894,37.54l3.07-3.37a1.89,1.89,0,0,1,3.15.56L902,39a1.88,1.88,0,0,1-2.08,2.56l-4.78-.86A1.89,1.89,0,0,1,894,37.54Z" transform="translate(0 0.15)"></path><path class="cls-16" d="M889.68,50.92,901.36,53a8.93,8.93,0,0,0,3.25-3.4,2.14,2.14,0,0,0-1.53-3.12l-12.74-2.3a2.16,2.16,0,0,0-2.52,2.4,9,9,0,0,0,1.86,4.32Z" transform="translate(0 0.15)"></path><path class="cls-17" d="M901.36,53a9,9,0,0,1-11.68-2.1A9,9,0,0,1,901.36,53Z" transform="translate(0 0.15)"></path><path class="cls-16" d="M915.12,32.46a3.6,3.6,0,0,0-5.39-3.76A3.54,3.54,0,0,0,908,31.19a1.48,1.48,0,0,0,2.32,1.44,1.5,1.5,0,0,1,2.08.37A1.49,1.49,0,0,0,915.12,32.46Z" transform="translate(0 0.15)"></path><path class="cls-16" d="M884,26.85A3.6,3.6,0,1,1,891,28.13a1.49,1.49,0,0,1-2.68.54,1.49,1.49,0,0,0-2.08-.38A1.48,1.48,0,0,1,884,26.85Z" transform="translate(0 0.15)"></path><path class="cls-16" d="M891.51,21.45l-5.66-1a2.16,2.16,0,1,1,.76-4.25l5.67,1a2.16,2.16,0,1,1-.77,4.25Z" transform="translate(0 0.15)"></path><path class="cls-16" d="M915.59,25.78l-5.67-1a2.15,2.15,0,1,1,.77-4.24l5.67,1a2.15,2.15,0,1,1-.77,4.24Z" transform="translate(0 0.15)"></path><path class="cls-18" d="M996.77,34l-1.2,6.66-.33,1.86-5-.9L989,41.41l-.41-.08-36.47-6.57H952l-10-1.81-1.31-.23L936,31.87l-.33-.06.24-1.33.1-.54,1.2-6.65c1.17-6.51,4-16.36,10.71-21.67.54-.42,1.09-.83,1.65-1.21.27-.2.55-.38.83-.56l1.23.56h28.31a20,20,0,0,1,11.91,3.91c1.42,3.31.71,8.16.71,8.16A30.13,30.13,0,0,1,996.77,34Z" transform="translate(0 0.15)"></path><path class="cls-19" d="M957.65,3.57a39.93,39.93,0,0,0-5.72,24.37,24.59,24.59,0,0,0,.67,3.87l-.11.62-.42,2.33h0l-.09,0L942,33h0l-1.31-.23L936,31.87l-.33-.06.24-1.33.1-.54,1.2-6.65c1.17-6.51,4-16.36,10.71-21.67.54-.42,1.09-.83,1.65-1.21.27-.2.55-.38.83-.56l1.23.56h8.44A24.87,24.87,0,0,0,957.65,3.57Z" transform="translate(0 0.15)"></path><path class="cls-17" d="M986.17,93.36l-.54,1.17c-.36.77-.74,1.54-1.14,2.3s-.79,1.5-1.21,2.24c-.31.55-.62,1.08-.94,1.61s-.68,1.12-1,1.66q-1.2,1.88-2.5,3.65c-.28.39-.57.77-.86,1.15a68.05,68.05,0,0,1-4.79,5.63q-.37.41-.75.78c-.47.48-.95,1-1.43,1.43l-1.08,1H884.64c2.4-3.58,5.06-7.52,7.67-11.32,5.47-7.93,10.7-15.26,12.79-17.54a4.3,4.3,0,0,1,.73-.68A14.26,14.26,0,0,1,909,85.13c.47-.15,1-.29,1.48-.42l.53-.13,1.09-.25h0l1.14-.23,3.71-.59,2.61-.32,1.36-.14,2.69-.24h0c5.85-.46,11.71-.6,15.55-.63h.55c2.21,0,3.63,0,3.79,0L970.34,87,973,88l1,.39.44.16c3,1.15,7.3,2.86,11.73,4.84Z" transform="translate(0 0.15)"></path><path class="cls-20" d="M927.34,107a60.07,60.07,0,0,0,4.23,9H884.64c2.4-3.58,5.06-7.52,7.67-11.32,5.47-7.93,10.7-15.26,12.79-17.54a4.3,4.3,0,0,1,.73-.68A14.26,14.26,0,0,1,909,85.13c.47-.15,1-.29,1.48-.42l.53-.13,1.09-.25h0l1.14-.23,3.71-.59c.85-.12,1.73-.22,2.61-.32l1.36-.14c.89-.09,1.79-.17,2.69-.24a43.94,43.94,0,0,0,.06,7.68A62.07,62.07,0,0,0,925.2,100,62.72,62.72,0,0,0,927.34,107Z" transform="translate(0 0.15)"></path><path class="cls-20" d="M974.43,88.52c-2.37-.9-3.92-1.46-4.09-1.52L943.5,82.17c-.17,0-1.82,0-4.34,0,.43.85,5.46,10.46,15.91,12.34S973.87,89,974.43,88.52Z" transform="translate(0 0.15)"></path><path class="cls-13" d="M975.13,60.42l-26.85-4.84L943.5,82.17s4.36,6.66,12.33,8.09S970.34,87,970.34,87Z" transform="translate(0 0.15)"></path><path class="cls-14" d="M948.28,55.58,943.5,82.17c26.83,4.83,29.57-10.3,29.57-10.3l2.06-11.45-26.85-4.84Z" transform="translate(0 0.15)"></path><path class="cls-13" d="M986.09,44.5s4.23-6.63,9.17-4S992,57.64,981.63,56.77Z" transform="translate(0 0.15)"></path><path class="cls-14" d="M943.57,36.85s-1.66-7.7-7.2-7-3,17.21,7.09,20Z" transform="translate(0 0.15)"></path><path class="cls-15" d="M986,22.64a9.09,9.09,0,0,1,4.62,7.52,56.79,56.79,0,0,1-.29,11.35c-3.29,18.28-18.25,37.7-32,35.24s-21-25.9-17.66-44.17c.08-.48.11-.59.21-1.06,23.06,4.16,35.36-14.18,45.08-8.88Z" transform="translate(0 0.15)"></path><path class="cls-13" d="M952,34.62c.17-1,.37-1.89.6-2.81a37.32,37.32,0,0,1-11.72-.29c-.1.47-.13.58-.21,1.06-3.29,18.27,4,41.7,17.66,44.17a14.46,14.46,0,0,0,5.89-.21c-10.11-6.78-15-26.25-12.22-41.92Z" transform="translate(0 0.15)"></path><path class="cls-21" d="M908.28,116H903l.26-1.4.2-1.13a2.31,2.31,0,0,1,4.45-.34,2.65,2.65,0,0,1,.11.52Z" transform="translate(0 0.15)"></path><path class="cls-13" d="M959.19,49.27l3.07-3.37a1.89,1.89,0,0,1,3.15.56l1.7,4.24A1.88,1.88,0,0,1,965,53.26l-4.78-.86A1.89,1.89,0,0,1,959.19,49.27Z" transform="translate(0 0.15)"></path><path class="cls-16" d="M954.84,62.65l11.68,2.11a9.07,9.07,0,0,0,3.25-3.4,2.15,2.15,0,0,0-1.53-3.13l-12.74-2.3a2.16,2.16,0,0,0-2.52,2.4A9,9,0,0,0,954.84,62.65Z" transform="translate(0 0.15)"></path><path class="cls-17" d="M966.52,64.76a9,9,0,0,1-11.68-2.11,9,9,0,0,1,11.68,2.11Z" transform="translate(0 0.15)"></path><path class="cls-16" d="M980.28,44.19a3.58,3.58,0,0,0-.72-2.92,3.62,3.62,0,0,0-4.68-.84,3.58,3.58,0,0,0-1.68,2.49,1.48,1.48,0,0,0,2.32,1.44,1.49,1.49,0,0,1,2.08.38A1.49,1.49,0,0,0,980.28,44.19Z" transform="translate(0 0.15)"></path><path class="cls-16" d="M949.12,38.58a3.54,3.54,0,0,1,1.69-2.48,3.59,3.59,0,0,1,5.39,3.76,1.49,1.49,0,0,1-2.68.54,1.49,1.49,0,0,0-2.08-.37A1.49,1.49,0,0,1,949.12,38.58Z" transform="translate(0 0.15)"></path><path class="cls-22" d="M956.67,33.18l-5.66-1a2.16,2.16,0,1,1,.76-4.25l5.67,1a2.16,2.16,0,1,1-.77,4.25Z" transform="translate(0 0.15)"></path><path class="cls-22" d="M980.75,37.52l-5.67-1a2.16,2.16,0,0,1,.77-4.25l5.66,1a2.16,2.16,0,1,1-.76,4.25Z" transform="translate(0 0.15)"></path></g></svg> 