<?xml version="1.0" encoding="UTF-8"?> <svg xmlns="http://www.w3.org/2000/svg" id="Layer_1" data-name="Layer 1" viewBox="0 0 1000 116.77"><defs><style>.cls-1{fill:#fff;}.cls-2{fill:#e1ebf0;}.cls-3{fill:#cddce6;}.cls-4{fill:#324b5f;}.cls-5{fill:#1e323c;}.cls-6{fill:#ff405c;}.cls-7{fill:#e20059;}.cls-8{fill:#ff7038;}.cls-9{fill:#f5fafa;}.cls-10{fill:#11d16e;}.cls-11{fill:#0ca680;}.cls-12{fill:#f1475d;}.cls-13{fill:#de1f55;}.cls-14{fill:#ffe54a;}.cls-15{fill:#f4cc03;}.cls-16{fill:#633461;}.cls-17{fill:#462347;}.cls-18{fill:#fc6f6a;}</style></defs><title>Bitcoinfact1</title><rect class="cls-1" y="0.77" width="1000" height="116" rx="20.26"></rect><rect class="cls-1" x="17.53" y="10.19" width="9.45" height="11.7" transform="translate(-5.15 15.7) rotate(-33.46)"></rect><polygon class="cls-1" points="46.85 17.92 42.18 2.78 47.38 1.18 51.58 1.18 55.88 15.13 46.85 17.92"></polygon><polygon class="cls-1" points="84.03 1.18 81.71 12.55 77.08 11.61 72.44 10.66 74.38 1.18 84.03 1.18"></polygon><path class="cls-1" d="M82.14,61.71,126.6,70.8l-4,19.77-6.2-1.27L111,115.59H17.73A14.22,14.22,0,0,1,3.51,101.37V100l6.63-32.43-6.2-1.27L8,46.55l44.48,9.09A15.13,15.13,0,1,1,70.32,43.85,15.14,15.14,0,1,1,82.14,61.71Z" transform="translate(0 0.77)"></path><rect class="cls-1" x="95.97" y="14.72" width="15.84" height="9.45" transform="translate(21.93 86.96) rotate(-49.76)"></rect><polygon class="cls-1" points="123.69 45.19 118.48 37.3 128.25 30.85 133.46 38.75 123.69 45.19"></polygon><path d="M270.68,32.54h-5.95V30.39H279.2v2.15h-6v17.4h-2.55Z" transform="translate(0 0.77)"></path><path d="M281.09,29.35h2.55v8.76h.06a4.63,4.63,0,0,1,1.82-1.8,5.25,5.25,0,0,1,2.62-.73c1.88,0,4.9,1.16,4.9,6v8.35h-2.56V41.88c0-2.26-.84-4.18-3.24-4.18a3.68,3.68,0,0,0-3.43,2.55,3.21,3.21,0,0,0-.17,1.22v8.47h-2.55Z" transform="translate(0 0.77)"></path><path d="M298.6,43.39c.06,3.45,2.27,4.87,4.82,4.87a9.18,9.18,0,0,0,3.89-.73l.43,1.83a11.32,11.32,0,0,1-4.67.87c-4.32,0-6.9-2.84-6.9-7.08s2.49-7.57,6.58-7.57c4.58,0,5.8,4,5.8,6.62,0,.52-.06.93-.08,1.19Zm7.49-1.83c0-1.62-.67-4.15-3.54-4.15-2.58,0-3.71,2.38-3.92,4.15Z" transform="translate(0 0.77)"></path><path d="M325.63,49.94l-.2-1.77h-.09a5.2,5.2,0,0,1-4.29,2.09,4,4,0,0,1-4.29-4c0-3.39,3-5.25,8.44-5.22v-.29c0-1.16-.32-3.25-3.19-3.25a7.08,7.08,0,0,0-3.66,1l-.58-1.68a8.74,8.74,0,0,1,4.61-1.25c4.3,0,5.34,2.93,5.34,5.75v5.25a20.08,20.08,0,0,0,.23,3.36Zm-.38-7.16c-2.78-.06-5.94.43-5.94,3.16a2.26,2.26,0,0,0,2.41,2.44A3.5,3.5,0,0,0,325.11,46a2.57,2.57,0,0,0,.14-.82Z" transform="translate(0 0.77)"></path><path d="M332.59,35.9l2.76,7.89a37.57,37.57,0,0,1,1.13,3.6h.08c.32-1.16.73-2.32,1.19-3.6l2.73-7.89h2.67l-5.51,14H335.2l-5.34-14Z" transform="translate(0 0.77)"></path><path d="M346.68,43.39c.06,3.45,2.27,4.87,4.82,4.87a9.18,9.18,0,0,0,3.89-.73l.43,1.83a11.32,11.32,0,0,1-4.67.87c-4.32,0-6.9-2.84-6.9-7.08s2.49-7.57,6.58-7.57c4.59,0,5.8,4,5.8,6.62a9.76,9.76,0,0,1-.08,1.19Zm7.49-1.83c0-1.62-.67-4.15-3.54-4.15-2.58,0-3.71,2.38-3.92,4.15Z" transform="translate(0 0.77)"></path><path d="M359.79,40.28c0-1.65,0-3.07-.11-4.38h2.23l.09,2.76h.11A4.22,4.22,0,0,1,366,35.58a2.63,2.63,0,0,1,.72.09v2.41a3.69,3.69,0,0,0-.87-.09c-1.79,0-3.07,1.36-3.42,3.28a7,7,0,0,0-.11,1.19v7.48h-2.53Z" transform="translate(0 0.77)"></path><path d="M376.9,49.94l-.2-1.77h-.09a5.2,5.2,0,0,1-4.29,2.09,4,4,0,0,1-4.29-4c0-3.39,3-5.25,8.44-5.22v-.29c0-1.16-.32-3.25-3.19-3.25a7.08,7.08,0,0,0-3.66,1L369,36.83a8.77,8.77,0,0,1,4.61-1.25c4.3,0,5.34,2.93,5.34,5.75v5.25a20.08,20.08,0,0,0,.23,3.36Zm-.37-7.16c-2.79-.06-5.95.43-5.95,3.16A2.26,2.26,0,0,0,373,48.38,3.49,3.49,0,0,0,376.38,46a2.58,2.58,0,0,0,.15-.82Z" transform="translate(0 0.77)"></path><path d="M395.2,35.9c-.05,1-.11,2.15-.11,3.86v8.15c0,3.22-.64,5.19-2,6.41A7.44,7.44,0,0,1,388,56a9,9,0,0,1-4.67-1.16L384,52.9a7.93,7.93,0,0,0,4.12,1.1c2.61,0,4.52-1.36,4.52-4.9V47.53h0a5,5,0,0,1-4.47,2.35c-3.48,0-6-3-6-6.84,0-4.76,3.11-7.46,6.33-7.46A4.68,4.68,0,0,1,392.8,38h.05L393,35.9Zm-2.64,5.54a3.55,3.55,0,0,0-.14-1.16,3.67,3.67,0,0,0-3.57-2.69c-2.44,0-4.18,2.06-4.18,5.3,0,2.76,1.4,5,4.15,5a3.73,3.73,0,0,0,3.54-2.61,4.27,4.27,0,0,0,.2-1.36Z" transform="translate(0 0.77)"></path><path d="M400.74,43.39c.06,3.45,2.26,4.87,4.82,4.87a9.16,9.16,0,0,0,3.88-.73l.44,1.83a11.32,11.32,0,0,1-4.67.87c-4.32,0-6.91-2.84-6.91-7.08s2.5-7.57,6.59-7.57c4.58,0,5.8,4,5.8,6.62a9.35,9.35,0,0,1-.09,1.19Zm7.48-1.83c0-1.62-.66-4.15-3.53-4.15-2.59,0-3.72,2.38-3.92,4.15Z" transform="translate(0 0.77)"></path><path d="M419.88,49.94c.06-.95.12-2.38.12-3.62v-17h2.52v8.82h.06a5.22,5.22,0,0,1,4.78-2.59c3.48,0,5.95,2.9,5.92,7.17,0,5-3.16,7.51-6.29,7.51a5,5,0,0,1-4.7-2.64h-.09l-.12,2.32Zm2.64-5.63a5.51,5.51,0,0,0,.11.93,4,4,0,0,0,3.83,3c2.67,0,4.27-2.17,4.27-5.39,0-2.82-1.45-5.23-4.18-5.23a4.08,4.08,0,0,0-3.89,3.14,5.7,5.7,0,0,0-.14,1Z" transform="translate(0 0.77)"></path><path d="M439.34,32a1.58,1.58,0,0,1-3.16,0,1.55,1.55,0,0,1,1.59-1.6A1.52,1.52,0,0,1,439.34,32Zm-2.84,18v-14h2.55v14Z" transform="translate(0 0.77)"></path><path d="M446.36,31.87v4H450v2h-3.65v7.57c0,1.74.49,2.72,1.91,2.72a5.58,5.58,0,0,0,1.48-.17l.12,1.91a6.15,6.15,0,0,1-2.27.35,3.51,3.51,0,0,1-2.75-1.07c-.73-.76-1-2-1-3.66V37.85h-2.17v-2h2.17V32.54Z" transform="translate(0 0.77)"></path><path d="M462.71,49.42a9.33,9.33,0,0,1-4,.81c-4.23,0-7-2.87-7-7.16a7.14,7.14,0,0,1,7.54-7.46,8.47,8.47,0,0,1,3.54.73l-.58,2a5.88,5.88,0,0,0-3-.67c-3.22,0-5,2.38-5,5.31,0,3.25,2.09,5.25,4.88,5.25a7.4,7.4,0,0,0,3.13-.69Z" transform="translate(0 0.77)"></path><path d="M478.23,42.81c0,5.19-3.6,7.45-7,7.45-3.8,0-6.73-2.78-6.73-7.22,0-4.7,3.07-7.46,7-7.46S478.23,38.51,478.23,42.81ZM467.09,43c0,3.08,1.77,5.4,4.26,5.4s4.27-2.29,4.27-5.46c0-2.37-1.19-5.39-4.21-5.39S467.09,40.28,467.09,43Z" transform="translate(0 0.77)"></path><path d="M484.29,32a1.58,1.58,0,0,1-3.16,0,1.55,1.55,0,0,1,1.59-1.6A1.52,1.52,0,0,1,484.29,32Zm-2.84,18v-14H484v14Z" transform="translate(0 0.77)"></path><path d="M488.23,39.7c0-1.45,0-2.64-.12-3.8h2.27l.14,2.32h.06a5.17,5.17,0,0,1,4.64-2.64c1.95,0,5,1.16,5,6v8.38h-2.55V41.85c0-2.26-.84-4.15-3.25-4.15a3.76,3.76,0,0,0-3.6,3.8v8.44h-2.55Z" transform="translate(0 0.77)"></path><path d="M511.49,35.9,513.34,43c.41,1.56.79,3,1,4.47h.09c.31-1.43.78-2.93,1.24-4.44L518,35.9h2.15l2.18,7c.52,1.68.93,3.16,1.24,4.59h.09A40,40,0,0,1,524.75,43l2-7.05h2.52l-4.52,14h-2.33l-2.14-6.7A45.21,45.21,0,0,1,519,38.63H519a42.89,42.89,0,0,1-1.27,4.64l-2.27,6.67h-2.32l-4.23-14Z" transform="translate(0 0.77)"></path><path d="M533,43.39c.06,3.45,2.26,4.87,4.81,4.87a9.18,9.18,0,0,0,3.89-.73l.44,1.83a11.32,11.32,0,0,1-4.67.87c-4.33,0-6.91-2.84-6.91-7.08s2.5-7.57,6.59-7.57c4.58,0,5.8,4,5.8,6.62a9.35,9.35,0,0,1-.09,1.19Zm7.48-1.83c0-1.62-.66-4.15-3.54-4.15-2.58,0-3.71,2.38-3.91,4.15Z" transform="translate(0 0.77)"></path><path d="M546.06,29.35h2.55V49.94h-2.55Z" transform="translate(0 0.77)"></path><path d="M562.91,49.42a9.4,9.4,0,0,1-4,.81c-4.24,0-7-2.87-7-7.16a7.14,7.14,0,0,1,7.55-7.46,8.45,8.45,0,0,1,3.53.73l-.58,2a5.84,5.84,0,0,0-3-.67c-3.22,0-5,2.38-5,5.31,0,3.25,2.08,5.25,4.87,5.25a7.37,7.37,0,0,0,3.13-.69Z" transform="translate(0 0.77)"></path><path d="M578.42,42.81c0,5.19-3.59,7.45-7,7.45-3.8,0-6.73-2.78-6.73-7.22,0-4.7,3.08-7.46,7-7.46C575.7,35.58,578.42,38.51,578.42,42.81ZM567.28,43c0,3.08,1.77,5.4,4.27,5.4s4.26-2.29,4.26-5.46c0-2.37-1.19-5.39-4.2-5.39S567.28,40.28,567.28,43Z" transform="translate(0 0.77)"></path><path d="M581.64,39.7c0-1.45,0-2.64-.12-3.8h2.24l.11,2.27H584a4.83,4.83,0,0,1,4.41-2.59,4.15,4.15,0,0,1,4,2.82h.06A5.72,5.72,0,0,1,594,36.57a4.78,4.78,0,0,1,3.1-1c1.86,0,4.61,1.22,4.61,6.1v8.26h-2.49V42c0-2.69-1-4.32-3.05-4.32a3.3,3.3,0,0,0-3,2.32,4.13,4.13,0,0,0-.21,1.28v8.67h-2.49V41.53c0-2.23-1-3.86-2.93-3.86a3.48,3.48,0,0,0-3.16,2.56,3.37,3.37,0,0,0-.21,1.24v8.47h-2.49Z" transform="translate(0 0.77)"></path><path d="M607.25,43.39c0,3.45,2.26,4.87,4.81,4.87a9.18,9.18,0,0,0,3.89-.73l.43,1.83a11.28,11.28,0,0,1-4.67.87c-4.32,0-6.9-2.84-6.9-7.08s2.49-7.57,6.58-7.57c4.59,0,5.81,4,5.81,6.62a9.35,9.35,0,0,1-.09,1.19Zm7.48-1.83c0-1.62-.67-4.15-3.54-4.15-2.58,0-3.71,2.38-3.92,4.15Z" transform="translate(0 0.77)"></path><path d="M626.39,49.94c.05-.95.11-2.38.11-3.62v-17H629v8.82h.06a5.24,5.24,0,0,1,4.79-2.59c3.48,0,6,2.9,5.92,7.17,0,5-3.16,7.51-6.3,7.51a5,5,0,0,1-4.7-2.64h-.08l-.12,2.32ZM629,44.31a4.64,4.64,0,0,0,.12.93,3.94,3.94,0,0,0,3.83,3c2.67,0,4.26-2.17,4.26-5.39,0-2.82-1.45-5.23-4.17-5.23a4.07,4.07,0,0,0-3.89,3.14,4.89,4.89,0,0,0-.15,1Z" transform="translate(0 0.77)"></path><path d="M655.71,42.81c0,5.19-3.6,7.45-7,7.45-3.8,0-6.73-2.78-6.73-7.22,0-4.7,3.07-7.46,7-7.46S655.71,38.51,655.71,42.81ZM644.57,43c0,3.08,1.77,5.4,4.26,5.4s4.27-2.29,4.27-5.46c0-2.37-1.19-5.39-4.21-5.39S644.57,40.28,644.57,43Z" transform="translate(0 0.77)"></path><path d="M658.92,39.7c0-1.45,0-2.64-.11-3.8h2.26l.14,2.32h.06a5.17,5.17,0,0,1,4.64-2.64c2,0,5,1.16,5,6v8.38h-2.55V41.85c0-2.26-.84-4.15-3.25-4.15a3.76,3.76,0,0,0-3.6,3.8v8.44h-2.55Z" transform="translate(0 0.77)"></path><path d="M686.76,46.11c0,1.45,0,2.73.12,3.83h-2.26l-.15-2.29h-.05a5.3,5.3,0,0,1-4.65,2.61c-2.2,0-4.84-1.22-4.84-6.15V35.9h2.55v7.78c0,2.67.81,4.46,3.14,4.46A3.68,3.68,0,0,0,684,45.82a3.58,3.58,0,0,0,.23-1.3V35.9h2.55Z" transform="translate(0 0.77)"></path><path d="M690.65,47.33a6.71,6.71,0,0,0,3.36,1c1.86,0,2.73-.93,2.73-2.09s-.73-1.89-2.61-2.58c-2.53-.9-3.71-2.29-3.71-4,0-2.26,1.82-4.12,4.84-4.12a7,7,0,0,1,3.45.87l-.64,1.86a5.42,5.42,0,0,0-2.87-.81c-1.51,0-2.35.87-2.35,1.91s.84,1.69,2.67,2.38c2.44.93,3.68,2.15,3.68,4.24,0,2.46-1.91,4.2-5.25,4.2a8,8,0,0,1-3.94-.95Z" transform="translate(0 0.77)"></path><path d="M312.82,77.61c0,5.19-3.6,7.45-7,7.45-3.8,0-6.73-2.78-6.73-7.22,0-4.7,3.08-7.46,7-7.46S312.82,73.31,312.82,77.61Zm-11.14.14c0,3.08,1.77,5.4,4.26,5.4s4.26-2.29,4.26-5.46c0-2.38-1.18-5.39-4.2-5.39S301.68,75.08,301.68,77.75Z" transform="translate(0 0.77)"></path><path d="M324.7,84.74V72.65h-5.88V84.74h-2.53V72.65h-2v-2h2v-.46a6.65,6.65,0,0,1,1.57-4.79,4.8,4.8,0,0,1,3.54-1.3,4.54,4.54,0,0,1,2,.49l-.52,1.89a3.65,3.65,0,0,0-1.51-.35c-2,0-2.55,1.71-2.55,3.91v.61h5.88V70a6.64,6.64,0,0,1,1.66-4.91,4.88,4.88,0,0,1,3.39-1.3,5.92,5.92,0,0,1,2.18.4l-.32,2a3.89,3.89,0,0,0-1.66-.32c-2.14,0-2.72,1.91-2.72,4.06v.75h3.39v2h-3.36V84.74Z" transform="translate(0 0.77)"></path><path d="M334,78.19c.06,3.45,2.27,4.87,4.82,4.87a9.09,9.09,0,0,0,3.88-.73l.44,1.83a11.32,11.32,0,0,1-4.67.87c-4.32,0-6.9-2.84-6.9-7.08s2.49-7.57,6.58-7.57c4.58,0,5.8,4,5.8,6.62,0,.52-.06.93-.08,1.19Zm7.49-1.83c0-1.63-.67-4.15-3.54-4.15-2.58,0-3.72,2.38-3.92,4.15Z" transform="translate(0 0.77)"></path><path d="M347.09,75.08c0-1.65,0-3.07-.12-4.38h2.24l.08,2.76h.12a4.22,4.22,0,0,1,3.89-3.08,2.63,2.63,0,0,1,.72.09v2.41a3.69,3.69,0,0,0-.87-.09c-1.8,0-3.07,1.36-3.42,3.28a6.93,6.93,0,0,0-.12,1.19v7.48h-2.52Z" transform="translate(0 0.77)"></path><path d="M357.7,78.19c.06,3.45,2.27,4.87,4.82,4.87a9.18,9.18,0,0,0,3.89-.73l.43,1.83a11.32,11.32,0,0,1-4.67.87c-4.32,0-6.9-2.84-6.9-7.08s2.49-7.57,6.58-7.57c4.59,0,5.8,4,5.8,6.62a9.76,9.76,0,0,1-.08,1.19Zm7.49-1.83c0-1.63-.67-4.15-3.54-4.15-2.58,0-3.71,2.38-3.92,4.15Z" transform="translate(0 0.77)"></path><path d="M382.94,64.15v17c0,1.24,0,2.67.11,3.62h-2.29l-.11-2.43h-.06a5.22,5.22,0,0,1-4.79,2.75c-3.39,0-6-2.87-6-7.13,0-4.67,2.87-7.55,6.29-7.55a4.71,4.71,0,0,1,4.24,2.15h.05V64.15Zm-2.56,12.27a5,5,0,0,0-.11-1.08,3.76,3.76,0,0,0-3.69-3c-2.64,0-4.2,2.33-4.2,5.43,0,2.84,1.39,5.19,4.15,5.19a3.84,3.84,0,0,0,3.74-3,4.86,4.86,0,0,0,.11-1.11Z" transform="translate(0 0.77)"></path><path d="M396.16,66.76a1.58,1.58,0,0,1-3.16,0,1.55,1.55,0,0,1,1.59-1.6A1.52,1.52,0,0,1,396.16,66.76Zm-2.84,18v-14h2.55v14Z" transform="translate(0 0.77)"></path><path d="M399.75,82.13a6.65,6.65,0,0,0,3.37,1c1.85,0,2.72-.93,2.72-2.09s-.72-1.89-2.61-2.58c-2.52-.9-3.71-2.29-3.71-4,0-2.26,1.83-4.12,4.85-4.12a7.07,7.07,0,0,1,3.45.87l-.64,1.86a5.45,5.45,0,0,0-2.87-.81c-1.51,0-2.35.87-2.35,1.91s.84,1.69,2.67,2.38c2.43.93,3.68,2.15,3.68,4.24,0,2.46-1.91,4.2-5.25,4.2a8,8,0,0,1-3.94-1Z" transform="translate(0 0.77)"></path><path d="M429.48,80.91c0,1.45,0,2.73.12,3.83h-2.27l-.14-2.29h-.06a5.29,5.29,0,0,1-4.64,2.61c-2.2,0-4.84-1.22-4.84-6.15V70.7h2.55v7.78c0,2.67.81,4.46,3.13,4.46a3.71,3.71,0,0,0,3.37-2.32,3.81,3.81,0,0,0,.23-1.3V70.7h2.55Z" transform="translate(0 0.77)"></path><path d="M433.36,82.13a6.65,6.65,0,0,0,3.37,1c1.85,0,2.73-.93,2.73-2.09s-.73-1.89-2.62-2.58c-2.52-.9-3.71-2.29-3.71-4,0-2.26,1.83-4.12,4.85-4.12a7.07,7.07,0,0,1,3.45.87l-.64,1.86a5.45,5.45,0,0,0-2.87-.81c-1.51,0-2.35.87-2.35,1.91s.84,1.69,2.67,2.38c2.43.93,3.68,2.15,3.68,4.24,0,2.46-1.91,4.2-5.25,4.2a8,8,0,0,1-3.94-1Z" transform="translate(0 0.77)"></path><path d="M456.94,80.91c0,1.45,0,2.73.12,3.83H454.8l-.15-2.29h-.06A5.27,5.27,0,0,1,450,85.06c-2.2,0-4.84-1.22-4.84-6.15V70.7h2.55v7.78c0,2.67.81,4.46,3.13,4.46a3.7,3.7,0,0,0,3.37-2.32,3.81,3.81,0,0,0,.23-1.3V70.7h2.55Z" transform="translate(0 0.77)"></path><path d="M469,84.74l-.2-1.77h-.09a5.2,5.2,0,0,1-4.29,2.09,4,4,0,0,1-4.3-4c0-3.39,3-5.25,8.44-5.22v-.29c0-1.16-.32-3.25-3.19-3.25a7,7,0,0,0-3.65,1l-.58-1.68a8.74,8.74,0,0,1,4.61-1.25c4.29,0,5.34,2.93,5.34,5.75v5.25a20.08,20.08,0,0,0,.23,3.36Zm-.38-7.16c-2.78-.06-5.94.43-5.94,3.16a2.26,2.26,0,0,0,2.4,2.44,3.5,3.5,0,0,0,3.4-2.35,2.88,2.88,0,0,0,.14-.82Z" transform="translate(0 0.77)"></path><path d="M475.15,64.15h2.55V84.74h-2.55Z" transform="translate(0 0.77)"></path><path d="M482,64.15h2.55V84.74H482Z" transform="translate(0 0.77)"></path><path d="M489.77,70.7l3.07,8.3c.32.93.67,2,.9,2.87h.06c.26-.84.55-1.91.9-2.93l2.78-8.24h2.7l-3.83,10c-1.83,4.82-3.07,7.28-4.81,8.79a6.88,6.88,0,0,1-3.14,1.65L487.77,89A6.89,6.89,0,0,0,490,87.76a7.72,7.72,0,0,0,2.15-2.84,2,2,0,0,0,.2-.61,2.36,2.36,0,0,0-.17-.67L487,70.7Z" transform="translate(0 0.77)"></path><path d="M516.42,84.74l-.2-1.77h-.09a5.2,5.2,0,0,1-4.29,2.09,4,4,0,0,1-4.3-4c0-3.39,3-5.25,8.44-5.22v-.29c0-1.16-.31-3.25-3.19-3.25a7,7,0,0,0-3.65,1l-.58-1.68a8.74,8.74,0,0,1,4.61-1.25c4.29,0,5.34,2.93,5.34,5.75v5.25a20.08,20.08,0,0,0,.23,3.36ZM516,77.58c-2.78-.06-5.94.43-5.94,3.16a2.26,2.26,0,0,0,2.4,2.44,3.5,3.5,0,0,0,3.4-2.35A2.88,2.88,0,0,0,516,80Z" transform="translate(0 0.77)"></path><path d="M522.62,75.08c0-1.65,0-3.07-.11-4.38h2.23l.09,2.76h.11a4.22,4.22,0,0,1,3.89-3.08,2.75,2.75,0,0,1,.73.09v2.41a3.75,3.75,0,0,0-.87-.09c-1.8,0-3.08,1.36-3.43,3.28a8.19,8.19,0,0,0-.11,1.19v7.48h-2.53Z" transform="translate(0 0.77)"></path><path d="M544.52,77.61c0,5.19-3.6,7.45-7,7.45-3.8,0-6.73-2.78-6.73-7.22,0-4.7,3.08-7.46,7-7.46S544.52,73.31,544.52,77.61Zm-11.14.14c0,3.08,1.77,5.4,4.27,5.4s4.26-2.29,4.26-5.46c0-2.38-1.19-5.39-4.2-5.39S533.38,75.08,533.38,77.75Z" transform="translate(0 0.77)"></path><path d="M559.49,80.91c0,1.45,0,2.73.11,3.83h-2.26l-.15-2.29h-.05a5.29,5.29,0,0,1-4.64,2.61c-2.21,0-4.85-1.22-4.85-6.15V70.7h2.55v7.78c0,2.67.82,4.46,3.14,4.46a3.68,3.68,0,0,0,3.36-2.32,3.58,3.58,0,0,0,.23-1.3V70.7h2.56Z" transform="translate(0 0.77)"></path><path d="M563.72,74.5c0-1.45,0-2.64-.12-3.8h2.26L566,73h.06a5.16,5.16,0,0,1,4.64-2.64c1.94,0,5,1.16,5,6v8.38h-2.56V76.65c0-2.26-.84-4.15-3.24-4.15a3.63,3.63,0,0,0-3.43,2.61,3.88,3.88,0,0,0-.17,1.19v8.44h-2.55Z" transform="translate(0 0.77)"></path><path d="M591.94,64.15v17c0,1.24,0,2.67.11,3.62h-2.29l-.12-2.43h0a5.22,5.22,0,0,1-4.79,2.75c-3.39,0-6-2.87-6-7.13,0-4.67,2.87-7.55,6.29-7.55a4.71,4.71,0,0,1,4.24,2.15h0V64.15Zm-2.56,12.27a5,5,0,0,0-.11-1.08,3.76,3.76,0,0,0-3.69-3c-2.64,0-4.2,2.33-4.2,5.43,0,2.84,1.39,5.19,4.15,5.19a3.84,3.84,0,0,0,3.74-3,4.86,4.86,0,0,0,.11-1.11Z" transform="translate(0 0.77)"></path><path d="M602.11,81.81A8.5,8.5,0,0,0,606.29,83c3.28,0,4.29-2.09,4.26-3.65,0-2.64-2.4-3.77-4.87-3.77h-1.42V73.66h1.42c1.86,0,4.21-1,4.21-3.19,0-1.51-1-2.84-3.31-2.84a6.83,6.83,0,0,0-3.77,1.25L602.14,67a8.93,8.93,0,0,1,4.93-1.45c3.72,0,5.4,2.2,5.4,4.49,0,2-1.16,3.6-3.48,4.44v.06a4.91,4.91,0,0,1,4.2,4.85c0,3-2.35,5.65-6.87,5.65a9.64,9.64,0,0,1-4.9-1.27Z" transform="translate(0 0.77)"></path><path d="M623.43,65.45a24.65,24.65,0,0,1,4.61-.4c2.52,0,4.15.43,5.36,1.42A4.08,4.08,0,0,1,635,69.92a4.64,4.64,0,0,1-3.31,4.29v.06a5,5,0,0,1,4,4.9,5.26,5.26,0,0,1-1.65,3.92c-1.36,1.25-3.57,1.83-6.76,1.83a28.43,28.43,0,0,1-3.91-.24Zm2.52,8h2.29c2.67,0,4.24-1.39,4.24-3.28,0-2.29-1.74-3.19-4.3-3.19a11.46,11.46,0,0,0-2.23.17Zm0,9.37a13.26,13.26,0,0,0,2.12.11c2.61,0,5-1,5-3.8,0-2.66-2.3-3.77-5.05-3.77H626Z" transform="translate(0 0.77)"></path><path d="M642.6,67.34h-6V65.19h14.47v2.15h-6v17.4H642.6Z" transform="translate(0 0.77)"></path><path d="M666.18,84.1A12.46,12.46,0,0,1,661,85c-5.51,0-9.66-3.48-9.66-9.89,0-6.12,4.15-10.27,10.21-10.27a10.41,10.41,0,0,1,4.64.87l-.6,2.06a9.31,9.31,0,0,0-4-.81c-4.58,0-7.63,2.93-7.63,8.06,0,4.79,2.76,7.87,7.51,7.87a10,10,0,0,0,4.12-.82Z" transform="translate(0 0.77)"></path><path class="cls-2" d="M942.72.71a18.86,18.86,0,0,0-12.09,10.35,18.91,18.91,0,1,0-5.48,33.87l27.79-7.79A18.92,18.92,0,0,0,942.72.71Z" transform="translate(0 0.77)"></path><path class="cls-3" d="M966,13.81a18.91,18.91,0,0,0-35.41-2.75L939,41l13.9-3.9A18.94,18.94,0,0,0,966,13.81Z" transform="translate(0 0.77)"></path><path class="cls-4" d="M996.47,47.37v54a14.22,14.22,0,0,1-14.22,14.22H895.74a62.86,62.86,0,0,1-2.21-6.5,62.06,62.06,0,0,1,1-36.92,60.69,60.69,0,0,1,3-7.3,4.49,4.49,0,0,1,2.82-2.34l4.36-1.22,23.46-6.59,1.2-.33,3-.83.14-.05.07,0,4.26-1.19,4.93-1.39h0l4.93-1.38L951,48.35l0,0,.06,0,.07,0h.07l4.18-1.18,23.46-6.58h.06l4.3-1.21a4.5,4.5,0,0,1,3.63.53,61.62,61.62,0,0,1,6.38,4.65Q994.91,45.88,996.47,47.37Z" transform="translate(0 0.77)"></path><path class="cls-5" d="M996.47,47.37v54a14.22,14.22,0,0,1-14.22,14.22H960l-15.71-56h0l-2.42-8.65,4.93-1.38L951,48.35l0,0,.06,0,.07,0h.07l4.18-1.18,23.46-6.58h.06l4.3-1.21a4.5,4.5,0,0,1,3.63.53,61.62,61.62,0,0,1,6.38,4.65Q994.91,45.88,996.47,47.37Z" transform="translate(0 0.77)"></path><path class="cls-6" d="M954.63,115.59H915.34L902.87,71.16l-1.21-4.32a4.49,4.49,0,0,1,3.11-5.53l23.46-6.59,1.2-.33,3.12-.88.07,0A4.47,4.47,0,0,1,937.21,55a4.42,4.42,0,0,1,.88,1.66L939.3,61Z" transform="translate(0 0.77)"></path><path class="cls-7" d="M996.47,86.66v14.71a14.22,14.22,0,0,1-14.22,14.22h-17L949.18,58.18h0L948,53.85a4.48,4.48,0,0,1,3-5.5l0,0,.06,0,.07,0,4.25-1.19,23.46-6.58h.06a4.48,4.48,0,0,1,5.48,3.12L985.61,48Z" transform="translate(0 0.77)"></path><path class="cls-2" d="M974.61,115.59H945.3L930.65,63.37l-1.21-4.32a1,1,0,0,1,0-.17l0-.13a4.48,4.48,0,0,1,3-5.19l.14-.05.07,0,4.26-1.19,4.93-1.39h0l4.93-1.38L951,48.35l0,0,.06,0,.07,0h.07a4.48,4.48,0,0,1,5.39,3.15l1.21,4.32Z" transform="translate(0 0.77)"></path><path class="cls-3" d="M974.61,115.59H960l-15.71-56h0l-2.42-8.65,4.93-1.38L951,48.35l0,0,.06,0,.07,0h.07a4.48,4.48,0,0,1,5.39,3.15l1.21,4.32Z" transform="translate(0 0.77)"></path><path class="cls-8" d="M930.66,63.37l-32.73,9.18a4.49,4.49,0,0,1-5.54-3.11L887.2,50.92a4.49,4.49,0,0,1,3.11-5.54L927.36,35a4.49,4.49,0,0,1,5.53,3.11l4,14.2A9,9,0,0,1,930.66,63.37Z" transform="translate(0 0.77)"></path><path class="cls-6" d="M990.55,46.57l-32.72,9.18a9,9,0,0,1-11.08-6.22l-4-14.2a4.49,4.49,0,0,1,3.11-5.54l37-10.39a4.49,4.49,0,0,1,5.54,3.11L993.66,41A4.49,4.49,0,0,1,990.55,46.57Z" transform="translate(0 0.77)"></path><path class="cls-9" d="M957.83,55.75l-27.17,7.62-6.41-22.85A4.49,4.49,0,0,1,927.36,35l18.52-5.2a4.49,4.49,0,0,1,5.54,3.11Z" transform="translate(0 0.77)"></path><path class="cls-2" d="M951.42,32.9a4.49,4.49,0,0,0-5.54-3.11l-9.26,2.6,7.62,27.17,13.59-3.81Z" transform="translate(0 0.77)"></path><path class="cls-10" d="M117.1,85.66l-.75,3.64L111,115.59H17.73A14.22,14.22,0,0,1,3.51,101.37V100l6.63-32.43.75-3.65,43.22,8.84,9.88,2h0l9.88,2Z" transform="translate(0 0.77)"></path><polygon class="cls-11" points="117.1 86.43 116.35 90.07 110.98 116.36 55.65 116.36 63.24 79.21 63.25 79.21 63.99 75.57 64 75.57 73.88 77.59 117.1 86.43"></polygon><path class="cls-12" d="M100,49.91a15.14,15.14,0,0,1-17.84,11.8h0l-5.23.43L66.41,63l-9.3-4.91-4.64-2.45A15.13,15.13,0,1,1,70.32,43.85,15.14,15.14,0,0,1,100,49.91Z" transform="translate(0 0.77)"></path><path class="cls-13" d="M100,49.91a15.14,15.14,0,0,1-17.84,11.8h0l-5.23.43L66.41,63l.88-4.32h0l3-14.82A15.14,15.14,0,0,1,100,49.91Z" transform="translate(0 0.77)"></path><polygon class="cls-12" points="73.88 77.59 73.14 81.22 73.13 81.24 65.95 116.36 45.35 116.36 53.36 77.19 53.37 77.19 54.11 73.55 63.99 75.57 64 75.57 73.88 77.59"></polygon><polygon class="cls-13" points="73.88 77.59 73.14 81.22 73.13 81.24 65.95 116.36 55.65 116.36 63.24 79.21 63.25 79.21 63.99 75.57 64 75.57 73.88 77.59"></polygon><polygon class="cls-14" points="126.6 71.57 122.55 91.34 116.35 90.07 73.18 81.25 73.14 81.22 73.13 81.22 64 75.57 63.99 75.57 53.37 77.19 53.36 77.19 10.14 68.36 3.94 67.09 7.99 47.32 52.47 56.41 57.41 57.42 66.41 63.77 77.18 61.47 82.12 62.48 82.14 62.48 126.6 71.57"></polygon><polygon class="cls-15" points="126.6 71.57 122.55 91.34 116.35 90.07 73.18 81.25 73.14 81.22 73.13 81.22 64 75.57 63.99 75.57 65.36 68.9 66.41 63.77 77.18 61.47 82.12 62.48 82.14 62.48 126.6 71.57"></polygon><polygon class="cls-16" points="55.88 15.13 46.85 17.92 42.18 2.78 47.38 1.18 51.22 0 51.58 1.18 55.88 15.13"></polygon><rect class="cls-17" x="95.97" y="14.72" width="15.84" height="9.45" transform="translate(21.93 86.96) rotate(-49.76)"></rect><polygon class="cls-16" points="84.03 1.18 81.71 12.55 77.08 11.61 72.44 10.66 74.38 1.18 84.03 1.18"></polygon><polygon class="cls-17" points="84.03 1.18 81.71 12.55 77.08 11.61 79.21 1.18 84.03 1.18"></polygon><polygon class="cls-17" points="133.46 38.75 123.69 45.19 118.48 37.3 128.25 30.85 133.46 38.75"></polygon><rect class="cls-16" x="17.53" y="10.19" width="9.45" height="11.7" transform="translate(-5.15 15.69) rotate(-33.44)"></rect><path class="cls-18" d="M57.41,56.65,77.18,60.7,73.13,80.47l-19.77-4Z" transform="translate(0 0.77)"></path><path class="cls-12" d="M67.29,58.68l9.89,2L73.13,80.47l-9.88-2Z" transform="translate(0 0.77)"></path></svg> 