<?xml version="1.0" encoding="UTF-8"?>
<svg width="18px" height="18px" viewBox="0 0 18 18" version="1.1" xmlns="http://www.w3.org/2000/svg" xmlns:xlink="http://www.w3.org/1999/xlink">
    <!-- Generator: Sketch 64 (93537) - https://sketch.com -->
    <title>check_circle_outline-black-18dp (2)</title>
    <desc>Created with Sketch.</desc>
    <g id="Symbols" stroke="none" stroke-width="1" fill="none" fill-rule="evenodd">
        <g id="Icon/Check-circle-outline---Blue">
            <g id="check_circle_outline-black-18dp-(2)">
                <polygon id="Path" points="0 0 18 0 18 18 0 18"></polygon>
                <path d="M9,0 C4.032,0 0,4.032 0,9 C0,13.968 4.032,18 9,18 C13.968,18 18,13.968 18,9 C18,4.032 13.968,0 9,0 Z M9,16 C5.14125,16 2,12.85875 2,9 C2,5.14125 5.14125,2 9,2 C12.85875,2 16,5.14125 16,9 C16,12.85875 12.85875,16 9,16 Z M12.825,6 L7.33333333,10.5465322 L5.175,8.30980184 L4,9.53220099 L7.33333333,13 L14,7.23106865 L12.825,6 Z" id="Shape" fill="#2CDD67"></path>
            </g>
        </g>
    </g>
</svg>