<?xml version="1.0" encoding="UTF-8"?> <svg xmlns="http://www.w3.org/2000/svg" xmlns:xlink="http://www.w3.org/1999/xlink" width="220px" height="220px" viewBox="0 0 220 220" version="1.1"><!-- Generator: Sketch 64 (93537) - https://sketch.com --><title>Group 34</title><desc>Created with Sketch.</desc><g id="Design" stroke="none" stroke-width="1" fill="none" fill-rule="evenodd"><g id="Homepage-v12_11" transform="translate(-1139.000000, -2233.000000)"><g id="Features-Copy" transform="translate(30.000000, 1718.000000)"><g id="2" transform="translate(41.000000, 501.000000)"><g id="Group-34" transform="translate(1060.000000, 0.000000)"><path d="M228,124.000056 C228,184.75227 178.746565,233.998816 117.997518,233.998816 C57.2459897,233.998816 8,184.75227 8,124.000056 C8,63.2478425 57.2459897,13.9988155 117.997518,13.9988155 C178.746565,13.9988155 228,63.2478425 228,124.000056" id="Fill-1" fill="#003760" opacity="0.049999997"></path><g id="Group-22" transform="translate(49.405132, 107.422566)"><path d="M89.1237736,44.565283 C89.1237736,69.1766038 69.1743396,89.1283019 44.5607547,89.1283019 C19.9516981,89.1283019 9.23705556e-14,69.1766038 9.23705556e-14,44.565283 C9.23705556e-14,19.9516981 19.9516981,-1.77635684e-13 44.5607547,-1.77635684e-13 C69.1743396,-1.77635684e-13 89.1237736,19.9516981 89.1237736,44.565283" id="Fill-6" fill="#003760"></path><path d="M44.5623396,11.1169811 C63.0378113,11.1169811 78.0151698,26.0898113 78.0151698,44.565283 C78.0151698,63.0407547 63.0378113,78.0158491 44.5623396,78.0158491 C26.0846038,78.0158491 11.1072453,63.0407547 11.1072453,44.565283 C11.1072453,26.0898113 26.0846038,11.1169811 44.5623396,11.1169811 Z M41.2147925,24.6047547 L35.5181887,24.6047547 L35.5181887,28.3383396 L29.2872453,28.3383396 L29.2872453,34.4651321 L33.9310189,34.4651321 L33.9310189,54.6613585 L29.2872453,54.6613585 L29.2872453,60.7904151 L35.5181887,60.7904151 L35.5181887,64.5217358 L41.2147925,64.5217358 L41.2147925,60.7904151 L45.0344151,60.7904151 L45.0344151,64.5217358 L50.7264906,64.5217358 L50.7264906,60.6500377 C53.8215849,60.3172075 56.0902642,59.3662642 57.5144151,57.774566 C59.0608302,56.0402264 59.8351698,54.0432453 59.8351698,51.7813585 C59.8351698,49.7413585 59.2396981,48.0319245 58.0487547,46.6530566 C56.8600755,45.2741887 55.2547925,44.3685283 53.2419623,43.9360755 C53.7989434,43.689283 54.1883774,43.5126792 54.4057358,43.4017358 C54.6230943,43.2953208 55.0057358,43.0236226 55.5649811,42.5889057 C57.2042264,41.3526792 58.0261132,39.4621132 58.0261132,36.9262642 C58.0261132,34.8183396 57.2970566,32.934566 55.8434717,31.2636226 C55.037434,30.3647547 53.8396981,29.6538113 52.248,29.1262642 C51.7702642,28.9677736 51.2563019,28.8432453 50.7264906,28.734566 L50.7264906,24.6047547 L45.0344151,24.6047547 L45.0344151,28.3383396 L41.2147925,28.3383396 L41.2147925,24.6047547 Z M45.4419623,47.1873962 C47.8555472,47.1873962 49.6125283,47.4296604 50.7129057,47.9051321 C51.8087547,48.3873962 52.3612075,49.3768302 52.3612075,50.8779623 C52.3612075,52.3790943 51.8449811,53.3843774 50.8057358,53.8938113 C49.7710189,54.4077736 48.213283,54.6613585 46.1393208,54.6613585 L41.1740377,54.6613585 L41.1740377,47.1873962 L45.4419623,47.1873962 Z M44.6540377,34.4651321 C46.7913962,34.4651321 48.3061132,34.6983396 49.2049811,35.1624906 C50.1015849,35.6266415 50.5498868,36.5775849 50.5498868,38.0175849 C50.5498868,39.4553208 50.0630943,40.3926792 49.0895094,40.8251321 C48.1136604,41.2575849 46.6170566,41.4772075 44.6110189,41.4772075 L41.1740377,41.4772075 L41.1740377,34.4651321 L44.6540377,34.4651321 Z" id="Combined-Shape" fill="#EEEEEE"></path></g><g id="Group-20" transform="translate(111.368604, 79.498566)"><path d="M89.1237736,44.565283 C89.1237736,69.1766038 69.1743396,89.1283019 44.5607547,89.1283019 C19.9516981,89.1283019 9.23705556e-14,69.1766038 9.23705556e-14,44.565283 C9.23705556e-14,19.9539623 19.9516981,-1.77635684e-13 44.5607547,-1.77635684e-13 C69.1743396,-1.77635684e-13 89.1237736,19.9539623 89.1237736,44.565283" id="Fill-12" fill="#003760"></path><path d="M78.0151698,44.565283 C78.0151698,63.0384906 63.0378113,78.0135849 44.5623396,78.0135849 C26.0891321,78.0135849 11.1117736,63.0384906 11.1117736,44.565283 C11.1117736,26.0898113 26.0891321,11.114717 44.5623396,11.114717 C63.0378113,11.114717 78.0151698,26.0898113 78.0151698,44.565283" id="Fill-14" fill="#EEEEEE"></path><polygon id="Fill-16" fill="#003760" points="44.561434 53.1178868 30.8429434 43.0039245 44.561434 22.0763774 58.2799245 43.0061887"></polygon><polygon id="Fill-18" fill="#003760" points="44.561434 67.0498868 30.8429434 45.7600755 44.561434 56.5646038 58.2799245 45.7600755"></polygon></g><g id="Group-21" transform="translate(60.969057, 41.034717)"><path d="M89.1283019,44.565283 C89.1283019,69.1766038 69.1743396,89.1283019 44.5607547,89.1283019 C19.9471698,89.1283019 4.26325641e-14,69.1766038 4.26325641e-14,44.565283 C4.26325641e-14,19.9516981 19.9471698,2.84217094e-14 44.5607547,2.84217094e-14 C69.1743396,2.84217094e-14 89.1283019,19.9516981 89.1283019,44.565283" id="Fill-20" fill="#003760"></path><path d="M78.0153962,44.565283 C78.0153962,63.0384906 63.0380377,78.0135849 44.562566,78.0135849 C26.0893585,78.0135849 11.112,63.0384906 11.112,44.565283 C11.112,26.0920755 26.0893585,11.1169811 44.562566,11.1169811 C63.0380377,11.1169811 78.0153962,26.0920755 78.0153962,44.565283" id="Fill-22" fill="#FFFFFF"></path><polygon id="Fill-24" fill="#003760" points="63.0948679 53.4427925 63.0948679 29.6510943 44.5605283 48.6495849 26.0329811 29.6510943 26.0329811 53.4427925 20.4292075 53.4427925 20.4292075 59.4767547 32.0646792 59.4767547 32.0646792 44.4767547 44.5605283 57.276 57.0631698 44.4767547 57.0631698 59.4767547 68.6986415 59.4767547 68.6986415 53.4427925"></polygon></g><path d="M161.974415,45.8655094 L161.068755,46.0896604 C155.770642,47.418717 151.631774,51.5575849 150.304981,56.8579623 L150.076302,57.7613585 L149.849887,56.8579623 C148.523094,51.5575849 144.384226,47.418717 139.086113,46.0896604 L138.180453,45.8655094 L139.086113,45.6390943 C144.384226,44.3100377 148.523094,40.1711698 149.849887,34.8730566 L150.076302,33.9673962 L150.304981,34.8730566 C151.631774,40.1711698 155.770642,44.3100377 161.068755,45.6390943 L161.974415,45.8655094 Z" id="Fill-26" fill="#003760" opacity="0.5"></path><path d="M176.250113,61.8683019 L176.736906,61.9928302 L176.250113,62.1128302 C173.401811,62.8283019 171.178415,65.049434 170.460679,67.9 L170.342943,68.3867925 L170.218415,67.9 C169.505208,65.049434 167.281811,62.8283019 164.433509,62.1128302 L163.946717,61.9928302 L164.433509,61.8683019 C167.281811,61.1550943 169.505208,58.9316981 170.218415,56.0833962 L170.342943,55.5966038 L170.460679,56.0833962 C171.178415,58.9316981 173.401811,61.1550943 176.250113,61.8683019" id="Fill-28" fill="#003760" opacity="0.200000003"></path><path d="M48.5818868,123.856226 L49.4037736,124.064528 L48.5818868,124.270566 C43.7615094,125.477358 39.9984906,129.240377 38.7916981,134.060755 L38.5833962,134.882642 L38.3750943,134.060755 C37.1683019,129.240377 33.405283,125.477358 28.5849057,124.270566 L27.7675472,124.064528 L28.5849057,123.856226 C33.405283,122.649434 37.1683019,118.886415 38.3750943,114.068302 L38.5833962,113.244151 L38.7916981,114.068302 C39.9984906,118.886415 43.7615094,122.649434 48.5818868,123.856226" id="Fill-30" fill="#003760" opacity="0.5"></path><path d="M174.883472,184.187698 L175.684981,184.391472 L174.883472,184.592981 C170.178566,185.77034 166.508377,189.440528 165.326491,194.14317 L165.127245,194.944679 L164.925736,194.14317 C163.748377,189.440528 160.078189,185.77034 155.373283,184.592981 L154.571774,184.391472 L155.373283,184.187698 C160.078189,183.01034 163.748377,179.337887 164.925736,174.635245 L165.127245,173.833736 L165.326491,174.635245 C166.508377,179.337887 170.178566,183.01034 174.883472,184.187698" id="Fill-32" fill="#003760" opacity="0.200000003"></path></g></g></g></g></g></svg> 