<?xml version="1.0" encoding="UTF-8"?> <svg xmlns="http://www.w3.org/2000/svg" xmlns:xlink="http://www.w3.org/1999/xlink" width="220px" height="220px" viewBox="0 0 220 220" version="1.1"><!-- Generator: Sketch 64 (93537) - https://sketch.com --><title>Group 40</title><desc>Created with Sketch.</desc><g id="Design" stroke="none" stroke-width="1" fill="none" fill-rule="evenodd"><g id="Homepage-v12_11" transform="translate(-80.000000, -2533.000000)"><g id="Features-Copy" transform="translate(30.000000, 1718.000000)"><g id="3" transform="translate(40.000000, 800.000000)"><g id="Group-40"><path d="M120,235 C59.2484714,235 10,185.75401 10,125.002482 C10,64.2509532 59.2484714,15 120,15 C180.746565,15 230,64.2509532 230,125.002482 C230,185.75401 180.746565,235 120,235 Z" id="Fill-1" fill="#003760" opacity="0.049999997"></path><g id="Group-22-Copy" transform="translate(81.000000, 73.000000)"><path d="M53.0182642,27.3067487 C53.0182642,41.9418306 41.1547629,53.8060755 26.5175909,53.8060755 C11.8831119,53.8060755 0.0182641509,41.9418306 0.0182641509,27.3067487 C0.0182641509,12.6703204 11.8831119,0.806075472 26.5175909,0.806075472 C41.1547629,0.806075472 53.0182642,12.6703204 53.0182642,27.3067487" id="Fill-6" fill="#003760"></path><path d="M27.0189409,7.80607547 C38.0642524,7.80607547 47.0182642,16.7585918 47.0182642,27.8053986 C47.0182642,38.8522054 38.0642524,47.8060755 27.0189409,47.8060755 C15.9722759,47.8060755 7.01826415,38.8522054 7.01826415,27.8053986 C7.01826415,16.7585918 15.9722759,7.80607547 27.0189409,7.80607547 Z M25.017655,15.8706506 L21.6120173,15.8706506 L21.6120173,18.1030261 L17.8869319,18.1030261 L17.8869319,21.7663422 L20.6631493,21.7663422 L20.6631493,33.8420182 L17.8869319,33.8420182 L17.8869319,37.5066881 L21.6120173,37.5066881 L21.6120173,39.7377098 L25.017655,39.7377098 L25.017655,37.5066881 L27.3011649,37.5066881 L27.3011649,39.7377098 L30.7040954,39.7377098 L30.7040954,37.422754 C32.5544558,37.223749 33.9107551,36.6551634 34.7621645,35.7034593 C35.6866679,34.6664674 36.1495964,33.4724375 36.1495964,32.120016 C36.1495964,30.9002644 35.7936017,29.878164 35.0816123,29.0537148 C34.3709764,28.2292656 33.4112796,27.6877555 32.2079362,27.4291844 C32.5409199,27.2816229 32.7737377,27.1760284 32.9036826,27.1096934 C33.0336274,27.046066 33.2623845,26.883613 33.5967217,26.6236881 C34.5767224,25.8845268 35.0680763,24.7541243 35.0680763,23.237896 C35.0680763,21.9775311 34.6322197,20.85119 33.7632136,19.8521038 C33.2813348,19.314655 32.5652846,18.8895696 31.6137093,18.5741399 C31.3281014,18.4793756 31.020836,18.404918 30.7040954,18.3399368 L30.7040954,15.8706506 L27.3011649,15.8706506 L27.3011649,18.1030261 L25.017655,18.1030261 L25.017655,15.8706506 Z M27.5448115,29.3732058 C28.9877406,29.3732058 30.0381281,29.5180598 30.6959739,29.8023526 C31.3511124,30.0907067 31.6813889,30.6823066 31.6813889,31.5798596 C31.6813889,32.4774127 31.3727699,33.0784889 30.7514711,33.3830884 C30.1328796,33.6903954 29.2016082,33.8420182 27.9617178,33.8420182 L24.9932904,33.8420182 L24.9932904,29.3732058 L27.5448115,29.3732058 Z M27.0737614,21.7663422 C28.3515524,21.7663422 29.2571055,21.905781 29.7944815,22.183305 C30.330504,22.4608289 30.5985152,23.0294146 30.5985152,23.8904157 C30.5985152,24.750063 30.3074929,25.310526 29.7254483,25.5690971 C29.1420501,25.8276682 28.2473258,25.9589844 27.0480432,25.9589844 L24.9932904,25.9589844 L24.9932904,21.7663422 L27.0737614,21.7663422 Z" id="Combined-Shape" fill="#EEEEEE"></path></g><g id="Group-20-Copy" transform="translate(117.000000, 59.000000)"><path d="M53.0182642,25.806736 C53.0182642,40.1656843 41.1547629,51.8060755 26.5175909,51.8060755 C11.8831119,51.8060755 0.0182641509,40.1656843 0.0182641509,25.806736 C0.0182641509,11.4477877 11.8831119,-0.193924528 26.5175909,-0.193924528 C41.1547629,-0.193924528 53.0182642,11.4477877 53.0182642,25.806736" id="Fill-12" fill="#003760"></path><path d="M47.0182642,26.3067354 C47.0182642,37.0760521 38.0636464,45.8060755 27.0175873,45.8060755 C15.9728819,45.8060755 7.01826415,37.0760521 7.01826415,26.3067354 C7.01826415,15.5360988 15.9728819,6.80607547 27.0175873,6.80607547 C38.0636464,6.80607547 47.0182642,15.5360988 47.0182642,26.3067354" id="Fill-14" fill="#EEEEEE"></path><polygon id="Fill-16" fill="#003760" points="26.5182642 31.8060755 18.0182642 25.9413052 26.5182642 13.8060755 35.0182642 25.9426181"></polygon><polygon id="Fill-18" fill="#003760" points="26.5182642 39.8060755 18.0182642 26.8060755 26.5182642 33.4035444 35.0182642 26.8060755"></polygon></g><g id="Group-21-Copy" transform="translate(88.000000, 35.000000)"><path d="M53.0182642,27.3067487 C53.0182642,41.9418306 41.1526729,53.8060755 26.5162446,53.8060755 C11.8798163,53.8060755 0.0182641509,41.9418306 0.0182641509,27.3067487 C0.0182641509,12.6703204 11.8798163,0.806075472 26.5162446,0.806075472 C41.1526729,0.806075472 53.0182642,12.6703204 53.0182642,27.3067487" id="Fill-20" fill="#003760"></path><path d="M47.0182642,27.8060755 C47.0182642,38.8519023 38.0636464,47.8060755 27.0175873,47.8060755 C15.9728819,47.8060755 7.01826415,38.8519023 7.01826415,27.8060755 C7.01826415,16.7602486 15.9728819,7.80607547 27.0175873,7.80607547 C38.0636464,7.80607547 47.0182642,16.7602486 47.0182642,27.8060755" id="Fill-22" fill="#FFFFFF"></path><polygon id="Fill-24" fill="#003760" points="37.651549 33.164536 37.651549 18.8060755 26.5162237 30.2718008 15.3849793 18.8060755 15.3849793 33.164536 12.0182642 33.164536 12.0182642 36.8060755 19.008789 36.8060755 19.008789 27.7534679 26.5162237 35.4779042 34.0277393 27.7534679 34.0277393 36.8060755 41.0182642 36.8060755 41.0182642 33.164536"></polygon></g><path d="M195.669412,143.286917 L196.582915,143.521031 L195.669412,143.748259 C190.293976,145.093265 186.102881,149.288951 184.753284,154.659796 L184.526056,155.577889 L184.296533,154.659796 C182.946936,149.288951 178.75125,145.093265 173.380405,143.748259 L172.462312,143.521031 L173.380405,143.286917 C178.75125,141.941911 182.946936,137.746225 184.296533,132.37538 L184.526056,131.457286 L184.753284,132.37538 C186.102881,137.746225 190.293976,141.941911 195.669412,143.286917" id="Fill-26" fill="#003760" opacity="0.5"></path><path d="M63.7437186,101.908367 L63.1438825,102.05719 C59.6558595,102.933592 56.9306201,105.659653 56.0544816,109.153451 L55.908065,109.748744 L55.7545636,109.153451 C54.8784251,105.659653 52.1531857,102.933592 48.6604396,102.05719 L48.0653266,101.908367 L48.6604396,101.757181 C52.1531857,100.880779 54.8784251,98.1594427 55.7545636,94.665644 L55.908065,94.0703518 L56.0544816,94.665644 C56.9306201,98.1594427 59.6558595,100.880779 63.1438825,101.757181 L63.7437186,101.908367 Z" id="Fill-28" fill="#003760" opacity="0.200000003"></path><path d="M81.2510845,77.5465253 L82.2160804,77.7878172 L81.2510845,78.0313642 C75.6099169,79.4452898 71.2065594,83.8494315 69.7928855,89.4916037 L69.5516365,90.4522613 L69.3081328,89.4916037 C67.8944589,83.8494315 63.4911015,79.4452898 57.8499338,78.0313642 L56.8894472,77.7878172 L57.8499338,77.5465253 C63.4911015,76.1325996 67.8944589,71.728458 69.3081328,66.0862858 L69.5516365,65.1256281 L69.7928855,66.0862858 C71.2065594,71.728458 75.6099169,76.1325996 81.2510845,77.5465253" id="Fill-30" fill="#003760" opacity="0.5"></path><path d="M184.992462,102.983924 C184.992462,103.025242 184.827172,103.066559 184.496591,103.107877 C181.599975,103.83497 179.34134,106.093342 178.614163,108.989621 L178.490195,109.482412 L178.366227,108.989621 C177.640561,106.093342 175.381926,103.83497 172.48531,103.107877 L171.992462,102.983924 L172.48531,102.85997 C175.381926,102.134389 177.640561,99.8714818 178.366227,96.978226 L178.490195,96.4824121 L178.614163,96.978226 C179.34134,99.8714818 181.599975,102.134389 184.496591,102.85997 C184.827172,102.901288 184.992462,102.942606 184.992462,102.983924 Z" id="Fill-32" fill="#003760" opacity="0.200000003"></path><path d="M82.5784859,192.663317 C77.8404347,192.663317 74,188.782788 74,183.99014 L74,132.663317 L166,132.663317 L166,183.99014 C166,188.782788 162.161838,192.663317 157.426059,192.663317 L82.5784859,192.663317 Z" id="Fill-34" fill="#003760"></path><path d="M74.6036916,115 C70.404638,115 67,118.082614 67,121.880395 L67,128.11755 C67,131.917386 70.404638,135 74.6036916,135 L165.400848,135 C169.599902,135 173,131.917386 173,128.11755 L173,121.880395 C173,118.082614 169.599902,115 165.400848,115 L74.6036916,115 Z" id="Fill-36" fill="#FFFFFF"></path><path d="M135,149.558962 C135,151.461751 133.71838,153 132.138708,153 L107.856706,153 C106.277035,153 105,151.461751 105,149.558962 L105,146.441038 C105,144.538249 106.277035,143 107.856706,143 L132.138708,143 C133.71838,143 135,144.538249 135,146.441038 L135,149.558962 Z" id="Fill-38" fill="#EDF3FC"></path></g></g></g></g></g></svg> 