<?xml version="1.0" encoding="UTF-8"?> <svg xmlns="http://www.w3.org/2000/svg" xmlns:xlink="http://www.w3.org/1999/xlink" width="20px" height="20px" viewBox="0 0 20 20" version="1.1"><!-- Generator: Sketch 64 (93537) - https://sketch.com --><title>Icon</title><desc>Created with Sketch.</desc><g id="Symbols" stroke="none" stroke-width="1" fill="none" fill-rule="evenodd" opacity="0.600000024"><g id="Casino-List-" transform="translate(-204.000000, -116.000000)" fill="#003760"><g id="Casino-List-Expanded-Copy"><g id="left-part" transform="translate(30.000000, 50.000000)"><g id="Group-13" transform="translate(112.000000, 42.000000)"><g id="Icon" transform="translate(62.000000, 24.000000)"><path d="M10,0 C4.4771525,0 0,4.4771525 0,10 C0,15.5228475 4.4771525,20 10,20 C15.5228475,20 20,15.5228475 20,10 C20,7.3478351 18.9464316,4.80429597 17.0710678,2.92893219 C15.195704,1.0535684 12.6521649,0 10,0 Z M10.0002036,12.9322205 L6,10 L9.99776024,17 L14,10 L9.99776024,12.9322205 L10.0002036,12.9322205 Z M9.99918542,3 L6,9.63558632 L9.99918542,12 L14,9.63802932 L9.99918542,3 Z" id="Icon-Shape"></path></g></g></g></g></g></g></svg> 