<?xml version="1.0" encoding="UTF-8"?>
<svg width="18px" height="16px" viewBox="0 0 18 16" version="1.1" xmlns="http://www.w3.org/2000/svg" xmlns:xlink="http://www.w3.org/1999/xlink">
    <!-- Generator: Sketch 64 (93537) - https://sketch.com -->
    <title>heart</title>
    <desc>Created with Sketch.</desc>
    <g id="Symbols" stroke="none" stroke-width="1" fill="none" fill-rule="evenodd" opacity="0.5">
        <g id="Footer-v-2" transform="translate(-1295.000000, -213.000000)" fill="#9B9B9B" fill-rule="nonzero">
            <g id="Footer">
                <g id="bottom-line" transform="translate(0.000000, 207.000000)">
                    <g id="Group-13" transform="translate(1191.000000, 4.000000)">
                        <g id="heart" transform="translate(104.000000, 2.000000)">
                            <path d="M16.5821484,1.46081876 C15.697793,0.518804778 14.4783633,0 13.1484375,0 C10.8233438,0 9.62117578,1.25845938 9.02211328,2.31415258 C9.01466016,2.32724381 9.00727734,2.34037203 9,2.35346326 C8.99272266,2.34037203 8.98533984,2.32724381 8.97788672,2.31415258 C8.37882422,1.25845938 7.17665625,0 4.8515625,0 C3.52163672,0 2.30220703,0.518804778 1.41785156,1.46085574 C0.490289062,2.44894789 0,3.80152361 0,5.37236049 C0,8.70796198 2.81886328,10.9195296 5.30585156,12.8707518 C6.54507422,13.8429792 7.71556641,14.7613254 8.45226563,15.7241226 C8.58571875,15.8985614 8.78712891,16 9,16 C9.21287109,16 9.41428125,15.8985614 9.54776953,15.7241966 C9.92668359,15.2289486 10.4533945,14.7023779 11.205457,14.0670094 C11.5081875,13.8112126 11.5564922,13.3456603 11.3133164,13.0271809 C11.0701758,12.7087756 10.6275937,12.6578899 10.3248281,12.9136866 C9.79425,13.3619689 9.36028125,13.7673903 9.00031641,14.1526571 C8.20550391,13.3003587 7.19950781,12.5110758 6.14661328,11.6850338 C3.81610547,9.85658814 1.40625,7.96586665 1.40625,5.37236049 C1.40625,3.08013757 2.82301172,1.47923524 4.8515625,1.47923524 C6.17058984,1.47923524 7.14455859,2.00122037 7.74632812,3.03065715 C8.22410156,3.84782368 8.29842188,4.69842092 8.29891406,4.7036722 C8.32710937,5.088976 8.63247656,5.38811434 8.99982422,5.38811434 C9.36724219,5.38811434 9.67257422,5.09223032 9.70076953,4.70692652 C9.70150781,4.69842092 9.77582813,3.84782368 10.2536016,3.03065715 C10.8554414,2.00122037 11.8294102,1.47923524 13.1484375,1.47923524 C15.1769883,1.47923524 16.59375,3.08013757 16.59375,5.37236049 C16.59375,7.51865685 14.9325469,9.18272253 13.1373633,10.6612551 C12.8316445,10.9130579 12.7778203,11.3779446 13.0172344,11.6995673 C13.256543,12.0211531 13.6985273,12.0777708 14.0043164,11.825931 C14.8582617,11.1225916 15.9406172,10.172146 16.7367656,9.05602603 C17.5867734,7.86439111 18,6.65944307 18,5.37236049 C18,3.80152361 17.5097109,2.44894789 16.5821484,1.46081876 Z" id="Path"></path>
                        </g>
                    </g>
                </g>
            </g>
        </g>
    </g>
</svg>