<?xml version="1.0" encoding="UTF-8"?> <svg xmlns="http://www.w3.org/2000/svg" xmlns:xlink="http://www.w3.org/1999/xlink" width="20px" height="20px" viewBox="0 0 20 20" version="1.1"><!-- Generator: Sketch 64 (93537) - https://sketch.com --><title>Icon</title><desc>Created with Sketch.</desc><g id="Symbols" stroke="none" stroke-width="1" fill="none" fill-rule="evenodd" opacity="0.600000024"><g id="Casino-List-" transform="translate(-174.000000, -116.000000)" fill="#003760"><g id="Casino-List-Expanded-Copy"><g id="left-part" transform="translate(30.000000, 50.000000)"><g id="Group-13" transform="translate(112.000000, 42.000000)"><g id="simple-icons:litecoin" transform="translate(32.000000, 24.000000)"><g id="Icon"><path d="M10,0 C4.4771525,0 0,4.4771525 0,10 C0,15.5228475 4.4771525,20 10,20 C15.5228475,20 20,15.5228475 20,10 C20,7.3478351 18.9464316,4.80429597 17.0710678,2.92893219 C15.195704,1.0535684 12.6521649,0 10,0 Z M9.78166667,3.065 L11.935,3.065 C12.0242891,3.065 12.1083962,3.10694338 12.1623614,3.1780793 C12.2163266,3.24921523 12.2339494,3.34148262 12.21,3.4275 L10.5183333,9.1925 L12.1058333,8.7075 L11.7658333,9.86166667 L10.1625,10.3283333 L9.1225,13.84 L14.6858333,13.84 C14.7752161,13.8404865 14.859225,13.8827578 14.9128816,13.9542454 C14.9665382,14.025733 14.9836639,14.1182051 14.9591667,14.2041667 L14.4741667,15.8708333 C14.4264757,16.0336854 14.2771914,16.1456486 14.1075,16.1458333 L5.61083333,16.1458333 L7.04666667,11.2941667 L5.45833333,11.7775 L5.80833333,10.6433333 L7.4,10.16 L9.41833333,3.34333333 C9.46380818,3.17954901 9.61252212,3.06588664 9.7825,3.065 L9.78166667,3.065 Z" id="Icon-Shape"></path></g></g></g></g></g></g></g></svg> 