<?xml version="1.0" encoding="UTF-8"?> <svg xmlns="http://www.w3.org/2000/svg" xmlns:xlink="http://www.w3.org/1999/xlink" width="221px" height="220px" viewBox="0 0 221 220" version="1.1"><!-- Generator: Sketch 64 (93537) - https://sketch.com --><title>Group 26</title><desc>Created with Sketch.</desc><g id="Design" stroke="none" stroke-width="1" fill="none" fill-rule="evenodd"><g id="Homepage-v12_11" transform="translate(-76.000000, -1931.000000)"><g id="Features-Copy" transform="translate(30.000000, 1718.000000)"><g id="1" transform="translate(40.000000, 202.000000)"><g id="Group-26" transform="translate(0.000000, 3.000000)"><path d="M226.783333,118.002796 C226.783333,178.75501 177.534306,228.001556 116.789538,228.001556 C56.0323604,228.001556 6.78333333,178.75501 6.78333333,118.002796 C6.78333333,57.2505826 56.0323604,8.00155556 116.789538,8.00155556 C177.534306,8.00155556 226.783333,57.2505826 226.783333,118.002796" id="Fill-1" fill="#003760" opacity="0.049999997"></path><path d="M62.2995556,76.9582222 C58.064,78.9382222 55.4595556,83.4537778 55.7684444,88.2826667 C56.6328889,101.847111 59.9173333,129.647111 72.3617778,150.387111 C88.0551111,176.551556 107.544,183.398222 114.366222,185.053778 C116.010667,185.453778 117.717333,185.453778 119.361778,185.053778 C126.179556,183.398222 145.672889,176.551556 161.366222,150.387111 C173.810667,129.647111 177.097333,101.844889 177.959556,88.2826667 C178.268444,83.4537778 175.664,78.9382222 171.428444,76.9582222 L121.579556,53.656 C118.581778,52.2537778 115.148444,52.2537778 112.148444,53.656 L62.2995556,76.9582222 Z" id="Fill-6" fill-opacity="0.2" fill="#003760"></path><path d="M116.862,56.1753333 C115.755333,56.1753333 114.679778,56.4153333 113.664222,56.8908889 L63.8108889,80.1953333 C60.9197778,81.5464444 59.1197778,84.7064444 59.3308889,88.0553333 C60.2308889,102.128667 63.5153333,128.704222 75.4264444,148.548667 C90.2397778,173.239778 108.182,179.877556 115.208667,181.584222 C116.293111,181.844222 117.435333,181.848667 118.524222,181.584222 C125.546444,179.877556 143.488667,173.239778 158.302,148.548667 C170.208667,128.706444 173.493111,102.130889 174.397556,88.0553333 C174.608667,84.7064444 172.808667,81.5464444 169.913111,80.1953333 L120.068667,56.8908889 C119.048667,56.4153333 117.973111,56.1753333 116.862,56.1753333 M116.862,188.924222 C115.742,188.924222 114.622,188.790889 113.528667,188.528667 C105.624222,186.604222 85.4997778,179.228667 69.302,152.228667 C56.6153333,131.084222 53.142,103.230889 52.1997778,88.5108889 C51.8064444,82.2486667 55.2508889,76.3086667 60.7864444,73.722 L110.633111,50.4197778 C114.570889,48.5797778 119.153111,48.5775556 123.095333,50.4197778 L172.937556,73.722 C178.473111,76.3108889 181.922,82.2508889 181.528667,88.5086667 C180.586444,103.233111 177.113111,131.086444 164.426444,152.228667 C148.228667,179.228667 128.104222,186.604222 120.204222,188.526444 C119.110889,188.790889 117.986444,188.924222 116.862,188.924222" id="Fill-8" fill="#003760"></path><path d="M162.335111,51.9697778 L162.868444,52.1053333 L162.335111,52.2408889 C159.197333,53.0275556 156.748444,55.4764444 155.959556,58.6142222 L155.824,59.1497778 L155.690667,58.6142222 C154.904,55.4764444 152.452889,53.0275556 149.315111,52.2408889 L148.779556,52.1053333 L149.315111,51.9697778 C152.452889,51.1831111 154.904,48.7342222 155.690667,45.5964444 L155.824,45.0631111 L155.959556,45.5964444 C156.748444,48.7342222 159.197333,51.1831111 162.335111,51.9697778" id="Fill-10" fill="#003760" opacity="0.5"></path><path d="M64.4488889,164.990444 L65.0777778,165.146 L64.4488889,165.306 C60.8022222,166.217111 57.9511111,169.068222 57.04,172.717111 L56.8844444,173.341556 L56.7222222,172.717111 C55.8111111,169.068222 52.96,166.217111 49.3111111,165.306 L48.6888889,165.146 L49.3111111,164.990444 C52.96,164.077111 55.8111111,161.226 56.7222222,157.577111 L56.8844444,156.957111 L57.04,157.577111 C57.9511111,161.226 60.8022222,164.077111 64.4488889,164.990444" id="Fill-12" fill="#003760" opacity="0.200000003"></path><path d="M191.658,154.988444 L192.535778,155.212889 L191.658,155.432889 C186.511333,156.719556 182.495778,160.737333 181.202444,165.881778 L180.984667,166.761778 L180.764667,165.881778 C179.480222,160.737333 175.460222,156.719556 170.309111,155.432889 L169.435778,155.212889 L170.309111,154.988444 C175.460222,153.701778 179.480222,149.679556 180.764667,144.535111 L180.984667,143.659556 L181.202444,144.535111 C182.495778,149.679556 186.511333,153.701778 191.658,154.988444" id="Fill-14" fill="#003760" opacity="0.5"></path><path d="M177.552222,173.921778 L176.992222,174.064 C173.723333,174.881778 171.167778,177.437333 170.347778,180.704 L170.207778,181.266222 L170.07,180.704 C169.254444,177.437333 166.696667,174.881778 163.425556,174.064 L162.87,173.921778 L163.425556,173.784 C166.696667,172.964 169.254444,170.406222 170.07,167.139556 L170.207778,166.581778 L170.347778,167.139556 C171.167778,170.406222 173.723333,172.964 176.992222,173.784 L177.552222,173.921778 Z" id="Fill-16" fill="#003760" opacity="0.200000003"></path><path d="M102.717111,121.974 L131.010444,121.974 L131.010444,95.1495556 C131.010444,87.3495556 124.666,81.0028889 116.861556,81.0028889 C109.061556,81.0028889 102.717111,87.3495556 102.717111,95.1495556 L102.717111,121.974 Z M134.583778,129.118444 L99.146,129.118444 C97.1748889,129.118444 95.5726667,127.518444 95.5726667,125.545111 L95.5726667,95.1495556 C95.5726667,83.4095556 105.126,73.8606667 116.861556,73.8606667 C128.606,73.8606667 138.154889,83.4095556 138.154889,95.1495556 L138.154889,125.545111 C138.154889,127.518444 136.559333,129.118444 134.583778,129.118444 L134.583778,129.118444 Z" id="Fill-18" fill="#003760"></path><path d="M147.387111,130.003556 C147.387111,146.859111 133.724889,160.523556 116.862667,160.523556 C100.009333,160.523556 86.3404444,146.859111 86.3404444,130.003556 C86.3404444,113.143556 100.009333,99.4791111 116.862667,99.4791111 C133.724889,99.4791111 147.387111,113.143556 147.387111,130.003556" id="Fill-20" fill="#FFFFFF"></path><path d="M116.861556,107.759111 C129.150444,107.759111 139.106,117.716889 139.106,130.003556 C139.106,142.283556 129.150444,152.243556 116.861556,152.243556 C104.583778,152.243556 94.626,142.283556 94.626,130.003556 C94.626,117.716889 104.583778,107.759111 116.861556,107.759111 Z M116.691111,113 C107.473333,113 100,120.475556 100,129.697778 C100,138.915556 107.473333,146.393333 116.691111,146.393333 C125.915556,146.393333 133.388889,138.915556 133.388889,129.697778 C133.388889,120.475556 125.915556,113 116.691111,113 Z" id="Combined-Shape" fill="#003760"></path><path d="M125,130.247169 C125,131.769401 124.316469,133 123.473978,133 L110.523577,133 C109.681085,133 109,131.769401 109,130.247169 L109,127.752831 C109,126.230599 109.681085,125 110.523577,125 L123.473978,125 C124.316469,125 125,126.230599 125,127.752831 L125,130.247169 Z" id="Fill-38" fill="#003760" transform="translate(117.000000, 129.000000) rotate(90.000000) translate(-117.000000, -129.000000) "></path></g></g></g></g></g></svg> 