<?xml version="1.0" encoding="UTF-8"?> <svg xmlns="http://www.w3.org/2000/svg" id="Layer_1" data-name="Layer 1" viewBox="0 0 100 100"><defs><style>.cls-1{fill:#5c8197;}.cls-2{fill:#fff;}</style></defs><title>Tether</title><circle class="cls-1" cx="50" cy="50" r="50"></circle><path class="cls-2" d="M56.21,43V35.49H74V23.75H25.43V35.49H43.2v7.57c-14.35.73-25.1,3.74-25.1,7.34S28.85,57,43.2,57.74V81.26a34.23,34.23,0,0,0,13,.11V57.77c14.65-.68,25.69-3.72,25.69-7.37S70.86,43.71,56.21,43ZM50,55c-16,0-29-2.41-29-5.39,0-2.54,9.46-4.67,22.19-5.24V53a45.25,45.25,0,0,0,13,0V44.39c13,.53,22.77,2.68,22.77,5.26C79,52.63,66,55,50,55Z"></path></svg> 