<?xml version="1.0" encoding="UTF-8"?> <svg xmlns="http://www.w3.org/2000/svg" id="Layer_1" data-name="Layer 1" viewBox="0 0 100 100"><defs><style>.cls-1{fill:#5c8197;isolation:isolate;}.cls-2{fill:#fafbfc;}</style></defs><title>Tron10</title><circle class="cls-1" cx="50" cy="50" r="50"></circle><path class="cls-2" d="M45.6,84.61c-3.29-8.73-7-17.41-10.53-25.81-4.66-11-9.48-22.4-13.58-34.18l-1.12-3.23,3.36.6c3.95.71,7.81,1.39,11.61,2.05,10.86,1.9,21.13,3.7,31.39,5.8,3.16.65,5.89,3.06,8.41,5.47C82.71,42.58,82.83,44,76.51,52c-6,7.58-12.18,15.14-18.19,22.46q-3.49,4.23-6.94,8.45a34.23,34.23,0,0,1-2.6,2.51l-2.17,1.86Zm11.4-34c-1,.14-1.64.44-1.9,3.06-.53,4.73-1,9.66-1.47,14.42l-.06.54L70.08,48.7ZM46.45,67a54.38,54.38,0,0,1,1.41-10c1.58-5.9.21-9.58-4.9-13.11a87.82,87.82,0,0,1-9-7.13ZM63,43l8.25-1.43-2.92-3Zm-10.75-.1,8.34-7.1-21.92-4Z"></path></svg> 