<?xml version="1.0" encoding="UTF-8"?>
<svg width="20px" height="20px" viewBox="0 0 20 20" version="1.1" xmlns="http://www.w3.org/2000/svg" xmlns:xlink="http://www.w3.org/1999/xlink">
    <!-- Generator: Sketch 64 (93537) - https://sketch.com -->
    <title>Group 14</title>
    <desc>Created with Sketch.</desc>
    <g id="Symbols" stroke="none" stroke-width="1" fill="none" fill-rule="evenodd" opacity="0.5">
        <g id="Footer-v-2" transform="translate(-39.000000, -213.000000)" fill="#EEEEEE">
            <g id="Footer">
                <g id="bottom-line" transform="translate(0.000000, 207.000000)">
                    <g id="Group-14" transform="translate(39.000000, 6.000000)">
                        <g id="age">
                            <polygon id="Path" points="6.60050969 13.6363636 6.60050969 8.57082648 5.45454545 8.57082648 5.45454545 7.27272727 8.18181818 7.27272727 8.18181818 13.6363636"></polygon>
                            <path d="M15.1029535,8.94359704 C15.1029535,9.48574095 14.7893715,9.96567163 14.2667348,10.2323553 C14.9983668,10.5167031 15.4545455,11.1122282 15.4545455,11.8054614 C15.4545455,12.9252997 14.3902077,13.6363636 12.7272727,13.6363636 C11.0642784,13.6363636 10,12.9341873 10,11.8321798 C10,11.1211158 10.4941292,10.5167031 11.2638306,10.2323553 C10.7031839,9.93900881 10.3420895,9.44135847 10.3420895,8.89921456 C10.3420895,7.90369169 11.2733924,7.27272727 12.7177702,7.27272727 C14.181153,7.27272727 15.1029535,7.92152245 15.1029535,8.94359704 Z M11.5964176,11.6722029 C11.5964176,12.1966272 11.9955813,12.4899181 12.7272727,12.4899181 C13.4589641,12.4899181 13.867571,12.2055703 13.867571,11.6722029 C13.867571,11.1567774 13.4589641,10.8633753 12.7272727,10.8633753 C11.995522,10.8633753 11.5964176,11.1567218 11.5964176,11.6722029 Z M11.7675217,9.03247309 C11.7675217,9.47696444 12.1096112,9.72570629 12.7272727,9.72570629 C13.3449343,9.72570629 13.6870238,9.47690889 13.6870238,9.03247309 C13.6870238,8.57042872 13.3449343,8.31263262 12.7272727,8.31263262 C12.1095518,8.31263262 11.7675217,8.57042872 11.7675217,9.03247309 Z" id="Shape"></path>
                            <path d="M17.8107468,7.35452953 C18.0987104,8.20442493 18.2447904,9.09336382 18.2447904,10 C18.2447904,14.5460738 14.5462065,18.2446239 10.0000304,18.2446239 C5.45385436,18.2446239 1.75520965,14.5460738 1.75520965,10 C1.75520965,5.45380461 5.45379355,1.75537608 9.99996959,1.75537608 C10.9067357,1.75537608 11.7956827,1.90133307 12.6454642,2.18941569 L12.6454642,0.354675489 C11.7871076,0.119380656 10.9005933,0 10.0000304,0 C4.48602905,0 0,4.48598813 0,10 C0,15.5140119 4.48602905,20 10.0000304,20 C15.5140318,20 20,15.5140119 20,10 C20,9.09950618 19.8806791,8.21293909 19.6453821,7.35452953 L17.8107468,7.35452953 Z" id="Path"></path>
                            <polygon id="Path" points="17.0805342 2.91518425 17.0805342 0.909090909 15.6348141 0.909090909 15.6348141 2.91518425 13.6363636 2.91518425 13.6363636 4.35760665 15.6348141 4.35760665 15.6348141 6.36363636 17.0805342 6.36363636 17.0805342 4.35760665 19.0909091 4.35760665 19.0909091 2.91518425"></polygon>
                        </g>
                    </g>
                </g>
            </g>
        </g>
    </g>
</svg>